<?xml version="1.0" encoding="UTF-8"?>
<svg version="1.1" xmlns="http://www.w3.org/2000/svg" width="512" height="512">
<path d="M0 0 C1.57183044 -0.01891296 1.57183044 -0.01891296 3.17541504 -0.03820801 C4.30153198 -0.03011108 5.42764893 -0.02201416 6.58789062 -0.01367188 C8.32975647 -0.01941223 8.32975647 -0.01941223 10.10681152 -0.02526855 C12.56128812 -0.0279898 15.01579361 -0.02061392 17.47021484 -0.00390625 C21.23014904 0.01749847 24.98817222 -0.00370276 28.74804688 -0.02929688 C31.13216568 -0.02665364 33.5162833 -0.02152875 35.90039062 -0.01367188 C37.02650757 -0.0217688 38.15262451 -0.02986572 39.31286621 -0.03820801 C40.36075317 -0.02559937 41.40864014 -0.01299072 42.48828125 0 C43.86916931 0.00477356 43.86916931 0.00477356 45.2779541 0.00964355 C48.52010445 0.67739525 49.67817385 1.98185147 51.74414062 4.51757812 C52.87376198 6.87911078 53.84881777 9.14302422 54.75976562 11.58398438 C55.02045837 12.25928696 55.28115112 12.93458954 55.54974365 13.63035583 C56.09584038 15.05135932 56.63679039 16.47435029 57.17285156 17.89916992 C57.99442501 20.0808333 58.83271136 22.25549391 59.67382812 24.4296875 C60.20346484 25.81407444 60.73214418 27.19882811 61.25976562 28.58398438 C61.50970276 29.23403946 61.75963989 29.88409454 62.01715088 30.55384827 C63.07062177 33.36899184 63.74414062 35.48266607 63.74414062 38.51757812 C64.29457031 38.58074219 64.845 38.64390625 65.41210938 38.70898438 C81.73530099 41.11317539 97.12084746 47.75084524 111.81445312 54.99023438 C113.02983765 55.57514648 113.02983765 55.57514648 114.26977539 56.171875 C116.74414062 57.51757812 116.74414062 57.51757812 119.23217773 59.39453125 C122.13005684 61.44411175 124.28088796 62.6847844 127.74414062 63.51757812 C133.62978104 62.21223968 138.71654103 59.62749853 144.05664062 56.89257812 C146.19790069 55.84136585 148.34469809 54.8034399 150.49736023 53.77578735 C151.82872699 53.13546849 153.15276814 52.47960808 154.46760559 51.80599976 C158.39022942 49.86217929 161.37285708 48.93713153 165.74414062 49.51757812 C167.57250977 50.5456543 167.57250977 50.5456543 169.21679688 52.12304688 C169.89371582 52.76290527 170.57063477 53.40276367 171.26806641 54.06201172 C172.0851709 54.87234863 172.90227539 55.68268555 173.74414062 56.51757812 C174.82578077 57.57461522 175.90766858 58.63139892 176.98974609 59.68798828 C180.09830255 62.73852048 183.18108003 65.81389668 186.25561523 68.89868164 C188.19791327 70.84639615 190.14557203 72.78863743 192.09375 74.73046875 C193.33039938 75.96777796 194.56673905 77.20539681 195.80273438 78.44335938 C196.38494247 79.02354324 196.96715057 79.60372711 197.56700134 80.20149231 C201.62914192 84.28758071 201.62914192 84.28758071 202.74414062 86.51757812 C202.54149499 94.53423932 199.78105148 100.56642202 196.30664062 107.70507812 C195.30525351 109.80145193 194.30646909 111.89907136 193.31054688 113.99804688 C192.86654541 114.91481201 192.42254395 115.83157715 191.96508789 116.77612305 C189.30962274 122.00885293 189.30962274 122.00885293 189.32397461 127.59716797 C189.70884033 128.2180127 190.09370605 128.83885742 190.49023438 129.47851562 C190.91208008 130.18878906 191.33392578 130.8990625 191.76855469 131.63085938 C192.23487305 132.37722656 192.70119141 133.12359375 193.18164062 133.89257812 C194.12843136 135.50140063 195.06976502 137.11344599 196.00585938 138.72851562 C196.47427246 139.53385742 196.94268555 140.33919922 197.42529297 141.16894531 C205.4195585 155.40530859 211.67453481 172.31756021 213.74414062 188.51757812 C214.43113037 188.63383545 215.11812012 188.75009277 215.82592773 188.86987305 C221.15104372 190.05179664 226.19687859 192.15065286 231.29174805 194.07299805 C233.3000664 194.82760791 235.3138151 195.56624645 237.328125 196.3046875 C238.61429851 196.78743689 239.90011841 197.27112964 241.18554688 197.75585938 C242.34771729 198.18938721 243.5098877 198.62291504 244.70727539 199.06958008 C247.82663601 200.55691249 249.64207105 201.78612737 251.74414062 204.51757812 C252.19824219 206.62402344 252.19824219 206.62402344 252.13476562 208.84570312 C252.11542969 210.04453125 252.11542969 210.04453125 252.09570312 211.26757812 C252.0621875 212.09257812 252.02867187 212.91757813 251.99414062 213.76757812 C251.97609375 214.60804688 251.95804687 215.44851562 251.93945312 216.31445312 C251.8924486 218.38265207 251.82070787 220.45026253 251.74414062 222.51757812 C252.38843018 222.48647949 253.03271973 222.45538086 253.6965332 222.42333984 C266.96903208 221.88459852 277.83606999 226.18095229 287.86914062 234.64257812 C296.62102716 242.85002382 302.44795073 252.6987069 303.02653313 264.83143425 C303.18117524 270.29191969 303.16158347 275.75244732 303.14819336 281.21459961 C303.15390153 283.31643028 303.16086752 285.41825785 303.16899109 287.52008057 C303.18688751 293.20810706 303.18576077 298.89597899 303.1800487 304.58402514 C303.17695195 309.34041957 303.18305468 314.09678452 303.18908745 318.85317475 C303.20311936 330.07735318 303.2015823 341.30145547 303.19018555 352.52563477 C303.17870386 364.08867794 303.19278403 375.65148918 303.21958202 387.2145018 C303.24176195 397.15875866 303.24837127 407.10294284 303.24250561 417.04722267 C303.23914056 422.97923054 303.24152128 428.91108974 303.25875664 434.84307671 C303.27426028 440.42217556 303.27023207 446.00093161 303.25145149 451.58001709 C303.2477752 453.62173969 303.25084594 455.66348789 303.26133728 457.70518684 C303.33201601 472.60269228 301.81795323 483.25297427 292.74414062 495.51757812 C292.16664063 496.38382812 291.58914063 497.25007813 290.99414062 498.14257812 C282.4772309 507.1326495 271.0902684 512.52887211 258.76378417 513.0874387 C254.168695 513.19224755 249.57782556 513.17783445 244.98193359 513.14868164 C242.90921417 513.15382842 240.83649913 513.16111539 238.76379395 513.17036438 C233.16879551 513.18878741 227.57427717 513.17599821 221.97929907 513.15627408 C216.10680993 513.13981533 210.23434947 513.1487103 204.36184692 513.15379333 C194.50498845 513.15830551 184.64832028 513.14249696 174.79150391 513.11450195 C163.41412767 513.0824364 152.03709422 513.08247567 140.6596936 513.09971672 C129.68781056 513.11560711 118.71605256 513.1088332 107.74417496 513.09177971 C103.08653538 513.08492763 98.42899659 513.08592266 93.77135849 513.09332466 C88.2832934 513.1010135 82.79561624 513.08877647 77.30761719 513.06147575 C75.2997668 513.05461877 73.29188 513.05446493 71.28403091 513.06169128 C51.81293225 513.12366867 51.81293225 513.12366867 42.74414062 508.51757812 C41.67679688 507.97617187 40.60945312 507.43476563 39.50976562 506.87695312 C27.95250082 499.48317502 20.15013411 489.37576384 16.86132812 475.90039062 C16.0827163 471.06422421 15.71893877 466.41033862 15.74414062 461.51757812 C15.12893555 461.53852539 14.51373047 461.55947266 13.87988281 461.58105469 C11.08480253 461.66434829 8.28998348 461.71627826 5.49414062 461.76757812 C4.52605469 461.80109375 3.55796875 461.83460938 2.56054688 461.86914062 C1.62597656 461.88203125 0.69140625 461.89492188 -0.27148438 461.90820312 C-1.13032227 461.92915039 -1.98916016 461.95009766 -2.87402344 461.97167969 C-6.1845994 461.34051207 -7.19747922 460.16846547 -9.25585938 457.51757812 C-10.38548073 455.15604547 -11.36053652 452.89213203 -12.27148438 450.45117188 C-12.53217712 449.77586929 -12.79286987 449.10056671 -13.0614624 448.40480042 C-13.60755913 446.98379693 -14.14850914 445.56080596 -14.68457031 444.13598633 C-15.50614376 441.95432295 -16.34443011 439.77966234 -17.18554688 437.60546875 C-17.71518359 436.22108181 -18.24386293 434.83632814 -18.77148438 433.45117188 C-19.02142151 432.80111679 -19.27135864 432.15106171 -19.52886963 431.48130798 C-20.58234052 428.66616441 -21.25585938 426.55249018 -21.25585938 423.51757812 C-21.80628906 423.45441406 -22.35671875 423.39125 -22.92382812 423.32617188 C-37.39252076 421.19512412 -51.30364746 415.7030781 -64.44335938 409.45507812 C-65.3342627 409.03363525 -66.22516602 408.61219238 -67.14306641 408.17797852 C-71.6892929 405.96600982 -75.54160501 403.62111545 -79.50585938 400.45507812 C-81.64548848 398.92210756 -81.64548848 398.92210756 -84.25585938 398.51757812 C-89.52456956 399.83746035 -94.17471042 401.97639104 -99.01708984 404.40234375 C-101.93124998 405.85402134 -104.8847714 407.20280418 -107.85888672 408.52661133 C-109.213607 409.13003148 -110.56212174 409.74765266 -111.90283203 410.3815918 C-115.88727782 412.19957996 -118.92061339 413.41356606 -123.25585938 412.51757812 C-126.27205012 410.55875668 -128.70955093 408.04279705 -131.25585938 405.51757812 C-132.33749952 404.46054103 -133.41938733 403.40375733 -134.50146484 402.34716797 C-137.6100213 399.29663577 -140.69279878 396.22125957 -143.76733398 393.13647461 C-145.70963202 391.1887601 -147.65729078 389.24651882 -149.60546875 387.3046875 C-150.84211813 386.06737829 -152.0784578 384.82975944 -153.31445312 383.59179688 C-154.18776527 382.72152107 -154.18776527 382.72152107 -155.07872009 381.83366394 C-160.13283283 376.74975533 -160.13283283 376.74975533 -160.52294922 372.8425293 C-160.20019273 368.82459452 -158.78819539 365.84310597 -156.98242188 362.31835938 C-156.31501396 360.93066839 -155.64971364 359.54196214 -154.98632812 358.15234375 C-153.93962345 355.98655327 -152.88119741 353.83073815 -151.78466797 351.68969727 C-147.2681026 343.42264496 -147.2681026 343.42264496 -147.00708008 334.39355469 C-148.55994613 331.5665485 -150.31500324 329.0903233 -152.25585938 326.51757812 C-153.13810947 324.89537118 -153.98242395 323.25182371 -154.78320312 321.58789062 C-155.17958984 320.78335449 -155.57597656 319.97881836 -155.984375 319.14990234 C-162.91120759 304.7842782 -169.4211845 289.50545916 -171.25585938 273.51757812 C-171.94284912 273.4013208 -172.62983887 273.28506348 -173.33764648 273.1652832 C-178.66276247 271.98335961 -183.70859734 269.88450339 -188.8034668 267.9621582 C-190.81178515 267.20754834 -192.82553385 266.4689098 -194.83984375 265.73046875 C-196.12601726 265.24771936 -197.41183716 264.76402661 -198.69726562 264.27929688 C-199.85943604 263.84576904 -201.02160645 263.41224121 -202.21899414 262.96557617 C-205.39522017 261.45112995 -207.03222082 260.21845382 -209.25585938 257.51757812 C-209.76379395 255.0513916 -209.76379395 255.0513916 -209.7734375 252.26171875 C-209.78604614 251.21383179 -209.79865479 250.16594482 -209.81164551 249.08630371 C-209.80354858 247.96018677 -209.79545166 246.83406982 -209.78710938 245.67382812 C-209.79093628 244.51258423 -209.79476318 243.35134033 -209.79870605 242.15490723 C-209.8014273 239.70043063 -209.79405142 237.24592514 -209.77734375 234.79150391 C-209.75593903 231.03156971 -209.77714026 227.27354653 -209.80273438 223.51367188 C-209.80009114 221.12955307 -209.79496625 218.74543545 -209.78710938 216.36132812 C-209.7952063 215.23521118 -209.80330322 214.10909424 -209.81164551 212.94885254 C-209.79903687 211.90096558 -209.78642822 210.85307861 -209.7734375 209.7734375 C-209.77025513 208.85284546 -209.76707275 207.93225342 -209.76379395 206.98376465 C-209.09604225 203.7416143 -207.79158603 202.5835449 -205.25585938 200.51757812 C-202.89432672 199.38795677 -200.63041328 198.41290098 -198.18945312 197.50195312 C-197.17649925 197.110914 -197.17649925 197.110914 -196.14308167 196.7119751 C-194.72207818 196.16587837 -193.29908721 195.62492836 -191.87426758 195.08886719 C-189.6926042 194.26729374 -187.51794359 193.42900739 -185.34375 192.58789062 C-183.95936306 192.05825391 -182.57460939 191.52957457 -181.18945312 191.00195312 C-180.53939804 190.75201599 -179.88934296 190.50207886 -179.21958923 190.24456787 C-176.40444566 189.19109698 -174.29077143 188.51757812 -171.25585938 188.51757812 C-171.19269531 187.96714844 -171.12953125 187.41671875 -171.06445312 186.84960938 C-168.66026211 170.52641776 -162.02259226 155.14087129 -154.78320312 140.44726562 C-154.39326172 139.63700928 -154.00332031 138.82675293 -153.6015625 137.99194336 C-152.25585937 135.51757812 -152.25585937 135.51757812 -150.37890625 133.02954102 C-148.32932575 130.13166191 -147.0886531 127.98083079 -146.25585938 124.51757812 C-147.56119782 118.63193771 -150.14593897 113.54517772 -152.88085938 108.20507812 C-153.93207165 106.06381806 -154.9699976 103.91702066 -155.99765015 101.76435852 C-156.63796901 100.43299176 -157.29382942 99.10895061 -157.96743774 97.79411316 C-159.91125821 93.87148933 -160.83630597 90.88886167 -160.25585938 86.51757812 C-159.2277832 84.68920898 -159.2277832 84.68920898 -157.65039062 83.04492188 C-157.01053223 82.36800293 -156.37067383 81.69108398 -155.71142578 80.99365234 C-154.90108887 80.17654785 -154.09075195 79.35944336 -153.25585938 78.51757812 C-152.19882228 77.43593798 -151.14203858 76.35405017 -150.08544922 75.27197266 C-147.03491702 72.1634162 -143.95954082 69.08063872 -140.87475586 66.00610352 C-138.92704135 64.06380548 -136.98480007 62.11614672 -135.04296875 60.16796875 C-133.80565954 58.93131937 -132.56804069 57.6949797 -131.33007812 56.45898438 C-130.74989426 55.87677628 -130.16971039 55.29456818 -129.57194519 54.69471741 C-124.48701785 49.63959191 -124.48701785 49.63959191 -120.58300781 49.25268555 C-116.56549338 49.57254196 -113.55810467 50.97031691 -110.02148438 52.75585938 C-108.6290485 53.41833664 -107.23579208 54.07909149 -105.84179688 54.73828125 C-103.66919238 55.77917773 -101.50466979 56.83067656 -99.35253906 57.91333008 C-91.17575289 62.33872444 -91.17575289 62.33872444 -82.2512207 62.95385742 C-79.68208555 61.68178493 -77.53089393 60.25502806 -75.25585938 58.51757812 C-74.09431577 57.84473841 -72.92194038 57.1900073 -71.73632812 56.56054688 C-70.64964844 55.94824219 -69.56296875 55.3359375 -68.44335938 54.70507812 C-55.15410481 47.46966285 -36.68120523 38.51757812 -21.25585938 38.51757812 C-21.13960205 37.83058838 -21.02334473 37.14359863 -20.90356445 36.43579102 C-19.72164086 31.11067503 -17.62278464 26.06484016 -15.70043945 20.9699707 C-14.94582959 18.96165235 -14.20719105 16.94790365 -13.46875 14.93359375 C-12.98600061 13.64742024 -12.50230786 12.36160034 -12.01757812 11.07617188 C-11.58405029 9.91400146 -11.15052246 8.75183105 -10.70385742 7.55444336 C-8.20897631 2.3219655 -5.88827846 0.02035505 0 0 Z M4.74414062 16.51757812 C3.82890625 18.86496094 2.91367188 21.21234375 1.97070312 23.63085938 C1.08125971 25.90487746 0.19059219 28.17841245 -0.70019531 30.4519043 C-1.31833993 32.03148108 -1.93521189 33.61155652 -2.55078125 35.19213867 C-3.43610399 37.46470503 -4.32599679 39.73543537 -5.21679688 42.00585938 C-5.62785172 43.06538567 -5.62785172 43.06538567 -6.04721069 44.14631653 C-7.24426831 47.18572316 -8.43555755 49.78712539 -10.25585938 52.51757812 C-12.52392578 53.40551758 -12.52392578 53.40551758 -15.35742188 54.13085938 C-16.39672852 54.40575195 -17.43603516 54.68064453 -18.50683594 54.96386719 C-19.62026367 55.2497168 -20.73369141 55.53556641 -21.88085938 55.83007812 C-41.84424717 61.22329887 -61.27824527 68.33661167 -78.17382812 80.61499023 C-82.48864702 82.48552089 -86.3266773 81.84869827 -90.64916992 80.30834961 C-91.80199463 79.75735596 -92.95481934 79.2063623 -94.14257812 78.63867188 C-94.7668721 78.34775162 -95.39116608 78.05683136 -96.03437805 77.75709534 C-98.01022478 76.83560044 -99.9773739 75.89740945 -101.94335938 74.95507812 C-103.92030357 74.00981332 -105.89868261 73.06889291 -107.88447571 72.14234924 C-109.67849725 71.30523804 -111.46484497 70.45173901 -113.25073242 69.59741211 C-116.05195488 68.38791816 -116.05195488 68.38791816 -118.34765625 68.5637207 C-122.78826893 70.7834589 -126.1120422 74.81611496 -129.5847168 78.29052734 C-131.0655072 79.76473862 -132.56862245 81.21329556 -134.07421875 82.66210938 C-135.00685547 83.58894531 -135.93949219 84.51578125 -136.90039062 85.47070312 C-137.75995361 86.31793945 -138.6195166 87.16517578 -139.50512695 88.03808594 C-141.501623 90.34292978 -141.501623 90.34292978 -141.19824219 92.94873047 C-140.10428179 95.93076449 -138.8827699 98.78941677 -137.53320312 101.66601562 C-136.99501953 102.83648437 -136.45683594 104.00695312 -135.90234375 105.21289062 C-135.04967237 107.05409187 -134.19308205 108.89316641 -133.32788086 110.72851562 C-132.48869552 112.51468916 -131.66701474 114.30905327 -130.84570312 116.10351562 C-130.3493335 117.16618652 -129.85296387 118.22885742 -129.34155273 119.32373047 C-128.10988906 122.94698755 -127.95287264 125.7140678 -128.25585938 129.51757812 C-129.45886367 131.9177751 -130.6404727 133.943289 -132.13085938 136.14257812 C-143.417729 153.96407027 -151.8432909 173.76051735 -155.56835938 194.58007812 C-156.66713828 199.08100534 -156.66713828 199.08100534 -159.12915039 200.90673828 C-159.91475342 201.26558105 -160.70035645 201.62442383 -161.50976562 201.99414062 C-162.85735962 202.61252808 -162.85735962 202.61252808 -164.23217773 203.2434082 C-169.73661358 205.56296014 -175.29079227 207.72642327 -180.88085938 209.83007812 C-187.00648438 212.15039062 -187.00648438 212.15039062 -193.25585938 214.51757812 C-193.25585938 225.40757812 -193.25585938 236.29757813 -193.25585938 247.51757812 C-190.90847656 248.4328125 -188.56109375 249.34804687 -186.14257812 250.29101562 C-183.86856004 251.18045904 -181.59502505 252.07112656 -179.3215332 252.96191406 C-177.74195642 253.58005868 -176.16188098 254.19693064 -174.58129883 254.8125 C-172.30873247 255.69782274 -170.03800213 256.58771554 -167.76757812 257.47851562 C-166.70805183 257.88957047 -166.70805183 257.88957047 -165.62712097 258.30892944 C-162.58771434 259.50598706 -159.98631211 260.6972763 -157.25585938 262.51757812 C-156.36791992 264.78564453 -156.36791992 264.78564453 -155.64257812 267.61914062 C-155.36776611 268.65828613 -155.0929541 269.69743164 -154.80981445 270.76806641 C-154.52388428 271.88165527 -154.2379541 272.99524414 -153.94335938 274.14257812 C-148.73169723 293.41306982 -142.04197339 313.58743036 -129.88867188 329.75976562 C-127.77441488 333.33073557 -127.94666804 335.39690083 -128.25585938 339.51757812 C-129.46508789 342.91088867 -129.46508789 342.91088867 -131.13476562 346.40429688 C-131.42568588 347.02859085 -131.71660614 347.65288483 -132.01634216 348.2960968 C-132.93783706 350.27194353 -133.87602805 352.23909265 -134.81835938 354.20507812 C-135.76362418 356.18202232 -136.70454459 358.16040136 -137.63108826 360.14619446 C-138.46819946 361.940216 -139.32169849 363.72656372 -140.17602539 365.51245117 C-141.38551934 368.31367363 -141.38551934 368.31367363 -141.2097168 370.609375 C-138.9899786 375.04998768 -134.95732254 378.37376095 -131.48291016 381.84643555 C-130.00869888 383.32722595 -128.56014194 384.8303412 -127.11132812 386.3359375 C-126.18449219 387.26857422 -125.25765625 388.20121094 -124.30273438 389.16210938 C-123.45549805 390.02167236 -122.60826172 390.88123535 -121.73535156 391.7668457 C-119.43050772 393.76334175 -119.43050772 393.76334175 -116.82470703 393.45996094 C-113.84267301 392.36600054 -110.98402073 391.14448865 -108.10742188 389.79492188 C-106.93695313 389.25673828 -105.76648438 388.71855469 -104.56054688 388.1640625 C-102.71934563 387.31139112 -100.88027109 386.4548008 -99.04492188 385.58959961 C-97.25874834 384.75041427 -95.46438423 383.92873349 -93.66992188 383.10742188 C-92.60725098 382.61105225 -91.54458008 382.11468262 -90.44970703 381.60327148 C-86.82644995 380.37160781 -84.0593697 380.21459139 -80.25585938 380.51757812 C-77.8556624 381.72058242 -75.8301485 382.90219145 -73.63085938 384.39257812 C-55.80936723 395.67944775 -36.01292015 404.10500965 -15.19335938 407.83007812 C-10.69243216 408.92885703 -10.69243216 408.92885703 -8.86669922 411.39086914 C-8.50785645 412.17647217 -8.14901367 412.9620752 -7.77929688 413.77148438 C-7.36703857 414.66988037 -6.95478027 415.56827637 -6.5300293 416.49389648 C-4.21053934 421.99818525 -2.04665692 427.55248065 0.05664062 433.14257812 C0.51103516 434.33753906 0.96542969 435.5325 1.43359375 436.76367188 C2.54176531 439.67991283 3.6451676 442.59786114 4.74414062 445.51757812 C8.37414062 445.51757812 12.00414062 445.51757812 15.74414062 445.51757812 C15.74414062 416.80757813 15.74414062 388.09757812 15.74414062 358.51757812 C3.86414063 356.53757812 3.86414063 356.53757812 -8.25585938 354.51757812 C-30.57308122 348.445981 -48.89293016 338.82622236 -66.25585938 323.51757812 C-66.93777344 322.91945313 -67.6196875 322.32132812 -68.32226562 321.70507812 C-90.15577585 301.23891905 -103.89792534 269.76162995 -105.38012695 240.02441406 C-106.48837798 202.2683945 -94.87481833 170.50100589 -70.07617188 142.01367188 C-48.52242678 119.28057092 -16.2908873 105.2306975 14.92382812 104.31445312 C50.68692978 103.82253031 81.78745156 114.70440072 108.74414062 138.51757812 C109.42734375 139.11699219 110.11054688 139.71640625 110.81445312 140.33398438 C134.3484816 162.3911811 143.17229615 191.87243352 148.74414062 222.51757812 C177.45414062 222.51757812 206.16414063 222.51757812 235.74414062 222.51757812 C235.74414062 219.87757813 235.74414062 217.23757812 235.74414062 214.51757812 C234.76018311 214.13424316 233.77622559 213.7509082 232.76245117 213.35595703 C229.11015747 211.93199047 225.45971624 210.50332732 221.80981445 209.07324219 C220.23023767 208.45509757 218.65016223 207.83822561 217.06958008 207.22265625 C214.79701372 206.33733351 212.52628338 205.44744071 210.25585938 204.55664062 C209.54950851 204.28260406 208.84315765 204.0085675 208.11540222 203.72622681 C205.07599559 202.52916919 202.47459336 201.33787995 199.74414062 199.51757812 C198.85620117 197.24951172 198.85620117 197.24951172 198.13085938 194.41601562 C197.85604736 193.37687012 197.58123535 192.33772461 197.2980957 191.26708984 C197.01216553 190.15350098 196.72623535 189.03991211 196.43164062 187.89257812 C191.21997848 168.62208643 184.53025464 148.44772589 172.37695312 132.27539062 C170.26269613 128.70442068 170.43494929 126.63825542 170.74414062 122.51757812 C171.95336914 119.12426758 171.95336914 119.12426758 173.62304688 115.63085938 C173.91396713 115.0065654 174.20488739 114.38227142 174.50462341 113.73905945 C175.42611831 111.76321272 176.3643093 109.7960636 177.30664062 107.83007812 C178.25190543 105.85313393 179.19282584 103.87475489 180.11936951 101.88896179 C180.95648071 100.09494025 181.80997974 98.30859253 182.66430664 96.52270508 C183.87380059 93.72148262 183.87380059 93.72148262 183.69799805 91.42578125 C181.47825985 86.98516857 177.44560379 83.6613953 173.97119141 80.1887207 C172.49698013 78.7079303 171.04842319 77.20481505 169.59960938 75.69921875 C168.67277344 74.76658203 167.7459375 73.83394531 166.79101562 72.87304688 C165.9437793 72.01348389 165.09654297 71.1539209 164.22363281 70.26831055 C161.91878897 68.2718145 161.91878897 68.2718145 159.31298828 68.57519531 C156.33095426 69.66915571 153.47230198 70.8906676 150.59570312 72.24023438 C148.84 73.04750977 148.84 73.04750977 147.04882812 73.87109375 C145.20762688 74.72376513 143.36855234 75.58035545 141.53320312 76.44555664 C139.74702959 77.28474198 137.95266548 78.10642276 136.15820312 78.92773438 C135.09553223 79.424104 134.03286133 79.92047363 132.93798828 80.43188477 C129.3147312 81.66354844 126.54765095 81.82056486 122.74414062 81.51757812 C120.34394365 80.31457383 118.31842975 79.1329648 116.11914062 77.64257812 C98.29764848 66.3557085 78.5012014 57.9301466 57.68164062 54.20507812 C53.18071341 53.10629922 53.18071341 53.10629922 51.35498047 50.64428711 C50.9961377 49.85868408 50.63729492 49.07308105 50.26757812 48.26367188 C49.64919067 46.91607788 49.64919067 46.91607788 49.01831055 45.54125977 C46.69875861 40.03682392 44.53529548 34.48264523 42.43164062 28.89257812 C40.88476562 24.80882812 39.33789062 20.72507812 37.74414062 16.51757812 C26.85414063 16.51757812 15.96414062 16.51757812 4.74414062 16.51757812 Z M-63.53857422 159.5546875 C-75.2956629 172.99327052 -83.35896388 190.18664815 -87.25585938 207.51757812 C-87.48015625 208.51402344 -87.70445313 209.51046875 -87.93554688 210.53710938 C-93.45446799 239.98395559 -86.1310311 268.80794633 -70.20117188 293.73242188 C-51.99791898 319.32001321 -25.8978193 335.2057688 4.87060547 340.65527344 C8.54217333 341.26476915 12.02925467 341.57047047 15.74414062 341.51757812 C15.75222748 340.6296759 15.76031433 339.74177368 15.76864624 338.82696533 C15.84695335 330.41295027 15.93434951 321.99908741 16.03166771 313.58526993 C16.08137351 309.26081732 16.12770328 304.93638615 16.16601562 300.61181641 C16.20319648 296.42955559 16.24963981 292.24748629 16.30220413 288.06539154 C16.32057555 286.47884266 16.33574534 284.89225299 16.34748459 283.30564117 C16.4899919 264.69170862 18.34448895 249.52102491 31.58789062 235.57617188 C40.58873976 227.03643181 52.3005447 223.32274971 64.53710938 223.19873047 C65.26979538 223.18868484 66.00248138 223.17863922 66.75737 223.16828918 C69.14878646 223.13770937 71.54009234 223.12049319 73.93164062 223.10351562 C75.60173477 223.08478362 77.27181966 223.06520872 78.94189453 223.04483032 C83.3147432 222.99371766 87.68762247 222.95398092 92.06060791 222.91668701 C96.53201745 222.87651582 101.00330193 222.82548361 105.47460938 222.77539062 C114.23103405 222.67887872 122.98752113 222.59439561 131.74414062 222.51757812 C131.30832072 219.53180455 130.86290961 216.54797141 130.41210938 213.56445312 C130.23125793 212.31510986 130.23125793 212.31510986 130.04675293 211.04052734 C125.84501567 183.54553438 109.08628898 158.26265016 87.04101562 141.62304688 C74.33742899 132.57780905 59.95782583 125.93840675 44.74414062 122.51757812 C43.74769531 122.29328125 42.75125 122.06898437 41.72460938 121.83789062 C1.6276517 114.32292808 -36.45304752 130.15372696 -63.53857422 159.5546875 Z M38.91601562 251.84570312 C31.61348723 263.11853822 32.45009949 275.6073927 32.46948242 288.54638672 C32.46512981 290.46925554 32.45994484 292.39212264 32.45399475 294.31498718 C32.4406527 299.5154678 32.44002072 304.71587553 32.44255805 309.91636992 C32.443631 314.26755624 32.43873613 318.61872802 32.43395263 322.96991122 C32.42287406 333.24004313 32.42241077 343.51013845 32.4284668 353.78027344 C32.43450608 364.35374029 32.42219289 374.92707405 32.40089673 385.5005182 C32.3832494 394.59892985 32.3772843 403.69729925 32.38053447 412.79572737 C32.38234244 418.22081285 32.37975975 423.64580337 32.36581993 429.07087326 C32.35319515 434.17469719 32.35522955 439.27831444 32.36823082 444.38213539 C32.37058602 446.24767058 32.36790009 448.11322054 32.3596077 449.97873878 C32.29891312 464.70269418 32.65628398 477.15239253 43.40820312 488.23242188 C51.48248382 495.77210407 61.08755132 496.67435294 71.80769348 496.65129089 C72.59066085 496.65355645 73.37362822 496.65582201 74.18032187 496.65815622 C76.78860548 496.66445674 79.3968366 496.6636694 82.00512695 496.6628418 C83.88153653 496.66583575 85.75794548 496.66923883 87.63435364 496.67301941 C92.72122849 496.6818395 97.80808651 496.68419668 102.89496827 496.6848352 C106.07592776 496.68554682 109.25688299 496.68768327 112.43784142 496.69033241 C123.5432805 496.6995792 134.64870759 496.70366813 145.75415039 496.70288086 C156.09296493 496.70228022 166.43172728 496.71283102 176.77052861 496.72862452 C185.65822844 496.74171573 194.54591124 496.74706409 203.43362063 496.74642545 C208.73682567 496.74617093 214.0399843 496.74899669 219.3431797 496.7596035 C224.332829 496.7693111 229.32238777 496.76934542 234.31204033 496.76208687 C236.13809975 496.76104434 237.96416489 496.76338412 239.79021454 496.76944733 C260.18699412 496.97430306 260.18699412 496.97430306 277.49414062 487.26757812 C288.18536854 475.7726816 287.03839215 460.3263623 287.00292969 445.63476562 C287.00564382 443.7396837 287.00920712 441.84460282 287.0135498 439.94952393 C287.02262577 434.82973873 287.0191494 429.71003462 287.01279163 424.59024811 C287.00770675 419.21690156 287.01242998 413.84356168 287.01556396 408.47021484 C287.01919637 399.44888063 287.01442356 390.42757923 287.00488281 381.40625 C286.99399968 370.99579425 286.99752577 360.58541685 287.00853562 350.174963 C287.01762918 341.2158256 287.01888367 332.25671171 287.01365829 323.29757118 C287.01054996 317.95583437 287.01009788 312.61413431 287.01673126 307.2723999 C287.02253423 302.24903468 287.01845405 297.2257699 287.00694275 292.20241547 C287.0043119 290.36548784 287.00503413 288.52855167 287.00946808 286.6916275 C287.26280491 266.90441154 287.26280491 266.90441154 278.74414062 249.51757812 C271.90377395 242.69006929 264.01652546 239.22210288 254.33739853 239.11634791 C253.20697317 239.12638616 253.20697317 239.12638616 252.05371094 239.1366272 C250.81438498 239.12960724 250.81438498 239.12960724 249.55002213 239.12244546 C246.80726877 239.11056857 244.06502186 239.11992382 241.32226562 239.12939453 C239.34541535 239.12532558 237.36856735 239.11998189 235.39172363 239.11346436 C230.04052623 239.09982351 224.68950294 239.10507609 219.33830261 239.11460161 C213.72911115 239.12221494 208.11993426 239.11514795 202.51074219 239.11044312 C193.09242079 239.10499044 183.67417004 239.11216439 174.25585938 239.12646484 C163.37844811 239.14279038 152.50120555 239.13750153 141.62379837 239.12098563 C132.27237126 239.10735687 122.92099484 239.10545791 113.569561 239.11330163 C107.98974595 239.11797049 102.41001011 239.11862463 96.8302002 239.10869217 C91.58357372 239.1000046 86.33716406 239.10607722 81.09056091 239.12337494 C79.16894388 239.1273302 77.2473085 239.12622224 75.32569885 239.11958694 C72.69507914 239.11134325 70.06514668 239.12172673 67.43457031 239.1366272 C66.68095341 239.12993503 65.9273365 239.12324287 65.15088272 239.11634791 C54.53536004 239.23233402 45.51552079 243.4412051 38.91601562 251.84570312 Z " fill="#000000" transform="translate(209.255859375,-0.517578125)"/>
<path d="M0 0 C6.3076954 3.5309976 10.17871578 7.74231496 13.25390625 14.26171875 C13.25390625 15.25171875 13.25390625 16.24171875 13.25390625 17.26171875 C14.12828103 17.2548053 14.12828103 17.2548053 15.02031994 17.24775219 C29.20882462 17.1372948 43.39726477 17.05457302 57.58610821 17.00265789 C64.44778071 16.97688422 71.30916609 16.94175043 78.1706543 16.88452148 C84.79068676 16.82933279 91.41049906 16.80030768 98.03077126 16.78733253 C100.55820223 16.77808432 103.08561662 16.76002496 105.61292076 16.73306847 C109.14945318 16.69684303 112.68474785 16.69177096 116.22143555 16.6940918 C117.26944336 16.67611542 118.31745117 16.65813904 119.3972168 16.63961792 C124.151523 16.67344291 126.48776415 16.69832866 130.40437317 19.57844543 C132.85762698 23.13758722 133.01076093 25.02333256 132.25390625 29.26171875 C130.21007161 32.22688169 128.59617591 33.99825127 124.97388268 34.70925331 C122.04472596 34.87924224 119.15519947 34.87966828 116.22143555 34.8293457 C115.10879837 34.83007584 113.99616119 34.83080597 112.84980774 34.83155823 C109.17541609 34.82807728 105.50229497 34.78918909 101.828125 34.75 C99.27937004 34.74067376 96.73060612 34.73355676 94.18183899 34.7285614 C88.16103681 34.71142717 82.14077927 34.67202925 76.12019521 34.62181395 C69.26416777 34.56587513 62.40811828 34.53842272 55.55191934 34.51333678 C41.45232976 34.46111135 27.35314295 34.37319764 13.25390625 34.26171875 C13.11525146 35.03966797 12.97659668 35.81761719 12.83374023 36.61914062 C11.59518293 42.26383293 7.47338091 46.8183794 2.70703125 49.91796875 C-5.75820364 54.22572142 -13.95918415 55.82050454 -23.30859375 53.26171875 C-32.09670095 49.94280592 -36.98963666 43.51181086 -40.74609375 35.26171875 C-41.32576904 35.25760986 -41.90544434 35.25350098 -42.50268555 35.24926758 C-45.14733484 35.21622598 -47.78971214 35.14557611 -50.43359375 35.07421875 C-51.34560547 35.06841797 -52.25761719 35.06261719 -53.19726562 35.05664062 C-57.79572133 34.90614571 -60.08424527 34.7587295 -63.8515625 31.9296875 C-65.74609375 29.26171875 -65.74609375 29.26171875 -66.37109375 25.76171875 C-65.55839862 21.21062605 -64.45446744 20.00918052 -60.74609375 17.26171875 C-57.28582831 16.65765104 -53.93254814 16.7884894 -50.43359375 16.94921875 C-49.50224609 16.97177734 -48.57089844 16.99433594 -47.61132812 17.01757812 C-45.32125415 17.07629797 -43.034515 17.15835017 -40.74609375 17.26171875 C-40.36324219 15.91980469 -40.36324219 15.91980469 -39.97265625 14.55078125 C-37.56142374 8.08499216 -32.58439737 2.87691319 -26.43359375 -0.23828125 C-17.49683112 -3.87357452 -8.87366728 -4.0593823 0 0 Z M-22.74609375 18.26171875 C-25.33253839 21.67112305 -25.1111249 25.10036365 -24.74609375 29.26171875 C-23.33208761 32.71817821 -22.08836984 34.02834869 -18.99609375 36.13671875 C-15.00814025 37.51716419 -12.80456981 37.36857586 -8.74609375 36.26171875 C-5.40816084 34.11060643 -2.8569954 32.14987452 -1.74609375 28.26171875 C-1.82527766 23.98578766 -2.55866794 21.57799981 -4.74609375 17.88671875 C-8.16418051 14.89589284 -10.08611185 14.23809704 -14.52734375 14.0234375 C-18.10126806 14.40725684 -20.12254003 15.89412149 -22.74609375 18.26171875 Z " fill="#000000" transform="translate(335.74609375,272.73828125)"/>
<path d="M0 0 C3.38561437 3.5430848 7.6875 8.66084174 7.6875 13.8125 C9.6252253 13.79584541 9.6252253 13.79584541 11.60209656 13.77885437 C23.77071344 13.6775369 35.93924485 13.60256242 48.10818768 13.55343914 C54.36454014 13.52733534 60.62055236 13.49192184 66.87670898 13.43530273 C72.91323507 13.38101263 78.94943371 13.35108537 84.98618507 13.33811378 C87.29033375 13.32886865 89.59446431 13.31081514 91.89847374 13.28384972 C95.12371045 13.24760063 98.34759071 13.2425531 101.57299805 13.24487305 C102.52749847 13.22689667 103.4819989 13.20892029 104.46542358 13.19039917 C109.01311065 13.22584095 111.04720917 13.33493714 114.78840637 16.12532043 C117.26534884 19.63014457 117.29958365 21.60442489 116.6875 25.8125 C114.92734869 28.9975357 114.18859084 29.64546972 110.6875 30.8125 C109.26600376 30.90094068 107.84070189 30.93448928 106.41645813 30.93275452 C105.11028534 30.93481651 105.11028534 30.93481651 103.77772522 30.93692017 C102.34921486 30.93152725 102.34921486 30.93152725 100.8918457 30.92602539 C99.88678986 30.92617142 98.88173401 30.92631744 97.84622192 30.9264679 C94.51855321 30.92577029 91.19094021 30.91798494 87.86328125 30.91015625 C85.5582838 30.90829153 83.25328595 30.90686788 80.94828796 30.90586853 C74.87705392 30.90204759 68.80584374 30.89222089 62.73461914 30.88116455 C56.54118167 30.87094135 50.34774035 30.86636896 44.15429688 30.86132812 C31.99868742 30.85059827 19.84309569 30.8335269 7.6875 30.8125 C7.38875977 31.75722168 7.09001953 32.70194336 6.78222656 33.67529297 C4.45146261 40.35466781 -1.1789156 45.49014178 -7.3125 48.8125 C-14.96779013 51.75684236 -23.29642049 51.9361685 -31.0078125 49.0546875 C-37.8940768 45.34310776 -43.24059466 39.99679474 -46.3125 32.8125 C-46.3125 32.1525 -46.3125 31.4925 -46.3125 30.8125 C-47.16481201 30.82821045 -48.01712402 30.8439209 -48.89526367 30.86010742 C-52.07281226 30.91138962 -55.25014913 30.94892482 -58.42797852 30.97729492 C-59.80044517 30.99233432 -61.17286414 31.01277133 -62.54516602 31.03881836 C-64.52338656 31.07541221 -66.50196514 31.09066698 -68.48046875 31.10546875 C-69.66922607 31.1211792 -70.8579834 31.13688965 -72.08276367 31.15307617 C-75.62840796 30.77918746 -77.48308165 29.94127583 -80.3125 27.8125 C-81.88185594 24.67378812 -81.66451103 22.27394178 -81.3125 18.8125 C-78.70458799 15.43178275 -77.25016083 13.97273972 -72.9909668 13.24487305 C-71.14498901 13.28414917 -71.14498901 13.28414917 -69.26171875 13.32421875 C-68.60291214 13.33129349 -67.94410553 13.33836823 -67.26533508 13.34565735 C-65.17569966 13.37349021 -63.08881524 13.43619181 -61 13.5 C-59.57751286 13.52509795 -58.15498341 13.54790852 -56.73242188 13.56835938 C-53.25823139 13.62327554 -49.7856345 13.70946315 -46.3125 13.8125 C-46.00183594 12.86181641 -45.69117188 11.91113281 -45.37109375 10.93164062 C-42.82291703 3.42345204 -38.49304057 -0.11735797 -31.71484375 -4.0234375 C-21.05380639 -9.18927349 -9.43372411 -6.22981781 0 0 Z M-29.125 15.4375 C-30.99127314 19.17004627 -30.96889368 22.72827265 -30.3125 26.8125 C-28.51976402 29.93318856 -27.06990595 31.36215052 -24 33.1875 C-20.40006135 34.02469504 -17.89408403 33.70789601 -14.3125 32.8125 C-11.60682374 30.98910948 -9.77521282 29.73792564 -8.3125 26.8125 C-7.6798256 22.29339717 -7.53955521 18.14996822 -10.25 14.3125 C-16.85633201 8.91957591 -23.01504316 9.95960766 -29.125 15.4375 Z " fill="#000000" transform="translate(351.3125,415.1875)"/>
<path d="M0 0 C6.01674144 3.67575671 10.76284341 8.76711238 13.2890625 15.3984375 C13.2890625 16.0584375 13.2890625 16.7184375 13.2890625 17.3984375 C14.70384888 17.3670166 14.70384888 17.3670166 16.1472168 17.33496094 C19.66033774 17.26662322 23.17274835 17.21656003 26.6862793 17.17871094 C28.2042966 17.15864547 29.72223709 17.13138616 31.23999023 17.09667969 C33.42711372 17.04793357 35.61321202 17.02541945 37.80078125 17.0078125 C39.11522217 16.98686523 40.42966309 16.96591797 41.78393555 16.94433594 C45.83185327 17.46875796 47.45278569 18.52204362 50.2890625 21.3984375 C51.1520758 24.14292701 50.9257143 26.60519942 50.2890625 29.3984375 C48.41891156 31.82963373 47.00767905 33.03912923 44.2890625 34.3984375 C41.96633091 34.55364307 39.63946937 34.64862917 37.3125 34.71484375 C36.6272525 34.73562485 35.942005 34.75640594 35.23599243 34.77781677 C33.04545181 34.84323935 30.85479061 34.90216304 28.6640625 34.9609375 C27.179675 35.00412968 25.69529972 35.0477442 24.2109375 35.09179688 C20.57044166 35.19891303 16.92980999 35.30020112 13.2890625 35.3984375 C13.04454346 35.93170654 12.80002441 36.46497559 12.5480957 37.0144043 C9.19514613 44.06273575 4.84540159 48.99947529 -2.3984375 52.2734375 C-11.04883254 55.21130752 -19.34272859 55.35905863 -27.7109375 51.3984375 C-33.01522746 47.49910819 -37.70575758 43.33149368 -40.7109375 37.3984375 C-40.7109375 36.4084375 -40.7109375 35.4184375 -40.7109375 34.3984375 C-41.96517014 34.40509933 -43.21940277 34.41176117 -44.51164246 34.41862488 C-56.32712221 34.4794195 -68.14257026 34.52440229 -79.95817089 34.55387402 C-86.03280845 34.56953503 -92.10731983 34.59078155 -98.18188477 34.62475586 C-104.04332534 34.65733332 -109.90464448 34.67528723 -115.76616859 34.68306923 C-118.00329818 34.6886156 -120.24042107 34.69944618 -122.47749901 34.71562767 C-125.60908793 34.73738013 -128.74017395 34.74040529 -131.87182617 34.73901367 C-132.79827438 34.7497995 -133.7247226 34.76058533 -134.679245 34.771698 C-139.49584013 34.74851189 -142.82900283 34.59501536 -146.7109375 31.3984375 C-148.27564983 28.26901285 -148.40795708 24.78761527 -147.7109375 21.3984375 C-146.3036499 19.29742432 -146.3036499 19.29742432 -143.7109375 17.3984375 C-140.41131401 16.80685031 -137.14558528 16.8936501 -133.80175781 16.94433594 C-132.293955 16.94345978 -132.293955 16.94345978 -130.75569153 16.94256592 C-127.43313059 16.94535265 -124.11146672 16.97647346 -120.7890625 17.0078125 C-118.48549896 17.01527277 -116.18192908 17.02096671 -113.87835693 17.02496338 C-107.81519043 17.04023643 -101.75240717 17.07953317 -95.68939209 17.1237793 C-89.50261622 17.16469565 -83.31577842 17.18296666 -77.12890625 17.203125 C-64.98941495 17.24602537 -52.85020809 17.31429733 -40.7109375 17.3984375 C-40.56994629 16.61597656 -40.42895508 15.83351563 -40.28369141 15.02734375 C-38.90436581 8.69632156 -33.75879874 4.01041866 -28.6171875 0.40625 C-19.77218339 -4.27000217 -9.01981487 -4.14265113 0 0 Z M-24.7109375 20.3984375 C-26.04844196 24.55956248 -26.02032932 26.55168093 -24.5234375 30.6484375 C-21.80975679 34.76574617 -20.07571435 36.05103976 -15.2734375 37.2734375 C-11.18384686 37.41693191 -9.85240227 36.9455711 -6.7109375 34.3984375 C-3.78126381 31.54794418 -2.80359282 30.0354428 -2.2109375 25.9609375 C-2.88515078 21.15716785 -4.62645712 17.97976744 -8.5234375 15.0234375 C-15.66119382 12.98407855 -20.23427521 14.67686069 -24.7109375 20.3984375 Z " fill="#000000" transform="translate(417.7109375,341.6015625)"/>
</svg>
