<?xml version="1.0" encoding="UTF-8"?>
<svg version="1.1" xmlns="http://www.w3.org/2000/svg" width="512" height="512">
<path d="M0 0 C5.4806164 3.899145 9.40821943 8.44571285 12.48046875 14.42578125 C12.97002296 15.29850426 12.97002296 15.29850426 13.46946716 16.18885803 C17.76312505 25.03271369 17.08548343 34.39684237 17.08984375 43.99609375 C17.10484391 45.88753665 17.12157488 47.77896655 17.13995361 49.67037964 C17.18343334 54.61865886 17.20358305 59.56676143 17.21868896 64.51519775 C17.23833024 69.57664348 17.28029217 74.63790039 17.3203125 79.69921875 C17.39540447 89.60801439 17.44582285 99.51676735 17.48046875 109.42578125 C19.32402954 109.39859009 19.32402954 109.39859009 21.20483398 109.37084961 C22.83707309 109.35618702 24.46931624 109.34196899 26.1015625 109.328125 C26.90928101 109.31503296 27.71699951 109.30194092 28.54919434 109.28845215 C43.57273512 109.19300399 52.49961958 117.33988033 62.72509766 127.39575195 C65.5620498 130.20477118 68.38553218 133.02703232 71.20703125 135.8515625 C72.7241789 137.36481604 74.24154728 138.8778483 75.75912476 140.39067078 C78.92778442 143.55189876 82.09258087 146.71693414 85.25488281 149.88452148 C89.2888143 153.92424899 93.33400467 157.95248831 97.38241005 161.97770405 C100.51566854 165.09616632 103.64190411 168.22159699 106.76621628 171.34902 C108.25407522 172.83636888 109.74426975 174.32138548 111.23692703 175.80391884 C130.53333584 194.9854257 130.53333584 194.9854257 133.85546875 205.36328125 C134.15195313 206.25917969 134.4484375 207.15507812 134.75390625 208.078125 C134.99367187 208.85285156 135.2334375 209.62757813 135.48046875 210.42578125 C135.81046875 211.41578125 136.14046875 212.40578125 136.48046875 213.42578125 C136.54929452 215.99591951 136.56179073 218.53770373 136.52709961 221.10668945 C136.51432628 222.72495786 136.50188562 224.34322891 136.48973083 225.96150208 C136.48181456 226.81915476 136.47389828 227.67680744 136.46574211 228.5604496 C136.42363873 234.05504072 136.43547017 239.54984663 136.43562984 245.04456806 C136.43263007 249.87391944 136.41187446 254.70198096 136.35375977 259.53100586 C136.2985769 264.20351537 136.2921135 268.87385651 136.31845284 273.54659081 C136.31968704 275.32521358 136.30320707 277.10394167 136.26853752 278.88222694 C135.69415984 288.52017403 135.69415984 288.52017403 139.66360474 296.74398804 C142.2680881 298.36871459 142.2680881 298.36871459 144.99806213 299.36857605 C150.69515239 301.79484796 153.52822243 308.03612717 155.82888794 313.4882164 C156.87851591 316.60942903 156.87860479 319.56578377 156.90039062 322.84228516 C156.90886017 323.54728653 156.91732971 324.2522879 156.92605591 324.97865295 C156.94927358 327.28673808 156.95045221 329.59415119 156.94921875 331.90234375 C156.95632664 333.51704165 156.96402655 335.13173704 156.97229004 336.74642944 C156.98569759 340.12041259 156.98731917 343.49416182 156.98144531 346.86816406 C156.97553491 351.18713952 157.00621217 355.5049964 157.04656219 359.82375526 C157.07242682 363.15412419 157.07531813 366.48422267 157.07167053 369.81467819 C157.07336116 371.40707601 157.08299827 372.99948639 157.10081482 374.59178543 C157.12299597 376.81797451 157.11331277 379.041884 157.09570312 381.26806641 C157.09775757 382.53268707 157.09981201 383.79730774 157.10192871 385.10025024 C156.29841203 389.39999567 154.83624906 390.68257227 151.48046875 393.42578125 C148.53659058 394.05498695 148.53659058 394.05498695 145.21826172 394.06069946 C143.95649109 394.07479858 142.69472046 394.08889771 141.39471436 394.10342407 C140.00402472 394.09370341 138.61333863 394.08346261 137.22265625 394.07275391 C135.7522066 394.07953207 134.28176544 394.08843633 132.81134033 394.0993042 C128.82361248 394.12208108 124.83653206 394.11326829 120.84879303 394.09740877 C116.67375455 394.08474124 112.49877115 394.09649224 108.32373047 394.1043396 C101.31272438 394.11343371 94.30198171 394.10145464 87.29101562 394.07763672 C79.18774492 394.05042571 71.08510323 394.05924006 62.98184776 394.08676875 C56.02201138 394.10946574 49.06236426 394.11265707 42.10250282 394.0995754 C37.94679073 394.09178406 33.79137421 394.09073035 29.63568115 394.10725784 C25.72840716 394.12171216 21.82194333 394.11166446 17.91475677 394.08278656 C16.48169042 394.07618072 15.04855576 394.07806502 13.61551666 394.08909988 C11.65792797 394.10278307 9.70019009 394.08257288 7.74267578 394.06069946 C6.100103 394.05787177 6.100103 394.05787177 4.42434692 394.05498695 C0.48795214 393.21364709 -1.02753052 391.51936124 -3.51953125 388.42578125 C-4.15444946 385.12043762 -4.15444946 385.12043762 -4.16650391 381.31567383 C-4.1752655 380.61899597 -4.1840271 379.92231812 -4.1930542 379.20452881 C-4.21499659 376.90914946 -4.20050844 374.61571034 -4.18359375 372.3203125 C-4.18696534 370.71473321 -4.19182081 369.10915641 -4.1980896 367.50358582 C-4.20545547 364.1384552 -4.19477258 360.7739888 -4.17138672 357.40893555 C-4.14301304 353.1194429 -4.15923046 348.83152245 -4.18924904 344.54208851 C-4.20742886 341.22432395 -4.20151362 337.90692389 -4.18861008 334.58914757 C-4.18529944 333.0092824 -4.18927975 331.42938298 -4.20100784 329.84955788 C-4.25393863 320.70947648 -3.78393242 313.26622109 1.48046875 305.42578125 C1.84860687 304.84887039 2.216745 304.27195953 2.59603882 303.67756653 C5.90411588 299.1160012 10.54895007 296.85393642 15.48046875 294.42578125 C15.56219811 291.90427915 15.62130248 289.38548208 15.66796875 286.86328125 C15.69310547 286.15880859 15.71824219 285.45433594 15.74414062 284.72851562 C15.75380859 284.02919922 15.76347656 283.32988281 15.7734375 282.609375 C15.78914795 281.97572021 15.8048584 281.34206543 15.82104492 280.68920898 C14.80234536 273.91905582 11.32392185 269.69978186 6.57543945 265.11425781 C5.98313034 264.52618347 5.39082123 263.93810913 4.78056335 263.33221436 C3.50006046 262.06353212 2.21492395 260.79951288 0.92565346 259.53974152 C-1.12337088 257.5374611 -3.15979082 255.52307883 -5.19355774 253.50531006 C-9.52022516 249.21742378 -13.86317264 244.94623912 -18.20703125 240.67578125 C-23.22715681 235.73639829 -28.24030577 230.79014929 -33.24204445 225.83214569 C-35.23394903 223.86316291 -37.23517325 221.90402635 -39.23722839 219.94537354 C-47.65019467 211.65626685 -56.20328654 203.1883651 -60.45703125 191.92578125 C-60.83730469 190.94609375 -61.21757813 189.96640625 -61.609375 188.95703125 C-63.12297284 184.74754027 -63.65179888 181.59017357 -63.6734314 177.10951233 C-63.67781365 176.46613102 -63.6821959 175.82274971 -63.68671095 175.159872 C-63.70008526 172.9998889 -63.70627486 170.83994659 -63.71240234 168.67993164 C-63.72030477 167.13247494 -63.72857381 165.58502007 -63.73718262 164.03756714 C-63.76339967 158.94954181 -63.77871596 153.8615083 -63.79296875 148.7734375 C-63.7983297 147.01944918 -63.80370721 145.26546092 -63.8091011 143.5114727 C-63.83073473 136.21034107 -63.84946771 128.90921164 -63.8607235 121.60805607 C-63.87693622 111.16127675 -63.91004312 100.71487094 -63.96712434 90.26823241 C-64.00592356 82.91517901 -64.02536831 75.56222507 -64.03064406 68.20907205 C-64.03428561 63.82221075 -64.04617756 59.43574784 -64.0787468 55.04899788 C-64.10900149 50.91449004 -64.11507801 46.78061796 -64.10336304 42.6460228 C-64.10314371 41.13684522 -64.11133118 39.62763666 -64.12901688 38.1185627 C-64.26856344 25.51470755 -61.69471342 15.22491892 -53.4609375 5.390625 C-50.16759186 2.05752066 -46.61893369 -0.33384765 -42.51953125 -2.57421875 C-41.80539063 -2.98800781 -41.09125 -3.40179688 -40.35546875 -3.828125 C-27.30483911 -10.26374477 -11.8482531 -7.40286201 0 0 Z M-39.92578125 22.171875 C-43.28053336 27.55145964 -43.64293207 33.16488475 -43.65324402 39.3502655 C-43.657509 40.51218414 -43.66177399 41.67410278 -43.66616821 42.87123108 C-43.66571503 44.13213058 -43.66526184 45.39303009 -43.66479492 46.69213867 C-43.66778989 48.04461764 -43.6711932 49.39709575 -43.67497253 50.74957275 C-43.68378441 54.41306694 -43.68614952 58.07653774 -43.68678832 61.74004149 C-43.68750066 64.03337008 -43.6896385 66.32669279 -43.69228554 68.62001991 C-43.70153113 76.63380941 -43.70562159 84.6475823 -43.70483398 92.66137695 C-43.70423408 100.10941779 -43.7147708 107.55738599 -43.73057765 115.00540847 C-43.7436951 121.4166921 -43.74901609 127.82795212 -43.74837857 134.23924905 C-43.74812473 138.06082834 -43.75091247 141.8823431 -43.76155663 145.70390892 C-43.77130812 149.30316494 -43.77126901 152.9022957 -43.76403999 156.5015564 C-43.76251215 158.43527338 -43.77079225 160.36899053 -43.77947998 162.3026886 C-43.72931393 176.36785276 -42.03604057 186.25320027 -31.90255737 196.38269043 C-31.04599045 197.21600891 -31.04599045 197.21600891 -30.17211914 198.06616211 C-29.2491378 198.98257225 -29.2491378 198.98257225 -28.30751038 199.91749573 C-26.98226371 201.23140474 -25.65356529 202.54183983 -24.32173347 203.84907341 C-22.20791177 205.92427449 -20.10389423 208.00899141 -18.00205994 210.09632874 C-12.78139046 215.27708676 -7.54450873 220.44135624 -2.30804443 225.60614014 C2.12364361 229.9784033 6.54897908 234.35691564 10.96624947 238.7437458 C13.02842986 240.78663418 15.0995071 242.82019199 17.17112732 244.85350037 C33.4626834 260.94874744 35.3687277 267.85573717 36.48046875 293.42578125 C62.88046875 293.42578125 89.28046875 293.42578125 116.48046875 293.42578125 C116.52171875 282.08203125 116.56296875 270.73828125 116.60546875 259.05078125 C116.62367676 255.4873291 116.64188477 251.92387695 116.66064453 248.25244141 C116.6673391 245.0193348 116.6673391 245.0193348 116.6713562 241.78622437 C116.67439949 240.36165106 116.68137479 238.93708244 116.69161987 237.51254272 C116.81413373 219.55822273 114.24790767 209.06858275 101.57641602 196.02001953 C98.75222942 193.15939312 95.90112223 190.3266831 93.046875 187.49609375 C91.52456524 185.97362879 90.00292405 184.45049505 88.48191833 182.92672729 C85.30503954 179.74846976 82.12135046 176.57724964 78.93237305 173.41113281 C74.85410895 169.36131176 70.79166376 165.29604701 66.73396397 161.22563362 C63.59883142 158.08353468 60.45635444 154.94886631 57.31153679 151.81646347 C55.81083364 150.32026116 54.31219503 148.82198503 52.81570625 147.32156754 C50.72237482 145.22531302 48.61955255 143.13906046 46.51391602 141.05517578 C45.90330826 140.44006638 45.2927005 139.82495697 44.66358948 139.19120789 C39.45403246 134.07038042 34.23974139 129.86284851 26.60546875 129.80078125 C19.42020096 130.0619 14.88902881 132.79552623 10.0390625 137.9609375 C6.99351671 142.27988223 6.93600125 147.02728686 6.75390625 152.16796875 C8.97075497 162.10803237 17.97187682 169.29908656 24.96875 176.171875 C26.07952367 177.27449566 27.18955236 178.37786725 28.2988739 179.48194885 C31.19688 182.36297045 34.10336947 185.23526722 37.01226807 188.10528564 C41.68701928 192.72043078 46.34874571 197.34872686 51.0101223 201.97737312 C52.63663496 203.58992828 54.26689771 205.19861448 55.89778137 206.80674744 C56.88937224 207.78832063 57.88088747 208.76997025 58.87231445 209.75170898 C59.74024124 210.60836655 60.60816803 211.46502411 61.50239563 212.34764099 C64.57941767 215.58032401 64.83514263 217.91871784 64.75390625 222.38671875 C64.30235236 225.75402065 63.037112 227.26246773 60.48046875 229.42578125 C56.54245721 230.59259949 54.3993337 230.80477675 50.58312988 229.23074341 C47.27730859 227.30759354 44.91836307 225.24447585 42.21289062 222.54638672 C41.47988487 221.8212664 41.47988487 221.8212664 40.73207092 221.08149719 C39.13019512 219.49274571 37.53945427 217.89336498 35.94921875 216.29296875 C34.82917251 215.1749464 33.70868152 214.05736945 32.58776855 212.94021606 C30.24289345 210.59975494 27.90350548 208.25397866 25.56787109 205.90429688 C22.59251475 202.91190895 19.60397157 199.9331145 16.61110687 196.95825005 C14.29432978 194.65238671 11.98483554 192.3393346 9.67738342 190.02414322 C8.57930376 188.92407937 7.47903861 187.82619213 6.37644958 186.73064804 C-4.84209283 175.56807111 -12.69371701 165.9023137 -13.01953125 149.61328125 C-13.00663124 140.65422285 -11.1065961 132.97546885 -5.4571228 125.80990601 C-3.00791898 121.53221844 -2.96567813 118.53124259 -3.03369141 113.70166016 C-3.02989471 112.84556656 -3.02609802 111.98947296 -3.02218628 111.10743713 C-3.01480138 108.2886951 -3.03613771 105.47099359 -3.05859375 102.65234375 C-3.06097998 100.68468344 -3.06188312 98.71702082 -3.06137085 96.74935913 C-3.06449557 92.62865904 -3.08103292 88.50830767 -3.10791016 84.38769531 C-3.14184449 79.11984663 -3.14953968 73.85238159 -3.14801979 68.58443642 C-3.14856519 64.52137628 -3.15956041 60.45839911 -3.17402267 56.39536667 C-3.1803638 54.45380658 -3.18432325 52.51223714 -3.18581009 50.57066727 C-3.19017431 47.84984794 -3.20774307 45.12942473 -3.22900391 42.40869141 C-3.22809753 41.61466415 -3.22719116 40.8206369 -3.22625732 40.00254822 C-3.31942342 31.79793677 -4.73112494 24.53920503 -10.51953125 18.42578125 C-15.62871649 14.35928687 -20.01163907 13.67784407 -26.51171875 13.9140625 C-32.17613972 14.8777497 -36.34380077 17.72424923 -39.92578125 22.171875 Z M19.48046875 316.42578125 C16.5071557 320.93370749 16.35212845 324.32057085 16.4140625 329.6796875 C16.4236499 330.75677979 16.4332373 331.83387207 16.44311523 332.94360352 C16.45544189 333.76272217 16.46776855 334.58184082 16.48046875 335.42578125 C17.50071136 335.44124245 17.50071136 335.44124245 18.54156494 335.45701599 C25.61423293 335.56511144 32.68677431 335.6797072 39.75927734 335.7980957 C42.3995499 335.84143474 45.0398503 335.88311055 47.68017578 335.9230957 C51.47306717 335.98082291 55.26581854 336.04451074 59.05859375 336.109375 C60.24100647 336.12608749 61.42341919 336.14279999 62.6416626 336.16001892 C64.29292145 336.18993675 64.29292145 336.18993675 65.97753906 336.22045898 C67.42981903 336.24377541 67.42981903 336.24377541 68.91143799 336.26756287 C71.2874453 336.41389355 73.26334649 336.55539324 75.48046875 337.42578125 C76.37281285 340.10281356 76.73207217 342.01961209 76.85546875 344.80078125 C76.90445313 345.55101562 76.9534375 346.30125 77.00390625 347.07421875 C76.39708572 349.80038264 75.36595024 351.42187187 73.34698486 353.34863281 C69.08415175 355.80867267 63.73993969 355.14877692 58.9609375 355.1328125 C57.74722977 355.14793381 56.53352203 355.16305511 55.28303528 355.17863464 C51.41115845 355.22158021 47.54006024 355.23035697 43.66796875 355.23828125 C41.04099482 355.26141998 38.41403949 355.286784 35.78710938 355.31445312 C29.35149345 355.37737431 22.91636522 355.40965594 16.48046875 355.42578125 C16.48046875 361.36578125 16.48046875 367.30578125 16.48046875 373.42578125 C56.08046875 373.42578125 95.68046875 373.42578125 136.48046875 373.42578125 C138.72788165 344.15659589 138.72788165 344.15659589 133.48046875 316.42578125 C128.02700066 313.02831051 122.91708309 312.99503795 116.6171875 313.03759766 C115.16948471 313.02971222 115.16948471 313.02971222 113.6925354 313.02166748 C110.51751288 313.00851562 107.34299595 313.01718868 104.16796875 313.02734375 C101.95271712 313.02532164 99.73746615 313.02240905 97.5222168 313.01864624 C92.88551479 313.0142294 88.24898647 313.02063348 83.61230469 313.03466797 C77.67734449 313.05175929 71.74279134 313.0419147 65.80784607 313.02395058 C61.23527983 313.01309556 56.66280965 313.01656701 52.09024048 313.02433395 C49.90223136 313.0263312 47.71421344 313.02389344 45.5262146 313.01689529 C42.465159 313.0092527 39.40475709 313.02092477 36.34375 313.03759766 C35.44484039 313.03152496 34.54593079 313.02545227 33.61978149 313.01919556 C28.1653239 313.07406609 24.28644252 313.77164934 19.48046875 316.42578125 Z " fill="#000000" transform="translate(63.51953125,118.57421875)"/>
<path d="M0 0 C5.4806164 3.899145 9.40821943 8.44571285 12.48046875 14.42578125 C12.80771911 15.0545325 13.13496946 15.68328375 13.4721365 16.33108807 C17.05945981 24.07941549 17.0543532 31.59120057 17.01391602 39.95043945 C17.02098615 41.4973126 17.02973573 43.04417884 17.0400238 44.59103394 C17.06240887 48.76691596 17.0596032 52.94241701 17.05070233 57.11833596 C17.04556839 60.61698032 17.05290469 64.11555458 17.06017441 67.61419171 C17.07713995 75.8755887 17.07364268 84.13680084 17.05688477 92.39819336 C17.03997771 100.89162628 17.05578594 109.38454469 17.08810765 117.8779214 C17.11489232 125.19635078 17.12205537 132.51462087 17.11359257 139.8330943 C17.10868778 144.19244283 17.11074464 148.55148227 17.13138008 152.9107914 C17.14987671 157.01428 17.14361028 161.11703533 17.11918068 165.22048569 C17.11421616 166.71632087 17.11754758 168.21221328 17.13032913 169.70800209 C17.29858402 191.1111908 7.26144741 204.30687735 -7.06288528 219.0099411 C-10.28394309 222.26629763 -13.54255928 225.48434799 -16.80720711 228.69692612 C-18.60599519 230.4685002 -20.39989236 232.24489846 -22.19248962 234.0227356 C-27.27915072 239.06716906 -32.36899414 244.10828442 -37.47436523 249.13378906 C-40.62091914 252.23180554 -43.75760529 255.33952016 -46.88809013 258.45376968 C-48.07455476 259.63036808 -49.26465824 260.80330937 -50.45851326 261.97240829 C-52.12110253 263.60120604 -53.77082125 265.24208298 -55.41821289 266.88623047 C-55.90803146 267.36009689 -56.39785004 267.83396332 -56.9025116 268.32218933 C-62.61071484 274.08185296 -63.17250639 280.83614115 -63.30712891 288.59179688 C-63.18109574 292.06934906 -62.95053301 293.97980259 -60.49609375 296.51953125 C-57.9023996 297.96561699 -57.9023996 297.96561699 -55.1328125 299.1484375 C-49.39735883 301.95186553 -46.57083076 307.80139212 -44.17111206 313.4882164 C-43.12148409 316.60942903 -43.12139521 319.56578377 -43.09960938 322.84228516 C-43.09113983 323.54728653 -43.08267029 324.2522879 -43.07394409 324.97865295 C-43.05072642 327.28673808 -43.04954779 329.59415119 -43.05078125 331.90234375 C-43.04367336 333.51704165 -43.03597345 335.13173704 -43.02770996 336.74642944 C-43.01430241 340.12041259 -43.01268083 343.49416182 -43.01855469 346.86816406 C-43.02446509 351.18713952 -42.99378783 355.5049964 -42.95343781 359.82375526 C-42.92757318 363.15412419 -42.92468187 366.48422267 -42.92832947 369.81467819 C-42.92663884 371.40707601 -42.91700173 372.99948639 -42.89918518 374.59178543 C-42.87700403 376.81797451 -42.88668723 379.041884 -42.90429688 381.26806641 C-42.90224243 382.53268707 -42.90018799 383.79730774 -42.89807129 385.10025024 C-43.70158797 389.39999567 -45.16375094 390.68257227 -48.51953125 393.42578125 C-51.46340942 394.05498695 -51.46340942 394.05498695 -54.78173828 394.06069946 C-56.04350891 394.07479858 -57.30527954 394.08889771 -58.60528564 394.10342407 C-59.99597528 394.09370341 -61.38666137 394.08346261 -62.77734375 394.07275391 C-64.2477934 394.07953207 -65.71823456 394.08843633 -67.18865967 394.0993042 C-71.17638752 394.12208108 -75.16346794 394.11326829 -79.15120697 394.09740877 C-83.32624545 394.08474124 -87.50122885 394.09649224 -91.67626953 394.1043396 C-98.68727562 394.11343371 -105.69801829 394.10145464 -112.70898438 394.07763672 C-120.81225508 394.05042571 -128.91489677 394.05924006 -137.01815224 394.08676875 C-143.97798862 394.10946574 -150.93763574 394.11265707 -157.89749718 394.0995754 C-162.05320927 394.09178406 -166.20862579 394.09073035 -170.36431885 394.10725784 C-174.27159284 394.12171216 -178.17805667 394.11166446 -182.08524323 394.08278656 C-183.51830958 394.07618072 -184.95144424 394.07806502 -186.38448334 394.08909988 C-188.34207203 394.10278307 -190.29980991 394.08257288 -192.25732422 394.06069946 C-193.899897 394.05787177 -193.899897 394.05787177 -195.57565308 394.05498695 C-199.51169391 393.21372275 -201.0270409 391.51838771 -203.51953125 388.42578125 C-204.16117859 385.13389587 -204.16117859 385.13389587 -204.18237305 381.34741211 C-204.19274094 380.65394684 -204.20310883 379.96048157 -204.21379089 379.2460022 C-204.2408225 376.9602683 -204.23120186 374.67646063 -204.21875 372.390625 C-204.22466483 370.78983531 -204.23191403 369.18905005 -204.24043274 367.58827209 C-204.25230994 364.23154688 -204.24561898 360.87548465 -204.22631836 357.51879883 C-204.20355429 353.2472482 -204.23007304 348.97770344 -204.27138042 344.70635128 C-204.29715729 341.3970676 -204.29432305 338.08825014 -204.28348732 334.77890205 C-204.28201408 333.20625563 -204.28953282 331.63357099 -204.3067379 330.06101799 C-204.4052657 319.30128986 -203.27618871 309.7334478 -195.67094421 301.4002533 C-192.31184347 298.27393416 -188.62190317 296.45645535 -184.51953125 294.42578125 C-184.51588562 293.43765442 -184.51223999 292.44952759 -184.50848389 291.43145752 C-184.47138845 282.07553474 -184.41345838 272.71993669 -184.33562851 263.36426163 C-184.29628044 258.55549086 -184.26403023 253.74689975 -184.24853516 248.93798828 C-184.23328458 244.28877054 -184.19869195 239.64004713 -184.15122223 234.99105072 C-184.13649449 233.22588166 -184.12849523 231.46064198 -184.1276474 229.69541168 C-184.1001296 201.10510323 -168.91360465 186.67706953 -149.7734375 167.44140625 C-148.7288654 166.39072086 -148.7288654 166.39072086 -147.66319084 165.31880951 C-143.98469122 161.61960292 -140.30303389 157.92357186 -136.61889648 154.22998047 C-132.83701462 150.43699519 -129.0669713 146.63246188 -125.2993784 142.82529068 C-122.37624109 139.87592547 -119.44417303 136.93556024 -116.50968742 133.99748993 C-115.11618858 132.59915055 -113.72604107 131.19746241 -112.33947945 129.79224396 C-92.26696932 109.46626651 -92.26696932 109.46626651 -77.8984375 109.23046875 C-76.29285118 109.24357558 -74.6873188 109.26714912 -73.08203125 109.30078125 C-72.25509766 109.30980469 -71.42816406 109.31882812 -70.57617188 109.328125 C-68.55716417 109.35146613 -66.53830769 109.38732837 -64.51953125 109.42578125 C-64.51810623 108.38754211 -64.51668121 107.34930298 -64.51521301 106.27960205 C-64.49847932 96.45274384 -64.45551214 86.62629636 -64.38744068 76.79965591 C-64.35327894 71.74870214 -64.32807759 66.69804738 -64.32397461 61.64697266 C-64.31966838 56.76428003 -64.29101431 51.88226066 -64.24609947 46.99977875 C-64.23319838 45.14529098 -64.22879032 43.29072234 -64.23337746 41.43619537 C-64.2613023 26.70653497 -62.36453398 14.40170956 -51.51953125 3.42578125 C-48.68124807 1.06318799 -45.75675182 -0.80504006 -42.51953125 -2.57421875 C-41.80539062 -2.98800781 -41.09125 -3.40179688 -40.35546875 -3.828125 C-27.30483911 -10.26374477 -11.8482531 -7.40286201 0 0 Z M-39.92578125 22.171875 C-43.79380013 28.37451956 -43.67484971 35.11666313 -43.71240234 42.16577148 C-43.72057983 43.02347137 -43.72875732 43.88117126 -43.73718262 44.76486206 C-43.76188785 47.58802614 -43.77851012 50.41114063 -43.79296875 53.234375 C-43.80095427 54.68586284 -43.80095427 54.68586284 -43.8091011 56.16667366 C-43.835762 61.28404064 -43.8551634 66.40138376 -43.86962891 71.51879883 C-43.8829883 75.74688247 -43.91088803 79.97448583 -43.95166016 84.20239258 C-44.00098844 89.3186891 -44.02574905 94.43454891 -44.03285599 99.55107307 C-44.03956231 101.49630573 -44.05476825 103.44152887 -44.0787468 105.38662529 C-44.1104224 108.11039854 -44.11043231 110.83248685 -44.10302734 113.55639648 C-44.11943268 114.35401901 -44.13583801 115.15164154 -44.15274048 115.97343445 C-44.08715071 121.88556576 -42.2241548 124.9441904 -38.51953125 129.42578125 C-33.24365703 138.93444854 -32.83551034 151.00852061 -35.21484375 161.48828125 C-39.37743348 172.68179986 -47.61040721 180.94596799 -55.9375 189.171875 C-57.0433356 190.27464607 -58.14857533 191.37801497 -59.25325012 192.48194885 C-61.55418397 194.77831071 -63.85989928 197.06971289 -66.16967773 199.35717773 C-69.12888731 202.28794026 -72.07919647 205.22746455 -75.02643871 208.17025661 C-77.3018741 210.44153795 -79.5801259 212.70997502 -81.85943031 214.97737312 C-82.94873118 216.06098516 -84.03757057 217.1450613 -85.12593651 218.22961235 C-86.64281174 219.73961392 -88.16301235 221.24618098 -89.68432617 222.75170898 C-90.54781174 223.60836655 -91.4112973 224.46502411 -92.3009491 225.34764099 C-96.41922898 229.20522328 -98.92126824 229.86001565 -104.359375 229.75390625 C-106.51953125 229.42578125 -106.51953125 229.42578125 -109.01953125 227.55078125 C-111.54588178 223.97178467 -111.94295038 221.82934021 -111.51953125 217.42578125 C-109.0059823 213.19295032 -106.13022148 209.80146129 -102.63085938 206.35766602 C-101.92273354 205.65633041 -101.92273354 205.65633041 -101.20030212 204.94082642 C-100.18382991 203.93523682 -99.16508425 202.93194094 -98.14427185 201.93075752 C-96.52460747 200.34150518 -94.91192605 198.74545469 -93.30090332 197.14744568 C-88.72232474 192.60841544 -84.13104426 188.08231171 -79.53662109 183.55932617 C-76.71809746 180.78368967 -73.90706088 178.00064087 -71.10020447 175.21320915 C-70.03467617 174.15819225 -68.96624695 173.10609629 -67.89479065 172.0571003 C-58.79569842 163.57427897 -58.79569842 163.57427897 -53.91796875 152.43359375 C-53.85640982 144.86184486 -55.24819261 139.97888409 -60.51953125 134.42578125 C-65.1090337 130.11655376 -70.17333899 129.91488343 -76.26171875 129.69921875 C-87.46186513 132.19709312 -96.06377091 143.51521076 -103.84375 151.31640625 C-105.31830711 152.78639483 -106.7932332 154.25601337 -108.26850891 155.72528076 C-111.34884632 158.79671592 -114.42348669 161.87371808 -117.49438477 164.95458984 C-121.41291221 168.88460768 -125.34707452 172.79854077 -129.28590679 176.70819473 C-132.3326097 179.73647505 -135.36986545 182.7740959 -138.40452003 185.8144455 C-139.85059558 187.26067348 -141.29974124 188.70383893 -142.75211143 190.14374542 C-155.59129105 202.88818482 -163.41030796 212.28282329 -163.74658203 230.98681641 C-163.75487407 233.89636941 -163.73576821 236.80537688 -163.71484375 239.71484375 C-163.71189611 241.09464353 -163.70986012 242.47444557 -163.70874023 243.85424805 C-163.69833639 248.91979365 -163.67041415 253.98529109 -163.64453125 259.05078125 C-163.60328125 270.39453125 -163.56203125 281.73828125 -163.51953125 293.42578125 C-137.11953125 293.42578125 -110.71953125 293.42578125 -83.51953125 293.42578125 C-83.18953125 285.83578125 -82.85953125 278.24578125 -82.51953125 270.42578125 C-77.91678448 258.91891433 -77.91678448 258.91891433 -73.12695312 254.15112305 C-72.34444813 253.3385468 -72.34444813 253.3385468 -71.54613495 252.50955486 C-69.88703943 250.79784816 -68.20662673 249.10986346 -66.51953125 247.42578125 C-65.97736969 246.87930058 -65.43520813 246.3328199 -64.87661743 245.76977921 C-61.48841689 242.35745816 -58.0673388 238.98003853 -54.63166809 235.61557961 C-51.4255515 232.47183772 -48.23598369 229.31133474 -45.04296875 226.15429688 C-41.01748198 222.17671299 -36.9874078 218.20405931 -32.94238281 214.24633789 C-29.63452746 211.0090168 -26.34176966 207.75698812 -23.05833435 204.49490929 C-21.81669356 203.26676049 -20.56968613 202.04401049 -19.31703186 200.82709694 C-9.66435693 191.44287866 -3.8822834 183.4485288 -3.4265461 169.60029316 C-3.38211056 166.06593061 -3.3729983 162.53293525 -3.37426758 158.99829102 C-3.37127177 157.640797 -3.36786827 156.28330383 -3.36408997 154.92581177 C-3.35529024 151.25431403 -3.3529136 147.58283963 -3.35227418 143.91133237 C-3.35156156 141.61416906 -3.34942328 139.31701162 -3.34677696 137.01984978 C-3.33753795 128.99654643 -3.3334404 120.97325966 -3.33422852 112.94995117 C-3.33482941 105.48535686 -3.32427151 98.02083478 -3.30848485 90.55625874 C-3.29538915 84.1339616 -3.29004545 77.71168801 -3.29068393 71.28937763 C-3.29093825 67.45952525 -3.28812317 63.62973716 -3.27750587 59.79989815 C-3.26779026 56.19735506 -3.26776931 52.59493731 -3.27502251 48.99238968 C-3.27655829 47.04975524 -3.26824649 45.10712073 -3.25958252 43.164505 C-3.29327396 33.76309645 -3.7863691 25.53700866 -10.51953125 18.42578125 C-15.62871649 14.35928687 -20.01163907 13.67784407 -26.51171875 13.9140625 C-32.17613972 14.8777497 -36.34380077 17.72424923 -39.92578125 22.171875 Z M-180.51953125 316.42578125 C-188.01435705 333.91370812 -183.51953125 354.39948366 -183.51953125 373.42578125 C-143.91953125 373.42578125 -104.31953125 373.42578125 -63.51953125 373.42578125 C-63.51953125 367.48578125 -63.51953125 361.54578125 -63.51953125 355.42578125 C-65.88854614 355.4117627 -65.88854614 355.4117627 -68.30541992 355.39746094 C-74.16687186 355.35757924 -80.02779795 355.29182431 -85.88891602 355.21826172 C-88.42530562 355.19004177 -90.96178333 355.1688324 -93.49829102 355.15478516 C-97.14515324 355.13337082 -100.79095489 355.08672505 -104.4375 355.03515625 C-106.13775581 355.03331329 -106.13775581 355.03331329 -107.87236023 355.03143311 C-115.73071312 354.88534779 -115.73071312 354.88534779 -119.71606445 352.56347656 C-122.0853018 349.75515895 -122.44760871 348.09383061 -122.51953125 344.42578125 C-121.76953125 340.61328125 -121.76953125 340.61328125 -120.51953125 337.42578125 C-117.49896964 336.41892738 -115.38398511 336.27205439 -112.22192383 336.22045898 C-110.60058281 336.19054115 -110.60058281 336.19054115 -108.94648743 336.16001892 C-107.7807872 336.14330643 -106.61508698 336.12659393 -105.4140625 336.109375 C-104.21972092 336.0885939 -103.02537933 336.06781281 -101.79484558 336.04640198 C-97.97396682 335.98093849 -94.15301849 335.92203615 -90.33203125 335.86328125 C-87.74413339 335.82009301 -85.1562426 335.77647862 -82.56835938 335.73242188 C-76.21882386 335.62526033 -69.86921891 335.52348785 -63.51953125 335.42578125 C-63.49070887 333.51050562 -63.47017449 331.59510411 -63.453125 329.6796875 C-63.44079834 328.61306885 -63.42847168 327.5464502 -63.41577148 326.44750977 C-63.56228276 322.18075672 -64.15950255 320.00388928 -66.51953125 316.42578125 C-72.18741887 313.29565151 -76.99225519 312.99442547 -83.3828125 313.03759766 C-84.83051529 313.02971222 -84.83051529 313.02971222 -86.3074646 313.02166748 C-89.48248712 313.00851562 -92.65700405 313.01718868 -95.83203125 313.02734375 C-98.04728288 313.02532164 -100.26253385 313.02240905 -102.4777832 313.01864624 C-107.11448521 313.0142294 -111.75101353 313.02063348 -116.38769531 313.03466797 C-122.32265551 313.05175929 -128.25720866 313.0419147 -134.19215393 313.02395058 C-138.76472017 313.01309556 -143.33719035 313.01656701 -147.90975952 313.02433395 C-150.09776864 313.0263312 -152.28578656 313.02389344 -154.4737854 313.01689529 C-157.534841 313.0092527 -160.59524291 313.02092477 -163.65625 313.03759766 C-164.55515961 313.03152496 -165.45406921 313.02545227 -166.38021851 313.01919556 C-171.81800275 313.07389836 -175.84823046 313.51559502 -180.51953125 316.42578125 Z " fill="#000000" transform="translate(495.51953125,118.57421875)"/>
<path d="M0 0 C5.0009984 2.91773535 9.47964016 6.39578431 14 10 C14.87914062 10.67933594 15.75828125 11.35867188 16.6640625 12.05859375 C29.77443272 22.3290955 42.38103441 33.3215652 54.1875 45.0625 C54.75782959 45.62815674 55.32815918 46.19381348 55.91577148 46.77661133 C78.84753156 69.79451874 98.17199428 98.53075607 107 130 C107.31839844 131.05832031 107.63679687 132.11664063 107.96484375 133.20703125 C112.77844147 152.26177981 111.74754935 174.27941069 106 193 C105.50886719 194.78664062 105.50886719 194.78664062 105.0078125 196.609375 C99.33843168 215.56248753 89.60877489 233.08564182 78 249 C77.56300781 249.59989746 77.12601563 250.19979492 76.67578125 250.81787109 C65.32658201 266.23968683 52.56654628 282.14246144 37.8125 294.4375 C35.82171406 296.15369477 34.01610701 297.98740567 32.1875 299.875 C28.41827149 303.69576093 24.38331325 307.07712233 20.19921875 310.43359375 C19.50977173 311.03324951 19.50977173 311.03324951 18.80639648 311.64501953 C17 313 17 313 14.22680664 314.36669922 C10.67721619 316.45374949 7.94258949 318.34866241 6 322 C4.05456796 330.50943199 4.82418127 339.58894956 5.0625 348.25 C5.12385163 351.84737085 5.16943781 355.44387426 5.19371033 359.04168701 C5.21264728 361.27351203 5.25497592 363.50529187 5.32350159 365.73614502 C5.44094445 373.26252796 5.44094445 373.26252796 3.11108398 377.15917969 C0.21845009 379.68149489 -1.54447425 380.21034677 -5.3125 380.375 C-6.07175781 380.42398437 -6.83101563 380.47296875 -7.61328125 380.5234375 C-10.36629124 379.91966771 -11.99344908 378.89168917 -13.93751526 376.85308838 C-16.34979815 372.64580595 -15.59326271 367.399336 -15.48828125 362.69921875 C-15.48120651 361.50770706 -15.47413177 360.31619537 -15.46684265 359.08857727 C-15.43888186 355.28757628 -15.37613474 351.48805486 -15.3125 347.6875 C-15.28741956 345.10874525 -15.26460596 342.52996738 -15.24414062 339.95117188 C-15.18904931 333.63361082 -15.10540375 327.31691112 -15 321 C-15.59675537 320.71640625 -16.19351074 320.4328125 -16.80834961 320.140625 C-20.0109412 318.47386462 -22.74456788 316.23499113 -25.5625 314 C-26.48796631 313.26958496 -26.48796631 313.26958496 -27.43212891 312.52441406 C-32.23688766 308.69300643 -36.80937169 304.67614859 -41.3046875 300.484375 C-43.41667413 298.53767428 -45.55462968 296.65437069 -47.73046875 294.78125 C-59.43782384 284.56962088 -70.56210962 273.34694241 -80 261 C-81.10585435 259.61931387 -82.21415086 258.24058198 -83.32421875 256.86328125 C-105.41865189 229.26377792 -122.4253771 196.47544701 -122.375 160.4375 C-122.37445618 159.77836609 -122.37391235 159.11923218 -122.37335205 158.44012451 C-122.3318351 147.46536795 -121.39756859 137.43575862 -118 127 C-117.67854004 125.99356445 -117.67854004 125.99356445 -117.35058594 124.96679688 C-104.69623742 86.39590051 -76.31588194 51.09142281 -44.6875 26.12890625 C-41.8531103 23.88364115 -39.12002994 21.54091562 -36.375 19.1875 C-31.4162524 15.04219525 -26.27746142 11.22992248 -21 7.5 C-20.26958496 6.98332764 -19.53916992 6.46665527 -18.78662109 5.93432617 C-7.53244536 -1.92317754 -7.53244536 -1.92317754 0 0 Z M-23.625 36.5625 C-24.58104126 37.39394531 -24.58104126 37.39394531 -25.55639648 38.2421875 C-26.81822728 39.34052207 -28.07828644 40.44089584 -29.33642578 41.54345703 C-30.6342158 42.67973752 -31.93883756 43.80821668 -33.24609375 44.93359375 C-35.18214593 46.60317853 -37.09484435 48.29520205 -39 50 C-39.47791992 50.42748535 -39.95583984 50.8549707 -40.44824219 51.29541016 C-47.74260338 57.84703244 -54.6121094 64.54375139 -61 72 C-61.89283859 73.01857166 -62.78608807 74.03678326 -63.6796875 75.0546875 C-87.97172109 102.96198457 -103.20646498 134.50211972 -101 172 C-95.96250404 216.2070987 -60.13938827 256.49821413 -27.81860352 284.42431641 C-24.78456074 287.05308699 -21.83977577 289.78125117 -18.8828125 292.49609375 C-17.14117116 294.20803393 -17.14117116 294.20803393 -15 294 C-14.78929812 280.07432532 -14.63142767 266.14889949 -14.53369045 252.2219553 C-14.48677421 245.75458453 -14.42316608 239.28828656 -14.32104492 232.8215332 C-14.22305997 226.57743266 -14.16940052 220.3343621 -14.14610481 214.08955193 C-14.12950977 211.71044643 -14.09710181 209.33139563 -14.04842949 206.95273018 C-13.34191714 194.34353116 -13.34191714 194.34353116 -16.92727661 182.60714722 C-19.17483105 180.32347871 -21.29080918 178.68775847 -24 177 C-25.30921772 175.87426212 -26.60404268 174.73126186 -27.875 173.5625 C-28.52210938 173.00691406 -29.16921875 172.45132813 -29.8359375 171.87890625 C-32.42938894 169.62719119 -34.96386976 167.31605282 -37.5 165 C-40.61907011 162.15475772 -43.74755391 159.3280042 -46.9375 156.5625 C-50.88190555 153.13645576 -54.72334607 149.60092471 -58.5625 146.05810547 C-61.47465166 143.37659177 -64.42520675 140.75563659 -67.4375 138.1875 C-75.55285988 131.03785101 -75.55285988 131.03785101 -76.44140625 126.98828125 C-76.6453204 123.42965043 -76.30534869 121.3969533 -74.125 118.5625 C-70.29041264 115.74295047 -67.77352116 115.60220657 -63 116 C-57.90577508 118.92738559 -53.85217619 122.76582085 -49.625 126.8125 C-48.28860844 128.07641808 -46.95137868 129.33945054 -45.61328125 130.6015625 C-44.98244629 131.19743164 -44.35161133 131.79330078 -43.70166016 132.40722656 C-41.20039307 134.74844126 -38.62297716 136.99204689 -36.0234375 139.22265625 C-32.27956172 142.51119578 -28.66356135 145.94474386 -25.02734375 149.3515625 C-21.8634208 152.11948477 -18.42075996 154.55660003 -15 157 C-15 115.42 -15 73.84 -15 31 C-18.57771736 31 -21.03666639 34.28597734 -23.625 36.5625 Z M5 31 C5 90.73 5 150.46 5 212 C9.83075277 207.85935477 14.18639343 203.84442817 18.4375 199.1875 C19.65969002 197.86285093 20.882366 196.53865011 22.10546875 195.21484375 C23.05558838 194.18399658 23.05558838 194.18399658 24.02490234 193.13232422 C28.08055526 188.75382328 32.19168248 184.4271944 36.29174805 180.09033203 C40.95498245 175.14498024 45.51299432 170.12410615 49.984375 165.00390625 C53.05653953 161.94960314 55.67401319 160.70949193 60 160.625 C63.14074504 160.69518425 63.83433992 160.87256917 66.4375 162.875 C68.61520844 165.83668348 69.60461179 168.1432531 69.51953125 171.89453125 C67.46076561 180.23794989 57.81875947 187.29825329 51.8203125 193.18359375 C48.96121219 196.03873409 46.3230532 198.99991558 43.70703125 202.07421875 C41.009003 205.11798975 38.08202267 207.9258425 35.1875 210.78125 C33.20279658 212.79430632 31.33903084 214.85446403 29.5 217 C26.25315284 220.78798836 22.75341079 224.26364242 19.203125 227.765625 C16.57300298 230.43305372 14.1220416 233.21940538 11.703125 236.078125 C10 238 10 238 7.42407227 239.89233398 C3.76543608 244.58271368 4.37476054 248.86104661 4.51171875 254.64453125 C4.51879349 255.7694548 4.52586823 256.89437836 4.53315735 258.0533905 C4.56110856 261.64044149 4.62385283 265.22592212 4.6875 268.8125 C4.71258173 271.24672222 4.73539511 273.68096895 4.75585938 276.11523438 C4.81093774 282.0773572 4.89457295 288.0385664 5 294 C7.94299618 292.3001284 10.61722563 290.63465217 13.1015625 288.3125 C13.66480225 287.78817383 14.22804199 287.26384766 14.80834961 286.72363281 C15.40784424 286.15483398 16.00733887 285.58603516 16.625 285 C17.26381104 284.39768555 17.90262207 283.79537109 18.56079102 283.17480469 C24.08435812 277.93285706 29.52706571 272.60842109 34.9375 267.25 C36.10756592 266.09951172 36.10756592 266.09951172 37.30126953 264.92578125 C42.64153227 259.59349415 47.38239173 253.96363949 52 248 C52.87060001 246.91262225 53.74271633 245.8264545 54.6171875 244.7421875 C77.36261351 215.85785758 92.73574671 182.85379205 88.72314453 145.41699219 C84.43290853 115.97562794 66.23541404 90.69942694 47 69 C46.20464844 68.0925 45.40929687 67.185 44.58984375 66.25 C34.75371589 55.14749236 24.18028325 45.24991323 12.5625 36.0625 C11.9344043 35.56500244 11.30630859 35.06750488 10.65917969 34.55493164 C8.10001297 32.10983329 8.10001297 32.10983329 5 31 Z " fill="#000000" transform="translate(262,0)"/>
<path d="M0 0 C2.4375 1.5625 2.4375 1.5625 4 4 C4.84715191 8.66370227 4.65619755 11.95008392 2.125 16 C-1.10090806 19.03614876 -3.44456065 19.40859474 -7.89453125 19.34375 C-11.78521443 18.70853642 -13.39157143 16.92652961 -16 14 C-17.41754037 10.16430254 -17.07293007 8.26892965 -16 4.3125 C-12.02081608 -2.27802337 -6.78157375 -2.9429471 0 0 Z " fill="#000000" transform="translate(349,455)"/>
<path d="M0 0 C2.4375 1.5625 2.4375 1.5625 4 4 C4.84715191 8.66370227 4.65619755 11.95008392 2.125 16 C-1.10090806 19.03614876 -3.44456065 19.40859474 -7.89453125 19.34375 C-11.78521443 18.70853642 -13.39157143 16.92652961 -16 14 C-17.41754037 10.16430254 -17.07293007 8.26892965 -16 4.3125 C-12.02081608 -2.27802337 -6.78157375 -2.9429471 0 0 Z " fill="#000000" transform="translate(177,455)"/>
</svg>
