<?xml version="1.0" encoding="UTF-8"?>
<svg version="1.1" xmlns="http://www.w3.org/2000/svg" width="512" height="512">
<path d="M0 0 C1.00029834 -0.00445784 2.00059668 -0.00891569 3.03120708 -0.01350862 C4.12807244 -0.01332426 5.2249378 -0.01313989 6.3550415 -0.01294994 C7.52197194 -0.01662663 8.68890238 -0.02030332 9.89119434 -0.02409142 C13.13124762 -0.03320962 16.37127113 -0.03782608 19.61133504 -0.04048073 C23.10574074 -0.04438784 26.60013184 -0.05396601 30.0945282 -0.0626936 C38.53496173 -0.08244831 46.97539644 -0.09252374 55.4158473 -0.10142139 C59.39310757 -0.10580661 63.37036651 -0.11117288 67.34762573 -0.11641026 C80.57387516 -0.13342286 93.80012376 -0.14791566 107.02638245 -0.155159 C110.45803834 -0.15706882 113.88969423 -0.15898916 117.3213501 -0.16094494 C118.60069516 -0.16167055 118.60069516 -0.16167055 119.90588558 -0.16241082 C133.71329982 -0.17070596 147.52062728 -0.196034 161.32800364 -0.22852562 C175.51210561 -0.26163082 189.69616354 -0.27961095 203.88030434 -0.28280324 C211.84072882 -0.28496532 219.80102682 -0.29366945 227.76141357 -0.31926441 C234.54295428 -0.34101891 241.32433777 -0.34899864 248.10590941 -0.33929763 C251.56265162 -0.33476636 255.0190698 -0.33656982 258.47576714 -0.35605907 C262.23324098 -0.37379438 265.98990045 -0.3666624 269.74737549 -0.35352612 C270.82639507 -0.36449536 271.90541466 -0.37546461 273.01713181 -0.38676625 C285.99071974 -0.27774815 295.45606781 3.9813555 304.80914307 12.69672108 C313.60703781 22.22777372 317.38679415 31.68699052 317.2996521 44.59380054 C317.30221537 45.99322158 317.30221537 45.99322158 317.30483043 47.42091376 C317.30811564 50.53628464 317.29713753 53.6514385 317.28619385 56.76678944 C317.28562952 59.00424666 317.28594671 61.24170425 317.28707886 63.47916126 C317.28765255 69.54676755 317.27589551 75.61429472 317.26193094 81.68188262 C317.24942636 88.02533075 317.2482533 94.36878071 317.24588013 100.71223927 C317.2403707 111.35722858 317.22787923 122.00218665 317.21002197 132.64716053 C317.19165166 143.60939864 317.1775008 154.57162887 317.16900635 165.53387928 C317.1684809 166.21008821 317.16795545 166.88629714 317.16741408 167.58299726 C317.16480393 170.97548694 317.16227653 174.36797668 317.15979028 177.76046646 C317.13907161 205.8850715 317.10370907 234.00964448 317.05914307 262.13422108 C318.08956726 262.26771961 319.11999146 262.40121815 320.18164062 262.53876209 C321.54674419 262.71762863 322.91183551 262.89658864 324.2769165 263.07562733 C324.95451019 263.16316273 325.63210388 263.25069813 326.33023071 263.34088612 C346.19856857 265.95756631 364.24285734 274.72129939 379.05914307 288.13422108 C380.09039307 288.91797108 381.12164307 289.70172108 382.18414307 290.50922108 C402.86713817 309.39369487 413.6928936 336.86149127 415.24273682 364.39593983 C415.78058002 390.11750015 407.70048216 415.37620507 391.05914307 435.13422108 C390.35015869 435.99402576 389.64117432 436.85383045 388.91070557 437.73968983 C372.77048029 456.53110735 348.15466335 471.0914477 323.05914307 473.13422108 C311.74591934 473.60343312 300.3784247 473.59762327 289.09519386 472.6299839 C282.60726572 472.12683857 276.17883151 472.00663171 269.67422485 472.04088306 C268.49889903 472.0428509 267.3235732 472.04481874 266.11263144 472.04684621 C262.89096355 472.05317308 259.66934896 472.06401641 256.44770145 472.07679164 C252.95757995 472.08944643 249.46744649 472.09601841 245.97731018 472.10319996 C239.94141037 472.11626358 233.90552683 472.13259307 227.86964035 472.15075207 C218.32178614 472.17908572 208.77392746 472.19565913 199.2260437 472.21022511 C195.95243639 472.21534814 192.67882917 472.22052226 189.40522194 472.22569466 C188.17844454 472.2276237 188.17844454 472.2276237 186.92688375 472.22959172 C177.63893595 472.24429444 168.35099183 472.26078494 159.06304932 472.27850819 C157.79094506 472.2809303 157.79094506 472.2809303 156.49314173 472.28340135 C142.73736952 472.30996102 128.98164592 472.34773078 115.22591011 472.38869675 C101.07657017 472.4304743 86.92725594 472.45686917 72.77786028 472.46990472 C64.0638916 472.47848253 55.3501321 472.4994503 46.63623728 472.53653345 C40.66523041 472.56086526 34.69431228 472.57049938 28.72325657 472.56871339 C25.28276404 472.56813746 21.84260814 472.57399621 18.40218925 472.59758472 C14.66457314 472.61979603 10.92774812 472.61715783 7.19009399 472.60851002 C6.11430065 472.6208435 5.0385073 472.63317699 3.93011415 472.64588422 C-8.88357885 472.55300065 -19.19759821 467.49071306 -28.62835693 459.00922108 C-36.18517129 451.10092698 -40.18551543 439.85366874 -40.19812584 429.05945778 C-40.20163191 428.37962655 -40.20513799 427.69979533 -40.20875031 426.99936315 C-40.21803022 424.72870681 -40.2131499 422.45830887 -40.20828247 420.1876421 C-40.21202046 418.54023076 -40.21662258 416.89282119 -40.22201312 415.24541444 C-40.23424029 410.72374734 -40.23398297 406.20215425 -40.23162436 401.6804744 C-40.23121612 396.80164681 -40.24225609 391.92284292 -40.2517395 387.04402637 C-40.26834928 377.48708998 -40.27384905 367.93017826 -40.27496426 358.37322865 C-40.27591481 350.60366216 -40.28002545 342.83410382 -40.28636551 335.06453991 C-40.30397839 313.03166941 -40.31320439 290.9988184 -40.31170456 268.96594081 C-40.31162465 267.77825308 -40.31154474 266.59056536 -40.3114624 265.36688709 C-40.31138064 264.17774742 -40.31129888 262.98860775 -40.31121464 261.76343354 C-40.31040188 242.49523638 -40.32953692 223.22711741 -40.35773914 203.95894287 C-40.38647494 184.16988058 -40.40027902 164.38085642 -40.39855158 144.59177274 C-40.39788789 133.48361292 -40.40337107 122.37553507 -40.42490768 111.26739407 C-40.44312869 101.80880257 -40.44745927 92.35033019 -40.43388884 82.89172874 C-40.42736368 78.06795034 -40.42722569 73.2444004 -40.44459534 68.42064381 C-40.46035116 63.99949518 -40.45743686 59.57875567 -40.44002707 55.15761688 C-40.43696268 53.56340867 -40.44056832 51.96916973 -40.45174722 50.37499777 C-40.53951221 36.96454639 -38.43797206 25.82280628 -29.94085693 15.13422108 C-29.46261475 14.51933826 -28.98437256 13.90445545 -28.49163818 13.27093983 C-21.75110132 5.61355412 -10.21814832 0.02115719 0 0 Z M-9.94085693 30.13422108 C-13.95894809 35.45547693 -15.06539534 39.04900905 -15.0722847 45.63984871 C-15.07433733 46.30673189 -15.07638997 46.97361508 -15.0785048 47.66070685 C-15.0841913 49.91128072 -15.08271553 52.16179372 -15.08129883 54.41237354 C-15.08388152 56.03585862 -15.08689441 57.65934305 -15.09030223 59.2828266 C-15.09838675 63.75668814 -15.10016261 68.23053364 -15.1008997 72.70440161 C-15.10274772 77.52455396 -15.11029376 82.34469794 -15.11703491 87.16484547 C-15.13062881 97.71018778 -15.13664453 108.25552629 -15.14104557 118.8008759 C-15.14380607 125.38222888 -15.14804305 131.96358038 -15.15254974 138.54493237 C-15.16474352 156.75775561 -15.1750428 174.97057768 -15.17842484 193.18340492 C-15.1786444 194.34952902 -15.17886397 195.51565312 -15.17909019 196.71711431 C-15.17930846 197.88606676 -15.17952674 199.05501921 -15.17975163 200.25939447 C-15.1801951 202.62823316 -15.18064167 204.99707184 -15.18109131 207.36591053 C-15.18131274 208.54094238 -15.18153417 209.71597424 -15.18176231 210.92661311 C-15.18571159 229.9727736 -15.2031691 249.01889586 -15.22645083 268.06504158 C-15.25014707 287.60760151 -15.26262589 307.15014224 -15.26379275 326.69271678 C-15.26471046 337.66994666 -15.27048681 348.64712673 -15.28861237 359.62434292 C-15.30399001 368.97046365 -15.30914763 378.31651917 -15.30087426 387.66265015 C-15.29695953 392.43296614 -15.29793739 397.20315072 -15.31193161 401.97345066 C-15.3246212 406.33886967 -15.32351671 410.70405786 -15.3113409 415.06947633 C-15.3093753 416.65023884 -15.31250193 418.23101742 -15.32118526 419.8117573 C-15.33223271 421.95847628 -15.32482215 424.10437416 -15.31279373 426.25107002 C-15.31339082 427.44404396 -15.31398791 428.6370179 -15.31460309 429.86614257 C-14.59771386 436.13470275 -11.58024116 440.0471445 -6.94085693 444.13422108 C-0.62458538 448.66898014 6.23585209 448.27872392 13.70217896 448.25447559 C14.66694031 448.25533002 15.63170166 448.25618444 16.62569821 448.25706476 C19.85467144 448.25871035 23.0835926 448.25321324 26.31256104 448.24774647 C28.62868753 448.24746437 30.94481411 448.24762277 33.26094055 448.24818897 C39.54758267 448.24847607 45.83420573 448.24259342 52.12084341 448.23561502 C58.69118751 448.22936696 65.26153205 448.22877653 71.83187866 448.22758961 C82.85945974 448.22500046 93.88703414 448.21858618 104.91461182 448.20966053 C116.27170782 448.20047774 127.62880192 448.19340115 138.98590088 448.18915272 C139.6862685 448.18888999 140.38663612 448.18862727 141.108227 448.18835659 C144.62185993 448.18705152 148.13549287 448.18578782 151.64912581 448.18454468 C180.78580278 448.17418251 209.92247283 448.15649883 239.05914307 448.13422108 C238.1025766 447.01275452 237.14523251 445.89195121 236.18756104 444.77142811 C235.65452362 444.14720966 235.12148621 443.52299122 234.57229614 442.87985706 C232.83014695 440.87004168 231.0090953 438.94382709 229.18414307 437.00922108 C224.31906609 431.54065172 220.66434625 425.48267657 217.05914307 419.13422108 C216.23736572 417.69756092 216.23736572 417.69756092 215.39898682 416.23187733 C202.42607299 392.04452648 201.09270192 363.40431746 208.05523682 337.19281483 C212.36432475 323.13236528 219.30398973 310.14941505 229.05914307 299.13422108 C229.57476807 298.4767992 230.09039307 297.81937733 230.62164307 297.14203358 C244.0821894 280.38365339 264.72459247 270.5567679 285.05914307 265.13422108 C287.39316883 264.46998271 289.72659749 263.80363874 292.05914307 263.13422108 C292.19610562 234.62382122 292.30224582 206.11346282 292.36553504 177.60279823 C292.37303902 174.23460986 292.38080498 170.86642214 292.38873291 167.49823475 C292.39030677 166.82770722 292.39188064 166.15717969 292.39350219 165.46633314 C292.41958916 154.61824699 292.46688492 143.77035219 292.52205984 132.92237944 C292.57822756 121.78608974 292.61105918 110.64986538 292.62367404 99.51343244 C292.6314937 93.26038885 292.64986191 87.00777882 292.69352341 80.75487423 C292.73430048 74.86725992 292.74680144 68.9802571 292.73778915 63.09251499 C292.73943748 60.93382219 292.75134151 58.77510858 292.77437592 56.61653805 C292.80434224 53.66307393 292.7970129 50.7119018 292.78067017 47.75838184 C292.79814721 46.90913405 292.81562426 46.05988626 292.83363092 45.18490368 C292.73493848 38.56191984 290.38664995 34.11423042 286.05914307 29.13422108 C279.0695469 23.4375205 270.70731137 23.98760775 262.1791687 24.00050831 C261.08121109 23.99824275 259.98325349 23.9959772 258.85202444 23.99364299 C255.17186709 23.98731136 251.49174666 23.98813182 247.81158447 23.98895741 C245.1734656 23.98596541 242.53534962 23.9825911 239.89723206 23.97877979 C233.47443312 23.97048172 227.05164336 23.96772534 220.62883951 23.96716741 C215.40736766 23.96669189 210.18589884 23.96463535 204.96442795 23.96146679 C190.15460547 23.95266284 175.34479023 23.94804706 160.53496511 23.94879726 C159.33795371 23.9488572 159.33795371 23.9488572 158.11676025 23.94891834 C157.31777637 23.94895922 156.51879249 23.9490001 155.69559698 23.94904222 C142.7456847 23.94944871 129.7958015 23.93987774 116.84589763 23.92577998 C103.543161 23.91141256 90.24043854 23.90450998 76.93769395 23.90537375 C69.47154854 23.90570558 62.00543361 23.90296487 54.5392952 23.8921957 C48.18298362 23.88308594 41.82671635 23.88091939 35.47040106 23.88770512 C32.228906 23.89096782 28.9875135 23.88994691 25.74602318 23.88235188 C22.22830102 23.87464346 18.71080201 23.87926936 15.19308472 23.88698292 C14.17381508 23.88183935 13.15454543 23.87669579 12.10438883 23.87139636 C3.81100632 23.91157451 -3.28609063 24.68941228 -9.94085693 30.13422108 Z M258.05914307 305.13422108 C256.78297119 306.1493578 256.78297119 306.1493578 255.48101807 307.18500233 C239.34989187 320.71832445 230.53239452 340.5002375 228.05914307 361.13422108 C226.6155547 382.20505897 233.10130087 402.43691834 246.29351807 418.92718983 C248.47649576 421.41503165 250.71904107 423.79411908 253.05914307 426.13422108 C253.99500244 427.07008045 253.99500244 427.07008045 254.94976807 428.02484608 C271.92212749 443.85620654 292.55727654 448.82804648 315.02398682 448.44281483 C335.99869449 447.65384892 354.91517002 437.29660698 369.26226807 422.20843983 C381.10740541 408.53503129 388.8500901 391.27001556 390.05914307 373.13422108 C390.11070557 372.36722889 390.16226807 371.6002367 390.21539307 370.81000233 C391.0065547 348.75637166 382.5351758 328.92387279 368.37164307 312.38422108 C353.24827676 296.53847518 333.29139731 287.47896866 311.362854 286.7846117 C291.40188615 286.56460951 273.45830494 292.38926257 258.05914307 305.13422108 Z " fill="#000000" transform="translate(77.94085693359375,19.865778923034668)"/>
<path d="M0 0 C1.10045654 -0.00708481 2.20091309 -0.01416962 3.3347168 -0.02146912 C4.53226089 -0.0189917 5.72980499 -0.01651428 6.96363831 -0.01396179 C8.23244843 -0.01907272 9.50125854 -0.02418365 10.80851746 -0.02944946 C14.28168338 -0.04281855 17.75474034 -0.0434205 21.22792697 -0.04088616 C24.13048457 -0.03981507 27.03302026 -0.04470335 29.93557316 -0.04949158 C36.78462594 -0.06057946 43.63362387 -0.06102819 50.48268127 -0.05497742 C57.54174266 -0.0489369 64.60060476 -0.06125215 71.65963215 -0.08254749 C77.72688072 -0.10017595 83.79406592 -0.1061629 89.86133915 -0.10290974 C93.48215313 -0.10109878 97.10282492 -0.10371434 100.72361565 -0.11762428 C104.76208772 -0.13255892 108.80015531 -0.12322168 112.83863831 -0.11161804 C114.63191811 -0.12308365 114.63191811 -0.12308365 116.46142578 -0.13478088 C123.18438455 -0.09203825 127.92377433 0.32933539 133.27833557 4.76069641 C135.74254468 7.8733816 135.80061546 11.34491324 135.75099182 15.19429016 C135.27907113 18.61409897 133.67161155 20.68729111 131.46583557 23.26069641 C128.24123057 25.32638336 125.65227427 25.51707252 121.86210632 25.53485107 C120.15037735 25.54981377 120.15037735 25.54981377 118.40406799 25.56507874 C117.15617493 25.56574341 115.90828186 25.56640808 114.62257385 25.5670929 C113.30514191 25.57541641 111.98770996 25.58373993 110.63035583 25.59231567 C107.01872624 25.61424733 103.40718131 25.62305767 99.79549265 25.62814212 C97.53805318 25.63178709 95.28063583 25.63802785 93.0232048 25.64514351 C85.14485959 25.66963278 77.26658018 25.68268889 69.38819885 25.68623352 C62.04901176 25.68986905 54.7102428 25.71976664 47.37118351 25.7616381 C41.06616349 25.79634668 34.76128201 25.81178205 28.4561671 25.81247956 C24.69213655 25.81327215 20.92853206 25.82200198 17.16460037 25.85047722 C13.62345964 25.87666846 10.0830979 25.8788582 6.54190445 25.86282158 C4.62743994 25.86014491 2.71299053 25.88218343 0.79866028 25.90501404 C-8.59093772 25.82507221 -8.59093772 25.82507221 -12.26319885 22.86776733 C-15.62908528 19.00372609 -16.77720634 16.34987895 -16.47166443 11.26069641 C-15.78337633 6.96901765 -13.99475355 4.934788 -10.53416443 2.26069641 C-6.89874351 0.51562575 -4.01653796 0.0086463 0 0 Z " fill="#000000" transform="translate(122.53416442871094,371.7393035888672)"/>
<path d="M0 0 C1.14252731 -0.0112793 2.28505463 -0.02255859 3.46220398 -0.03417969 C4.70650177 -0.02608276 5.95079956 -0.01798584 7.23280334 -0.00964355 C8.55038132 -0.01665283 9.86795929 -0.02366211 11.22546387 -0.03088379 C14.83304377 -0.04909604 18.44016533 -0.04205818 22.0477531 -0.02936745 C25.82726811 -0.01922663 29.6067444 -0.02863632 33.38626099 -0.03491211 C39.73394297 -0.04218629 46.08143871 -0.03260789 52.42909241 -0.0135498 C59.76088588 0.00820929 67.09223424 0.00117393 74.42401689 -0.02085543 C80.72483494 -0.03902729 87.02551924 -0.04155879 93.32635504 -0.03110075 C97.08691643 -0.02487436 100.84726885 -0.02400625 104.6078167 -0.0372467 C108.80208923 -0.05098296 112.99559883 -0.0319265 117.18983459 -0.00964355 C119.05324493 -0.02178894 119.05324493 -0.02178894 120.95429993 -0.03417969 C127.32430186 0.02855164 131.48035265 0.11618189 136.27601624 4.50793457 C138.65566966 7.53658438 138.63563488 10.75544569 138.52992249 14.54699707 C138.02517781 18.44517903 136.15833936 20.73590183 133.27601624 23.25793457 C129.8081125 25.4253744 126.98111931 25.63593131 122.98908997 25.64837646 C121.89282791 25.65408661 120.79656586 25.65979675 119.66708374 25.66567993 C117.86233833 25.66735672 117.86233833 25.66735672 116.02113342 25.66906738 C114.12076576 25.67651474 114.12076576 25.67651474 112.18200684 25.68411255 C108.70455317 25.69722946 105.22711881 25.70368035 101.74964428 25.70812321 C99.57579731 25.71105565 97.40195559 25.71516083 95.22811127 25.71962738 C88.42309333 25.73330171 81.61808743 25.74296814 74.81305671 25.74682927 C66.96455058 25.75130717 59.11621886 25.76884274 51.26776576 25.79782987 C45.19715417 25.81947026 39.12659156 25.82953484 33.05594182 25.83087039 C29.43225857 25.83191692 25.80873929 25.83779197 22.18509674 25.85569 C18.13944988 25.87528341 14.09416629 25.87087235 10.04847717 25.86437988 C8.85341049 25.87359467 7.65834381 25.88280945 6.42706299 25.89230347 C-0.50589328 25.85744184 -6.2177691 25.66352777 -11.59898376 20.82043457 C-13.23371789 17.46014777 -13.83837519 14.211357 -13.72398376 10.50793457 C-11.36957253 3.7063021 -7.27086197 0.01107027 0 0 Z " fill="#000000" transform="translate(119.72398376464844,114.4920654296875)"/>
<path d="M0 0 C1.23808914 -0.00350464 2.47617828 -0.00700928 3.75178528 -0.01062012 C7.13617601 -0.01790024 10.5203213 -0.01621331 13.90469813 -0.00986195 C17.45417396 -0.00478377 21.00363959 -0.00949855 24.55311584 -0.01263428 C30.51394524 -0.01626911 36.47472502 -0.01148802 42.43554688 -0.00195312 C49.31564023 0.00892552 56.19561499 0.00540822 63.07570547 -0.00560594 C68.99351924 -0.01469857 74.91129742 -0.01595429 80.82911593 -0.0107286 C84.3588086 -0.0076191 87.88844564 -0.00717129 91.41813469 -0.01380157 C95.35562581 -0.02068165 99.29298544 -0.01113002 103.23046875 0 C104.39277008 -0.00404846 105.55507141 -0.00809692 106.75259399 -0.01226807 C119.98088992 0.05693923 119.98088992 0.05693923 125.05493164 4.19628906 C127.75588702 7.62442473 128.01645255 10.89739639 127.96899414 15.19238281 C127.49596968 18.57386846 125.82438094 20.6854499 123.67993164 23.25878906 C120.29376501 25.51623348 119.12793465 25.51447877 115.15849304 25.53294373 C114.0103009 25.54291885 112.86210876 25.55289398 111.67912292 25.56317139 C110.41828384 25.56383606 109.15744476 25.56450073 107.85839844 25.56518555 C106.51794981 25.57280661 105.17750555 25.58123401 103.83706665 25.59040833 C100.19438721 25.61236771 96.55179172 25.62115431 92.90905356 25.62623477 C90.63269094 25.62987715 88.35635034 25.63611663 86.07999611 25.64323616 C78.136817 25.66773725 70.19370324 25.68078363 62.25048828 25.68432617 C54.84940737 25.6879603 47.44874146 25.7178448 40.04778737 25.75973076 C33.69183262 25.79443978 27.33601533 25.80987473 20.97996646 25.81057221 C17.18462335 25.81136493 13.38970273 25.82010046 9.59445763 25.84856987 C6.02296349 25.87476109 2.45224174 25.87695081 -1.11930466 25.86091423 C-3.05047711 25.85823729 -4.98163458 25.88027726 -6.91267395 25.90310669 C-16.38323595 25.82316285 -16.38323595 25.82316285 -20.05583191 22.86585999 C-23.41383543 18.99941161 -24.56295145 16.34532617 -24.25756836 11.25878906 C-23.55930872 6.95556104 -21.8284311 4.90955203 -18.32006836 2.25878906 C-12.44372178 -0.46870938 -6.34058989 -0.02204679 0 0 Z " fill="#000000" transform="translate(130.320068359375,285.7412109375)"/>
<path d="M0 0 C1.15238663 -0.0112793 2.30477325 -0.02255859 3.49208069 -0.03417969 C4.74730026 -0.02608276 6.00251984 -0.01798584 7.29577637 -0.00964355 C8.63814553 -0.01506686 9.98050874 -0.02219069 11.32286072 -0.03088379 C14.96136295 -0.0490958 18.59941074 -0.04205873 22.23792076 -0.02936745 C26.04860011 -0.01922862 29.85924098 -0.02863557 33.66992188 -0.03491211 C40.06887791 -0.04218597 46.46764918 -0.03260778 52.86657715 -0.0135498 C60.26087326 0.0082186 67.65472819 0.00116703 75.04901361 -0.02085543 C81.40161998 -0.03901698 87.75409365 -0.04156411 94.10671759 -0.03110075 C97.89910455 -0.02486991 101.69128425 -0.02401873 105.48365784 -0.0372467 C109.04939959 -0.04881577 112.61457347 -0.04076109 116.18025398 -0.01766968 C118.11035001 -0.0098719 120.04049417 -0.02172956 121.9705658 -0.03417969 C123.12295242 -0.02290039 124.27533905 -0.01162109 125.46264648 0 C126.46182854 0.0015081 127.46101059 0.0030162 128.49047089 0.00457001 C132.56667592 0.75317551 135.08909711 2.98496639 137.54382324 6.25793457 C138.9575474 10.88466817 138.91855089 14.96167236 136.98132324 19.32043457 C133.77534507 23.32790728 131.25754689 24.70776244 126.23132324 25.50793457 C124.43075713 25.59923551 122.62737884 25.64260315 120.82450867 25.64837646 C119.75218491 25.65408661 118.67986115 25.65979675 117.57504272 25.66567993 C115.82551804 25.66735672 115.82551804 25.66735672 114.04064941 25.66906738 C112.80431259 25.67403229 111.56797577 25.67899719 110.29417419 25.68411255 C106.90972775 25.69619817 103.52534291 25.70367317 100.14088225 25.70812321 C98.02363493 25.71106048 95.90639295 25.71516649 93.78914833 25.71962738 C87.15659651 25.73329074 80.52405698 25.74296329 73.89149207 25.74682927 C66.25016588 25.7513085 58.60901869 25.76885488 50.96774691 25.79782987 C45.05079352 25.81948328 39.13389036 25.82953549 33.21689779 25.83087039 C29.68766688 25.83191572 26.15860451 25.83776543 22.62941551 25.85569 C18.68961246 25.87531213 14.75003131 25.87086713 10.81018066 25.86437988 C9.64990356 25.87359467 8.48962646 25.88280945 7.29418945 25.89230347 C0.33997854 25.85646921 -6.20585833 25.61103449 -11.70617676 20.82043457 C-13.90341078 16.03821935 -14.33633494 12.147836 -12.64367676 7.25793457 C-9.20919873 2.22070014 -6.13759049 0.00926369 0 0 Z " fill="#000000" transform="translate(119.7686767578125,200.4920654296875)"/>
<path d="M0 0 C2.17971368 1.77625706 3.98166538 3.35004951 5.25 5.88671875 C5.36117258 7.6776174 5.40921577 9.47258793 5.42700195 11.2668457 C5.44625481 12.95418571 5.44625481 12.95418571 5.46589661 14.6756134 C5.47328354 15.89641098 5.48067047 17.11720856 5.48828125 18.375 C5.496353 19.6254863 5.50442474 20.8759726 5.51274109 22.16435242 C5.52659195 24.81492833 5.53760536 27.46537944 5.54516602 30.1159668 C5.55622212 33.50562624 5.5906122 36.89462767 5.63033772 40.28405476 C5.66282306 43.52263785 5.66728463 46.7612788 5.67578125 50 C5.69328934 51.21472488 5.71079742 52.42944977 5.72883606 53.6809845 C5.72591049 54.81533432 5.72298492 55.94968414 5.7199707 57.1184082 C5.72583694 58.11387161 5.73170319 59.10933502 5.73774719 60.13496399 C5.11141397 63.66858849 3.70001541 65.31023692 1.25 67.88671875 C-1.64746094 69.85961914 -1.64746094 69.85961914 -4.984375 71.734375 C-5.58123108 72.07295029 -6.17808716 72.41152557 -6.79302979 72.76036072 C-8.69005416 73.83305668 -10.59484673 74.89104191 -12.5 75.94921875 C-13.76353138 76.66250782 -15.02655721 77.37669322 -16.2890625 78.09179688 C-35.32812219 88.83810806 -35.32812219 88.83810806 -41.75 87.88671875 C-45.68953005 85.99271392 -47.42463918 84.40526255 -49.75 80.69921875 C-50.97780886 76.01819747 -50.97800427 72.250215 -48.75 67.88671875 C-43.84492449 63.07642731 -37.954764 59.92631914 -32 56.57421875 C-31.04222656 56.02443359 -30.08445312 55.47464844 -29.09765625 54.90820312 C-22.01384899 50.88671875 -22.01384899 50.88671875 -19.75 50.88671875 C-19.76571045 49.68660156 -19.7814209 48.48648438 -19.79760742 47.25 C-19.85217456 42.76976309 -19.88644707 38.2895552 -19.91479492 33.80908203 C-19.92982075 31.8751124 -19.95024726 29.94117649 -19.97631836 28.00732422 C-20.01297591 25.21703739 -20.02978868 22.42720364 -20.04296875 19.63671875 C-20.05845261 18.78118408 -20.07393646 17.92564941 -20.08988953 17.04418945 C-20.09147117 11.3187698 -19.13469252 7.11161093 -16.75 1.88671875 C-12.19925968 -2.66402157 -5.61320809 -3.57090247 0 0 Z " fill="#000000" transform="translate(393.75,338.11328125)"/>
<path d="M0 0 C4.71878688 1.69164058 7.20582817 3.86048618 10 8 C11.45320819 12.35962456 11.81697376 16.55892177 10.3515625 20.9375 C8.02018059 25.56041115 4.91389887 28.32548679 0 30 C-5.29577171 30.90140795 -9.51401868 29.95666951 -14 27 C-18.44427138 22.07526685 -19.36172836 19.04605317 -19.27734375 12.5390625 C-18.72366713 7.47019202 -15.98848103 4.87354138 -12.3125 1.625 C-8.01904096 -0.48122519 -4.69600276 -0.69133254 0 0 Z " fill="#000000" transform="translate(304,284)"/>
<path d="M0 0 C4.62997025 2.33494189 7.37464321 5.43780191 9.0625 10.3515625 C9.90437354 14.76054971 9.41590034 18.19931979 7.3125 22.1640625 C4.5244476 26.11380339 2.61136825 27.83527308 -1.9375 29.3515625 C-6.57272786 29.89013183 -10.01656346 29.80334269 -14.25 27.7265625 C-17.89092677 24.50899931 -20.5288541 21.91185414 -21.3203125 16.953125 C-21.57694028 11.25598825 -20.81316331 7.76551238 -16.9375 3.3515625 C-12.1000521 -0.89952808 -6.1415824 -2.05544895 0 0 Z " fill="#000000" transform="translate(305.9375,198.6484375)"/>
<path d="M0 0 C4.51239458 2.59754079 7.19984979 4.9783298 8.8046875 10.09375 C9.56167797 15.49001063 8.85632619 19.4636775 5.8046875 24.09375 C0.87995435 28.53802138 -2.14925933 29.45547836 -8.65625 29.37109375 C-13.70104265 28.82004717 -16.29517614 26.08863756 -19.5703125 22.46875 C-21.77066263 17.89879203 -22.00620783 14.08075628 -21.1953125 9.09375 C-17.0052281 0.86322708 -9.0940852 -3.75414193 0 0 Z " fill="#000000" transform="translate(306.1953125,112.90625)"/>
</svg>
