<?xml version="1.0" encoding="UTF-8"?>
<svg version="1.1" xmlns="http://www.w3.org/2000/svg" width="512" height="512">
<path d="M0 0 C0.74994232 -0.00817749 1.49988464 -0.01635498 2.27255249 -0.02478027 C4.76396899 -0.04966155 7.25532791 -0.06616751 9.74682617 -0.08056641 C10.6003385 -0.08589008 11.45385082 -0.09121376 12.33322716 -0.09669876 C16.86097694 -0.12345687 21.38869905 -0.14281321 25.91650391 -0.15722656 C29.64592358 -0.17050313 33.37478794 -0.19823414 37.10400391 -0.23925781 C41.61921164 -0.28892429 46.13392009 -0.31339055 50.64938927 -0.32045364 C52.36080051 -0.32711679 54.0722028 -0.34220798 55.7834568 -0.36634445 C69.84461205 -0.55316762 81.47200701 1.39892021 92.50854492 10.96630859 C99.77876542 18.26212845 105.4379885 27.32172776 105.87988281 37.81689453 C105.86175537 39.04956055 105.84362793 40.28222656 105.82495117 41.55224609 C105.81085205 42.79973633 105.79675293 44.04722656 105.78222656 45.33251953 C105.76409912 46.27643555 105.74597168 47.22035156 105.72729492 48.19287109 C107.42551281 48.18595765 107.42551281 48.18595765 109.15803814 48.17890453 C136.73509413 48.06779248 164.31212101 47.98568813 191.88935375 47.93381023 C205.22564348 47.90805413 218.56175451 47.87295301 231.89794922 47.81567383 C243.52491 47.76575973 255.1517635 47.73356123 266.77882844 47.72242862 C272.9324572 47.71592351 279.08577912 47.70068823 285.23930931 47.66422081 C291.0382447 47.63013515 296.83674855 47.61984363 302.63577461 47.62733269 C304.75730107 47.62596376 306.87884284 47.61610686 309.00028229 47.59684372 C324.25949648 47.46515161 336.44223064 48.50622446 348.50854492 58.96630859 C352.20713162 62.67791848 355.2826973 66.55300048 357.72729492 71.19287109 C358.06048737 71.8212236 358.39367981 72.44957611 358.73696899 73.0969696 C363.20479594 83.13972824 362.3051547 93.99530165 362.25854492 104.75537109 C362.26124394 106.95532401 362.26512975 109.15527575 362.2701416 111.35522461 C362.27601733 115.95128815 362.26753577 120.54703936 362.2487793 125.14306641 C362.22599128 131.01036955 362.23912469 136.87694058 362.26306915 142.74421692 C362.27757916 147.28264806 362.27289729 151.82090795 362.26255798 156.35934448 C362.25990507 158.52171924 362.26310944 160.68410996 362.2724762 162.84646606 C362.3283047 179.35419087 360.99824487 191.29114268 349.72729492 204.19287109 C341.43428135 212.06956873 331.48134395 216.29952442 320.1640625 216.41748047 C319.40740295 216.42887054 318.65074341 216.44026062 317.87115479 216.45199585 C309.97043726 216.56250099 302.06880746 216.61004475 294.16748047 216.65283203 C290.42417496 216.67509717 286.68186798 216.71685702 282.93896484 216.77587891 C278.40844588 216.84716672 273.87886555 216.88369227 269.34781456 216.89595032 C267.62745414 216.90631537 265.90712008 216.92865494 264.18708229 216.96354675 C249.06917876 217.25435447 249.06917876 217.25435447 243.31445312 212.80053711 C242.09792588 211.61903566 240.89953642 210.4183237 239.72729492 209.19287109 C202.52270825 180.9517906 145.77918657 182.1690773 101.72900391 187.76098633 C81.89783087 190.56998474 62.74480934 195.79966912 46.25073242 207.45849609 C43.72729492 209.19287109 43.72729492 209.19287109 41.51635742 210.05224609 C38.80801939 211.77895942 38.69752551 214.1811473 37.72729492 217.19287109 C36.83071726 219.18422027 35.89694364 221.15909813 34.93334961 223.11889648 C34.37226501 224.26350845 33.81118042 225.40812042 33.23309326 226.5874176 C32.62229065 227.82203757 32.01097008 229.0564014 31.39916992 230.29052734 C30.93323803 231.23274549 30.93323803 231.23274549 30.45789337 232.19399834 C28.81509198 235.51531035 27.16746371 238.83417543 25.51586914 242.15112305 C23.8179977 245.563435 22.13706241 248.9838018 20.45985031 252.40630436 C19.16004679 255.05081231 17.84770559 257.68895301 16.53195953 260.32555962 C15.9069525 261.58343412 15.28661943 262.84364298 14.6712265 264.10624886 C8.20672923 277.34716914 8.20672923 277.34716914 2.72729492 280.19287109 C-1.31094855 280.85024662 -5.26297997 280.84313665 -9.34692383 280.79443359 C-10.5077095 280.80243988 -11.66849518 280.81044617 -12.86445618 280.81869507 C-16.56339635 280.84174472 -20.26123538 280.83229859 -23.96020508 280.81787109 C-27.6696791 280.81402932 -31.37866989 280.81739679 -35.08808899 280.83847046 C-37.39403875 280.85060413 -39.70012425 280.8478184 -42.00602722 280.82876587 C-43.04753433 280.83242157 -44.08904144 280.83607727 -45.16210938 280.83984375 C-46.07888962 280.83586578 -46.99566986 280.83188782 -47.94023132 280.82778931 C-50.31955658 281.01911122 -50.31955658 281.01911122 -52.06941223 282.49545288 C-54.08024971 285.33202934 -53.66911932 288.53677016 -53.58520508 291.88037109 C-53.56828613 292.96294189 -53.56828613 292.96294189 -53.55102539 294.06738281 C-53.35026945 301.85988331 -52.44496062 308.04208072 -47.27270508 314.19287109 C-42.82698268 317.50351544 -39.07651455 318.50664619 -33.64770508 319.56787109 C-26.54335828 321.11300521 -26.54335828 321.11300521 -23.96020508 323.75537109 C-21.65718026 328.44671795 -21.06108333 332.07454588 -22.27270508 337.19287109 C-24.18962075 340.58211657 -26.65967506 343.32151872 -29.27270508 346.19287109 C-47.04947291 366.99240916 -53.59850482 387.64399692 -53.57348633 414.75927734 C-53.57738084 416.52856038 -53.58171704 418.29784248 -53.58647156 420.06712341 C-53.59388298 423.74912574 -53.59367634 427.43103204 -53.58837891 431.11303711 C-53.58254183 435.83421133 -53.59964094 440.55499862 -53.62272358 445.27610874 C-53.63742467 448.9177429 -53.63833844 452.55928251 -53.63521385 456.20094109 C-53.63572728 457.9428987 -53.64096915 459.68486158 -53.65102577 461.42679024 C-53.66332443 463.85111364 -53.65664258 466.27466416 -53.64501953 468.69897461 C-53.65266327 469.41739532 -53.66030701 470.13581604 -53.66818237 470.87600708 C-53.63825445 473.69165934 -53.56938311 475.72378468 -52.0431366 478.13697815 C-49.75490599 479.50168869 -48.23537587 479.57346411 -45.57348633 479.58105469 C-44.6223999 479.59051117 -43.67131348 479.59996765 -42.69140625 479.60971069 C-41.66635986 479.603638 -40.64131348 479.59756531 -39.58520508 479.59130859 C-38.53115479 479.59417877 -37.47710449 479.59704895 -36.39111328 479.6000061 C-34.16185977 479.60204822 -31.93258841 479.59650808 -29.70336914 479.58398438 C-26.28597039 479.5679334 -22.86975442 479.58382868 -19.45239258 479.60302734 C-17.28832746 479.60104494 -15.12426308 479.59720132 -12.96020508 479.59130859 C-11.4226355 479.60041763 -11.4226355 479.60041763 -9.85400391 479.60971069 C-8.90291748 479.60025421 -7.95183105 479.59079773 -6.97192383 479.58105469 C-6.13491943 479.57866791 -5.29791504 479.57628113 -4.43554688 479.57382202 C-2.22369591 479.33676354 -2.22369591 479.33676354 -0.50106812 477.98802185 C1.14892876 475.57668819 1.0929563 473.99397231 1.08032227 471.08227539 C1.08580582 469.52001472 1.08580582 469.52001472 1.09140015 467.92619324 C1.0821048 466.80118912 1.07280945 465.676185 1.06323242 464.51708984 C1.07574658 462.13883192 1.08878377 459.76057669 1.10229492 457.38232422 C1.10622462 453.62970417 1.10228314 449.87735048 1.08764648 446.12475586 C1.07907425 442.50512882 1.10076745 438.88661868 1.12573242 435.26708984 C1.11238861 434.14815842 1.0990448 433.02922699 1.08529663 431.87638855 C1.16770174 423.18114967 1.16770174 423.18114967 4.13989258 419.50073242 C7.42970375 416.56634999 8.83540319 416.06824991 13.11085129 416.0558567 C14.50114898 416.04824489 14.50114898 416.04824489 15.91953349 416.0404793 C16.94460734 416.03998155 17.96968118 416.03948379 19.02581787 416.03897095 C20.10951825 416.03458869 21.19321864 416.03020644 22.30975842 416.02569139 C25.96554052 416.01226494 29.62129848 416.00611592 33.27709961 416 C35.88831696 415.99210211 38.49953321 415.98383336 41.11074829 415.97521973 C48.964656 415.95068427 56.81857006 415.9360669 64.67250431 415.92315966 C66.89022639 415.91944856 69.10794784 415.91547526 71.32566929 415.91140699 C85.09276138 415.88617131 98.85985445 415.86411475 112.62696457 415.85167885 C115.81665806 415.84874907 119.00635151 415.84578742 122.19604492 415.84277344 C122.98884359 415.84202739 123.78164225 415.84128134 124.59846511 415.84051268 C137.44334033 415.82785717 150.28807717 415.79463223 163.13288769 415.7529716 C176.31570558 415.71056465 189.49845262 415.68698525 202.68133855 415.68175828 C210.08496334 415.67834274 217.48837191 415.66657098 224.89192963 415.63365555 C231.85554556 415.60274709 238.81877852 415.59723125 245.78245163 415.60903931 C248.34068836 415.60926079 250.89894216 415.60089461 253.45711899 415.58338547 C256.94548386 415.56080624 260.43246691 415.56893821 263.9208374 415.58486938 C264.93698836 415.5709873 265.95313932 415.55710521 267.00008273 415.54280245 C271.53554207 415.59395876 274.7241031 415.69241798 278.34019852 418.6058712 C281.55992192 422.09522507 281.85264339 423.61329658 281.88500977 428.23754883 C281.90040298 429.8144474 281.90040298 429.8144474 281.91610718 431.42320251 C281.92340851 432.56277908 281.93070984 433.70235565 281.93823242 434.87646484 C281.96629446 437.27165405 281.99495888 439.66683625 282.02416992 442.06201172 C282.06550325 445.85213068 282.10237639 449.64211811 282.12866211 453.43237305 C282.15618039 457.08068046 282.20204711 460.72838689 282.25073242 464.37646484 C282.25561172 466.08279335 282.25561172 466.08279335 282.2605896 467.82359314 C282.2854393 469.40521996 282.2854393 469.40521996 282.31079102 471.01879883 C282.31887787 471.94764389 282.32696472 472.87648895 282.33529663 473.83348083 C282.56159928 476.22253648 282.56159928 476.22253648 283.95962524 477.99198914 C286.2476901 479.54640614 287.66923176 479.57319209 290.42651367 479.58105469 C291.3776001 479.59051117 292.32868652 479.59996765 293.30859375 479.60971069 C294.33364014 479.603638 295.35868652 479.59756531 296.41479492 479.59130859 C297.46884521 479.59417877 298.52289551 479.59704895 299.60888672 479.6000061 C301.83814023 479.60204822 304.06741159 479.59650808 306.29663086 479.58398438 C309.71402961 479.5679334 313.13024558 479.58382868 316.54760742 479.60302734 C318.71167254 479.60104494 320.87573692 479.59720132 323.03979492 479.59130859 C324.06484131 479.59738129 325.0898877 479.60345398 326.14599609 479.60971069 C327.09708252 479.60025421 328.04816895 479.59079773 329.02807617 479.58105469 C329.86508057 479.57866791 330.70208496 479.57628113 331.56445312 479.57382202 C333.75129262 479.32075999 333.75129262 479.32075999 335.49772644 478.13697815 C337.38750715 475.14899004 337.13604511 472.12350174 337.09960938 468.69897461 C337.10326004 467.9375264 337.10691071 467.17607819 337.110672 466.39155579 C337.1187916 463.86807082 337.10514472 461.34522579 337.09057617 458.82177734 C337.09005725 457.06119283 337.09057619 455.30060774 337.09208679 453.5400238 C337.09199697 449.84194328 337.08155714 446.14408029 337.06347656 442.44604492 C337.04093876 437.73564406 337.04021712 433.02556523 337.04699421 428.31512547 C337.05036049 424.6731029 337.043652 421.0311519 337.03386497 417.38914299 C337.03004702 415.65463576 337.02885044 413.92012051 337.03045082 412.18560982 C337.03462499 385.09533536 328.97674949 364.04873562 310.67260742 343.93505859 C307.30725192 340.0561147 305.25889963 337.23852516 304.97729492 332.00537109 C305.31455829 328.31833941 305.96377772 325.18221249 308.64135742 322.42724609 C312.71848998 320.01456091 317.44536425 319.22032361 322.03588867 318.24755859 C326.57050581 316.9519537 330.09928045 315.14648845 333.15307617 311.48193359 C336.55275974 305.10191069 336.92479094 299.12622389 336.97729492 292.00537109 C337.00823242 290.93899414 337.00823242 290.93899414 337.03979492 289.85107422 C337.12573801 285.9418203 337.12573801 285.9418203 335.52619934 282.49105835 C333.11486407 280.75090769 331.57705699 280.82699857 328.61669922 280.83984375 C327.57519211 280.83618805 326.533685 280.83253235 325.46061707 280.82876587 C323.77311089 280.84270889 323.77311089 280.84270889 322.05151367 280.85693359 C319.67325574 280.84441944 317.29500052 280.83138224 314.91674805 280.81787109 C311.16412799 280.81394139 307.41177431 280.81788288 303.65917969 280.83251953 C300.03955265 280.84109177 296.42104251 280.81939857 292.80151367 280.79443359 C291.12311653 280.81444931 291.12311653 280.81444931 289.41081238 280.83486938 C280.71409055 280.75245022 280.71409055 280.75245022 277.13232422 277.90991211 C273.95603273 274.32155073 271.95337677 270.78257343 269.85229492 266.50537109 C269.45010742 265.75320313 269.04791992 265.00103516 268.63354492 264.22607422 C265.83851696 258.64077175 264.66210468 253.43223674 265.72729492 247.19287109 C267.4291589 244.07912555 269.50631377 241.80336167 272.72729492 240.19287109 C277.76184772 239.55902452 281.56880592 239.5371226 286.03979492 242.06787109 C288.52533819 244.50123944 289.88504 247.27666749 291.39526367 250.38818359 C292.05498169 251.73807373 292.05498169 251.73807373 292.72802734 253.11523438 C293.05778564 253.80085449 293.38754395 254.48647461 293.72729492 255.19287109 C294.59600723 255.19500862 294.59600723 255.19500862 295.48226929 255.19718933 C301.55058184 255.21698934 307.61790238 255.2714817 313.68579102 255.34545898 C315.94548405 255.36855003 318.20528336 255.38301365 320.46508789 255.38842773 C323.72763619 255.3977822 326.98853339 255.43891645 330.25073242 255.48583984 C331.24906097 255.4819072 332.24738953 255.47797455 333.27597046 255.47392273 C341.25221648 255.63708824 347.92667542 257.68008261 353.87973022 263.18229675 C361.71706589 271.46092052 362.26118495 279.58477397 362.22827148 290.53320312 C362.2273059 292.79217874 362.26884211 295.04767168 362.31323242 297.30615234 C362.42220404 310.38023313 359.48981271 320.94489405 350.79760742 331.09130859 C347.99024364 333.94104768 345.11618253 336.07481634 341.72729492 338.19287109 C342.37368505 342.06197772 344.22957533 344.74752926 346.35229492 348.00537109 C349.33520868 352.73619134 352.05771268 357.52428206 354.47729492 362.56787109 C355.00838867 363.66873047 355.53948242 364.76958984 356.08666992 365.90380859 C361.76235778 379.92965462 362.33798232 393.0057093 362.29370117 407.96240234 C362.29894803 410.13661462 362.30522836 412.31082463 362.31248474 414.48503113 C362.32282834 419.01430066 362.31841068 423.54325476 362.30371094 428.07250977 C362.28646678 433.85695537 362.3101203 439.64041279 362.34520054 445.42474842 C362.36721636 449.90395095 362.36572395 454.38291805 362.35743523 458.86215782 C362.35661928 460.99466733 362.36341394 463.12719473 362.37820625 465.25965309 C362.51222357 488.0556092 362.51222357 488.0556092 354.73756409 496.30378723 C346.44969976 504.33366409 338.49060616 504.66849238 327.39526367 504.66162109 C325.99432577 504.66873509 324.59339074 504.67643587 323.19245911 504.68469238 C320.26315201 504.69809617 317.33411422 504.69972523 314.40478516 504.69384766 C310.67587525 504.68796305 306.94827255 504.7185084 303.21961498 504.75896454 C300.32738959 504.78499084 297.43547246 504.78770548 294.54314613 504.78407288 C293.16978999 504.78575104 291.79641756 504.7952662 290.42317772 504.81321716 C280.76688741 504.92554417 272.88231765 503.98685953 265.58757019 497.20300293 C250.72722937 481.6205761 257.72729492 462.05435128 257.72729492 440.19287109 C181.16729492 440.19287109 104.60729492 440.19287109 25.72729492 440.19287109 C25.72729492 454.71287109 25.72729492 469.23287109 25.72729492 484.19287109 C21.15126969 493.34492156 17.50408031 499.61449169 8.08996582 503.54566956 C2.68468621 505.02632659 -3.03786404 504.66506863 -8.60473633 504.66162109 C-10.00567423 504.66873509 -11.40660926 504.67643587 -12.80754089 504.68469238 C-15.73684799 504.69809617 -18.66588578 504.69972523 -21.59521484 504.69384766 C-25.32412475 504.68796305 -29.05172745 504.7185084 -32.78038502 504.75896454 C-35.67261041 504.78499084 -38.56452754 504.78770548 -41.45685387 504.78407288 C-42.83021001 504.78575104 -44.20358244 504.7952662 -45.57682228 504.81321716 C-55.23311259 504.92554417 -63.11768235 503.98685953 -70.41242981 497.20300293 C-76.99913847 490.29623632 -78.72441743 483.83316987 -78.67675781 474.54833984 C-78.68362106 473.60580856 -78.69048431 472.66327728 -78.69755554 471.69218445 C-78.71579607 468.58809156 -78.71198709 465.48450591 -78.70629883 462.38037109 C-78.71086457 460.20670408 -78.71617131 458.0330385 -78.72218323 455.859375 C-78.73111099 451.30332581 -78.72869802 446.74745189 -78.71875 442.19140625 C-78.70730864 436.38942235 -78.72739949 430.58805147 -78.75666714 424.78614807 C-78.77513925 420.29388661 -78.77471404 415.80176873 -78.76902962 411.30947876 C-78.76887749 409.17273097 -78.77483084 407.03597276 -78.78732109 404.89926147 C-78.86860944 388.70257124 -77.26754483 375.08785237 -69.96020508 360.38037109 C-69.57356689 359.57921875 -69.18692871 358.77806641 -68.78857422 357.95263672 C-66.14731961 352.60606419 -63.18632221 347.70222618 -59.48754883 343.00537109 C-57.994323 341.14119777 -57.994323 341.14119777 -58.27270508 338.19287109 C-60.04130892 336.62613291 -60.04130892 336.62613291 -62.33520508 335.13037109 C-70.7530047 328.81702137 -75.77433616 320.36677209 -78.27270508 310.19287109 C-78.77653085 305.24110704 -78.89190168 300.35990657 -78.84912109 295.38598633 C-78.83519891 293.12937201 -78.86950285 290.87687554 -78.9074707 288.62060547 C-78.95877108 279.15275647 -78.00162625 271.25712737 -71.28271484 264.06176758 C-63.88808085 256.97552267 -57.00638063 255.74365956 -47.08911133 255.68115234 C-46.0336058 255.66320114 -44.97810028 255.64524994 -43.89060974 255.62675476 C-40.5388481 255.5728275 -37.18722746 255.53881193 -33.83520508 255.50537109 C-31.55458658 255.47218257 -29.27398664 255.43769149 -26.9934082 255.40185547 C-21.41996697 255.31711121 -15.84650708 255.24868721 -10.27270508 255.19287109 C-9.92937637 254.48622818 -9.58604767 253.77958527 -9.23231506 253.05152893 C-5.97187621 246.34929708 -2.69360091 239.65622727 0.60437679 232.9723978 C2.29874574 229.53696199 3.98634694 226.09855461 5.65820312 222.65209961 C7.27601028 219.3177174 8.91195141 215.99279531 10.56012154 212.67332268 C11.1815614 211.41398707 11.79672549 210.15153176 12.40504265 208.88580513 C22.20326081 188.53206688 40.52425683 177.95690079 61.16088867 170.56787109 C69.40888402 167.75459463 77.73706367 165.60462179 86.28979492 163.94287109 C87.06661621 163.79180908 87.8434375 163.64074707 88.64379883 163.48510742 C91.33247359 163.0001613 94.02351469 162.58560016 96.72729492 162.19287109 C98.57049316 161.92470581 98.57049316 161.92470581 100.45092773 161.65112305 C112.89423005 159.99027389 125.29911114 159.85361782 137.83813477 159.87719727 C141.32624906 159.88034757 144.81350397 159.85683976 148.30151367 159.83154297 C180.00402916 159.74290254 212.38589182 163.85232733 240.85229492 178.63037109 C241.82706787 179.13250122 241.82706787 179.13250122 242.8215332 179.64477539 C245.78011093 181.25919705 248.35195737 182.84159987 250.82647705 185.15745544 C257.75743965 191.60165801 263.07681316 192.31133056 272.32885742 192.04443359 C273.60530121 192.03785736 274.881745 192.03128113 276.1968689 192.02450562 C278.88338661 192.00373881 281.56441645 191.9685784 284.24975586 191.90625 C287.67017642 191.82694476 291.08919565 191.7909921 294.51043129 191.77163124 C297.80425966 191.75157982 301.09774149 191.71115129 304.39135742 191.66943359 C305.60924957 191.65465973 306.82714172 191.63988586 308.0819397 191.62466431 C316.8518803 191.42861794 324.72788365 191.07873967 331.72729492 185.19287109 C336.60226022 178.79155883 336.87748805 172.06046043 336.87255859 164.29492188 C336.87591721 163.52661041 336.87927582 162.75829895 336.88273621 161.96670532 C336.89219287 159.44051472 336.8941866 156.91439077 336.89526367 154.38818359 C336.89847976 152.62230401 336.9018441 150.85642469 336.90534973 149.09054565 C336.91132766 145.39369082 336.91319099 141.69685932 336.91259766 138 C336.91249607 133.27699244 336.92615035 128.55413533 336.94336987 123.83116341 C336.95452058 120.18504151 336.95651593 116.53895565 336.95598793 112.89281845 C336.95716333 111.15220496 336.96156029 109.4115904 336.9693203 107.6709938 C336.97918307 105.23042684 336.97621764 102.79018219 336.97021484 100.34960938 C336.97583435 99.63973877 336.98145386 98.92986816 336.98724365 98.19848633 C336.94078913 90.7176908 335.64417796 84.03997525 330.72729492 78.19287109 C324.0666045 73.12037449 316.95558338 73.04434185 308.95742798 73.03465271 C307.6511685 73.02724574 307.6511685 73.02724574 306.31851995 73.01968914 C303.40741686 73.00436005 300.49633574 72.99596597 297.58520508 72.98754883 C295.49567472 72.9779667 293.40614629 72.96795642 291.31661987 72.95755005 C285.64774681 72.93053124 279.97886544 72.90950528 274.3099637 72.88954806 C268.38422924 72.86766988 262.45852028 72.84029015 256.5328064 72.81349182 C245.31324173 72.76358974 234.09366289 72.71864168 222.87407053 72.67546946 C210.10027606 72.62607586 197.32650719 72.5711656 184.55273747 72.51578987 C158.27761383 72.40200795 132.00246564 72.29516064 105.72729492 72.19287109 C105.74469727 73.13751221 105.76209961 74.08215332 105.7800293 75.05541992 C105.79356445 76.30347412 105.80709961 77.55152832 105.82104492 78.83740234 C105.83844727 80.07079346 105.85584961 81.30418457 105.8737793 82.57495117 C105.43976636 93.2943473 99.4319429 102.77460102 91.78198242 110.04052734 C83.36961608 116.69889827 74.78706628 120.3221582 64.11645508 120.38574219 C63.35497665 120.39391968 62.59349823 120.40209717 61.8089447 120.41052246 C59.29475681 120.43528905 56.78062495 120.45186778 54.26635742 120.46630859 C53.40594219 120.47163227 52.54552696 120.47695595 51.65903854 120.48244095 C47.10692995 120.50913139 42.55484843 120.52852151 38.00268555 120.54296875 C34.23909261 120.55631973 30.47604035 120.5841991 26.71264648 120.625 C22.16274686 120.674322 17.61333837 120.69908856 13.06318283 120.70619583 C11.33203134 120.71290512 9.60089069 120.72811892 7.86989212 120.75208664 C5.44498924 120.7837537 3.02197971 120.78377384 0.59692383 120.77636719 C-0.11392868 120.79277252 -0.82478119 120.80917786 -1.55717468 120.82608032 C-7.18109979 120.75596112 -9.46297321 119.02910623 -13.27270508 115.19287109 C-14.47543327 112.78741471 -14.3734198 111.24290157 -14.33520508 108.56787109 C-14.32618164 107.75060547 -14.3171582 106.93333984 -14.30786133 106.09130859 C-14.29625977 105.46482422 -14.2846582 104.83833984 -14.27270508 104.19287109 C-14.97348175 104.20397415 -15.67425842 104.21507721 -16.39627075 104.22651672 C-23.01654274 104.3269092 -29.63660079 104.40293175 -36.25746346 104.45193195 C-39.66098764 104.47797133 -43.06388027 104.51326201 -46.46704102 104.57006836 C-50.38395497 104.6350375 -54.30061766 104.65909862 -58.21801758 104.68115234 C-59.43385529 104.70695877 -60.64969299 104.7327652 -61.90237427 104.75935364 C-71.33916253 104.76247782 -71.33916253 104.76247782 -75.02612305 101.78735352 C-78.54140949 97.72769811 -78.66245032 94.99011079 -78.63208008 89.74365234 C-78.05310474 85.63418605 -76.27355578 83.97937532 -73.27270508 81.19287109 C-70.65748723 79.88526217 -68.74157107 80.07289562 -65.81323242 80.0793457 C-64.10168472 80.079459 -64.10168472 80.079459 -62.3555603 80.07957458 C-61.11907745 80.08473587 -59.8825946 80.08989716 -58.60864258 80.09521484 C-57.34629791 80.09662979 -56.08395325 80.09804474 -54.78335571 80.09950256 C-51.42632209 80.10416032 -48.06935607 80.11314702 -44.71234131 80.12420654 C-41.28715612 80.13443339 -37.86196375 80.13905768 -34.43676758 80.14404297 C-27.71537523 80.15423926 -20.9941016 80.17381231 -14.27270508 80.19287109 C-14.27270508 66.99287109 -14.27270508 53.79287109 -14.27270508 40.19287109 C-18.3177832 40.25087891 -22.36286133 40.30888672 -26.53051758 40.36865234 C-29.76613596 40.40083178 -33.00170882 40.42793678 -36.23739624 40.45162201 C-39.64760716 40.47797164 -43.05719166 40.51315037 -46.46704102 40.57006836 C-50.38395497 40.6350375 -54.30061766 40.65909862 -58.21801758 40.68115234 C-59.43385529 40.70695877 -60.64969299 40.7327652 -61.90237427 40.75935364 C-71.33916253 40.76247782 -71.33916253 40.76247782 -75.02612305 37.78735352 C-78.54140949 33.72769811 -78.66245032 30.99011079 -78.63208008 25.74365234 C-78.05310474 21.63418605 -76.27355578 19.97937532 -73.27270508 17.19287109 C-70.65748723 15.88526217 -68.74157107 16.07289562 -65.81323242 16.0793457 C-64.10168472 16.079459 -64.10168472 16.079459 -62.3555603 16.07957458 C-61.11907745 16.08473587 -59.8825946 16.08989716 -58.60864258 16.09521484 C-57.34629791 16.09662979 -56.08395325 16.09804474 -54.78335571 16.09950256 C-51.42632209 16.10416032 -48.06935607 16.11314702 -44.71234131 16.12420654 C-41.28715601 16.13443339 -37.86196374 16.13900292 -34.43676758 16.14404297 C-27.71539465 16.15508871 -20.99405377 16.17183916 -14.27270508 16.19287109 C-14.30025879 15.58378906 -14.3278125 14.97470703 -14.35620117 14.34716797 C-14.38834717 13.14157227 -14.38834717 13.14157227 -14.42114258 11.91162109 C-14.44869629 11.11691406 -14.47625 10.32220703 -14.50463867 9.50341797 C-14.10800697 5.55213121 -12.09139814 3.87734068 -9.27270508 1.19287109 C-6.30061275 -0.29317507 -3.26059977 0.01953326 0 0 Z M9.72729492 24.19287109 C9.72729492 47.95287109 9.72729492 71.71287109 9.72729492 96.19287109 C18.14229492 96.23412109 26.55729492 96.27537109 35.22729492 96.31787109 C37.86922852 96.3360791 40.51116211 96.35428711 43.2331543 96.37304688 C45.34578244 96.37889247 47.45841285 96.38398787 49.57104492 96.38818359 C50.65289062 96.39841553 51.73473633 96.40864746 52.84936523 96.41918945 C61.39077386 96.4211467 68.92648903 95.93577385 75.72729492 90.19287109 C82.41959509 81.72801575 81.91376309 72.88246434 81.91259766 62.5078125 C81.91478173 60.33101775 81.93296573 58.15473254 81.9519043 55.97802734 C82.06919181 42.16689776 82.06919181 42.16689776 75.72729492 30.19287109 C67.63848834 23.79787444 59.72162886 24.0485782 49.76635742 24.09521484 C48.75017334 24.09622192 47.73398926 24.097229 46.68701172 24.0982666 C42.90876123 24.10347934 39.13052688 24.11744056 35.35229492 24.13037109 C22.66791992 24.16130859 22.66791992 24.16130859 9.72729492 24.19287109 Z " fill="#000000" transform="translate(114.272705078125,3.80712890625)"/>
<path d="M0 0 C3.93728735 0.81681164 5.69649866 2.57759951 8.41015625 5.5 C10.29833298 9.27635347 9.9082905 13.38721058 9.41015625 17.5 C8.10664835 21.38364084 6.28624829 24.92005317 4.37890625 28.5390625 C3.86839722 29.54593109 3.35788818 30.55279968 2.83190918 31.59017944 C1.20998737 34.77840777 -0.4392865 37.95151831 -2.08984375 41.125 C-3.19975955 43.29463114 -4.30785211 45.46519602 -5.4140625 47.63671875 C-8.11832323 52.93546421 -10.84513429 58.22210366 -13.58984375 63.5 C-12.70780777 63.50213753 -12.70780777 63.50213753 -11.80795288 63.50431824 C-5.67537069 63.5240387 0.4562193 63.57836249 6.58837891 63.65258789 C8.87541581 63.67575309 11.16255917 63.69016011 13.44970703 63.69555664 C16.74188465 63.70485658 20.03239124 63.74587274 23.32421875 63.79296875 C24.34319244 63.7890361 25.36216614 63.78510345 26.41201782 63.78105164 C31.0137245 63.87515651 34.37110525 63.9537187 38.04052734 66.91918945 C41.57183889 70.76521195 41.94164738 73.29418915 41.87506104 78.4024353 C40.88536959 84.99654527 37.408726 90.86083991 34.40234375 96.73828125 C33.67550483 98.19107513 32.95003354 99.64455397 32.2258606 101.09867859 C30.70998965 104.13162034 29.18061568 107.15721503 27.640625 110.17797852 C25.67385995 114.03764668 23.73772092 117.91171522 21.8109417 121.79147053 C20.31847715 124.79007656 18.81216443 127.78155155 17.30142593 130.77098656 C16.58246174 132.19676019 15.8672571 133.62443644 15.15600204 135.05407143 C14.15781416 137.05412546 13.14182219 139.04409745 12.12060547 141.0324707 C11.54768768 142.16368851 10.9747699 143.29490631 10.38449097 144.46040344 C7.73655384 148.53704785 4.71074677 151.90381038 -0.15234375 153.1640625 C-4.54190048 153.09371704 -7.65219962 152.95885163 -11.15234375 150.125 C-14.83871503 146.1550617 -14.99762242 143.61335764 -14.93383789 138.34014893 C-14.31184137 133.20470465 -11.94530963 128.98951542 -9.55859375 124.4609375 C-9.04808472 123.45406891 -8.53757568 122.44720032 -8.01159668 121.40982056 C-6.38967487 118.22159223 -4.740401 115.04848169 -3.08984375 111.875 C-1.97992795 109.70536886 -0.87183539 107.53480398 0.234375 105.36328125 C2.93863573 100.06453579 5.66544679 94.77789634 8.41015625 89.5 C7.52812027 89.49786247 7.52812027 89.49786247 6.62826538 89.49568176 C0.49568319 89.4759613 -5.6359068 89.42163751 -11.76806641 89.34741211 C-14.05510331 89.32424691 -16.34224667 89.30983989 -18.62939453 89.30444336 C-21.92157215 89.29514342 -25.21207874 89.25412726 -28.50390625 89.20703125 C-29.52287994 89.2109639 -30.54185364 89.21489655 -31.59170532 89.21894836 C-36.193412 89.12484349 -39.55079275 89.0462813 -43.22021484 86.08081055 C-46.75152639 82.23478805 -47.12133488 79.70581085 -47.05474854 74.5975647 C-46.06505709 68.00345473 -42.5884135 62.13916009 -39.58203125 56.26171875 C-38.85519233 54.80892487 -38.12972104 53.35544603 -37.4055481 51.90132141 C-35.88967715 48.86837966 -34.36030318 45.84278497 -32.8203125 42.82202148 C-30.85354745 38.96235332 -28.91740842 35.08828478 -26.9906292 31.20852947 C-25.49816465 28.20992344 -23.99185193 25.21844845 -22.48111343 22.22901344 C-21.76214924 20.80323981 -21.0469446 19.37556356 -20.33568954 17.94592857 C-19.33750166 15.94587454 -18.32150969 13.95590255 -17.30029297 11.9675293 C-16.72737518 10.83631149 -16.1544574 9.70509369 -15.56417847 8.53959656 C-11.54501454 2.3518733 -7.43097058 -0.35865921 0 0 Z " fill="#000000" transform="translate(258.58984375,227.5)"/>
</svg>
