<?xml version="1.0" encoding="UTF-8"?>
<svg version="1.1" xmlns="http://www.w3.org/2000/svg" width="512" height="512">
<path d="M0 0 C2.91088423 1.43847729 2.91088423 1.43847729 5.85546875 0.1484375 C6.82742188 -0.42519531 7.799375 -0.99882813 8.80078125 -1.58984375 C20.04557249 -8.11182267 33.04437946 -8.45218084 45.6640625 -6.25 C57.77096853 -2.87166574 67.564221 3.8979041 74.92578125 14.09765625 C81.02303636 25.09605422 82.74415632 36.27805098 80.1953125 48.640625 C76.35836339 60.89946964 70.41129912 72.5120007 64.92578125 84.09765625 C65.99828125 84.37351562 67.07078125 84.649375 68.17578125 84.93359375 C76.54941505 87.53290924 83.77017193 94.44665374 88.02734375 102.0703125 C90.43962646 107.74030409 91.00005512 113.48639664 89.234375 119.421875 C87.11553333 124.64362289 84.16640586 129.32955838 79.92578125 133.09765625 C79.26578125 133.09765625 78.60578125 133.09765625 77.92578125 133.09765625 C77.96058594 134.24878906 77.99539063 135.39992187 78.03125 136.5859375 C78.74892262 170.73700522 68.15246761 206.54964528 45.92578125 232.97265625 C42.81098409 236.76994976 42.07474967 240.01749927 41.36328125 244.8125 C40.14790976 251.16064573 34.94995298 255.48445315 29.92578125 259.09765625 C27.15031293 260.45852673 24.29226345 261.43245775 21.36328125 262.41015625 C14.73284165 264.79778936 9.13960209 267.60282201 3.35668945 271.60058594 C-4.24853042 276.75375332 -12.71627708 280.34502892 -21.07421875 284.09765625 C-18.57820649 298.6616781 -11.87920818 308.99093548 -2.65576172 320.15820312 C0.27363578 323.75053622 3.09079523 327.43071384 5.92578125 331.09765625 C9.72208609 335.98908873 13.52791164 340.87235624 17.36523438 345.73168945 C19.13644258 347.97750839 20.8979317 350.23084828 22.65869141 352.48486328 C23.92929624 354.10213024 25.21442336 355.7071233 26.5 357.3125 C32.52778033 365.00981047 36.66235205 371.75931536 36.27734375 381.76953125 C35.21548391 388.8014031 32.11979408 395.24238338 26.92578125 400.09765625 C19.20852194 405.73604145 11.23646291 406.19241725 1.92578125 405.09765625 C-8.66807087 402.38603432 -15.17967845 391.82683521 -21.29321289 383.515625 C-24.98116139 378.50845254 -28.8121173 373.65063099 -32.76171875 368.84765625 C-38.05967162 362.39852375 -43.14003978 355.82955934 -48.07421875 349.09765625 C-51.19746419 350.48394869 -53.31612582 352.09277196 -55.71875 354.51171875 C-56.39615234 355.19105469 -57.07355469 355.87039063 -57.77148438 356.5703125 C-58.46951172 357.28058594 -59.16753906 357.99085938 -59.88671875 358.72265625 C-60.57314453 359.40972656 -61.25957031 360.09679687 -61.96679688 360.8046875 C-65.92931988 364.80095006 -69.68950248 368.91418075 -73.3659668 373.17333984 C-76.13087178 376.28795769 -79.09890011 379.18581767 -82.07421875 382.09765625 C-85.84957251 385.82047817 -89.54841435 389.52295974 -92.94921875 393.59765625 C-97.50791482 398.94866977 -103.03432887 403.74383127 -110.07421875 405.09765625 C-119.27496372 405.81442817 -126.47715442 405.15696293 -133.82421875 399.34765625 C-138.96955385 394.62522541 -141.68881744 389.16088723 -142.34765625 382.21484375 C-142.38117188 381.14492188 -142.4146875 380.075 -142.44921875 378.97265625 C-142.49820313 377.91820312 -142.5471875 376.86375 -142.59765625 375.77734375 C-141.18078013 365.8169161 -134.92097837 359.30518111 -127.86328125 352.64453125 C-126.0427453 350.87262539 -124.22243999 349.10048252 -122.40234375 347.328125 C-119.55549371 344.58658686 -116.70297043 341.85123915 -113.84472656 339.12158203 C-99.9059643 325.76340078 -88.87575268 315.17189148 -87.07421875 295.09765625 C-88.35554687 294.98808594 -89.636875 294.87851562 -90.95703125 294.765625 C-100.22264452 293.93056149 -109.17763213 292.90459489 -118.2265625 290.68359375 C-121.15895993 290.08021979 -123.10463774 289.68186101 -126.07421875 290.09765625 C-128.25346278 291.85162686 -130.0611076 293.52479173 -131.96875 295.5390625 C-132.51979904 296.09955795 -133.07084808 296.66005341 -133.63859558 297.23753357 C-135.40014627 299.0336437 -137.1438231 300.84595485 -138.88671875 302.66015625 C-141.18022203 305.0202028 -143.48033365 307.37374547 -145.78125 309.7265625 C-146.3385379 310.2987149 -146.89582581 310.87086731 -147.47000122 311.46035767 C-150.84680094 314.90955837 -154.32222157 318.14057921 -158.0065918 321.26147461 C-162.92096283 325.62574247 -167.45801835 330.42161621 -172.07421875 335.09765625 C-183.9562691 347.13373318 -183.9562691 347.13373318 -190.2734375 352.52392578 C-193.35203781 355.21436201 -196.20630456 358.12378882 -199.07421875 361.03515625 C-199.65816406 361.62361328 -200.24210937 362.21207031 -200.84375 362.81835938 C-202.2562668 364.24245418 -203.66559685 365.66970875 -205.07421875 367.09765625 C-204.59082031 368.38736328 -204.59082031 368.38736328 -204.09765625 369.703125 C-201.8066332 377.30197625 -201.91342884 385.89850809 -205.609375 393.02734375 C-209.83914939 399.00542489 -214.95626347 403.25093234 -222.07421875 405.09765625 C-230.77680789 406.14682626 -237.8689033 405.25363379 -245.07421875 400.09765625 C-250.74581672 395.255169 -253.51677945 389.21194061 -254.3203125 381.83984375 C-254.44113782 377.76021251 -253.93116954 374.70842687 -252.51171875 370.89453125 C-251.85983615 368.53404118 -251.85983615 368.53404118 -252.07421875 366.09765625 C-254.40474026 362.41386651 -257.50984939 359.7176681 -260.76171875 356.84765625 C-262.43626082 355.30507886 -264.10697676 353.75833545 -265.7734375 352.20703125 C-266.52455811 351.53639648 -267.27567871 350.86576172 -268.04956055 350.17480469 C-272.47428272 345.63536947 -274.17410524 341.069399 -274.38671875 334.84765625 C-274.42410156 334.14125 -274.46148437 333.43484375 -274.5 332.70703125 C-273.02679519 323.6785834 -266.60706421 318.1119317 -260.32421875 312.03515625 C-259.45539063 311.17599609 -258.5865625 310.31683594 -257.69140625 309.43164062 C-253.94504998 305.74997369 -250.17506133 302.1373104 -246.1796875 298.7265625 C-239.95623269 293.36743288 -234.30995657 287.35985215 -228.56762695 281.49511719 C-210.34549954 262.91122485 -210.34549954 262.91122485 -198.26171875 261.72265625 C-191.50239294 261.93265472 -185.22958073 264.58984315 -180.44921875 269.34765625 C-179.66546875 270.25515625 -178.88171875 271.16265625 -178.07421875 272.09765625 C-174.59522717 270.70605962 -173.59369374 269.46514137 -172.07421875 266.09765625 C-172.68007812 265.62457031 -173.2859375 265.15148437 -173.91015625 264.6640625 C-193.73817526 249.0151798 -209.57559758 231.6877155 -221.07421875 209.09765625 C-221.39084473 208.48744629 -221.7074707 207.87723633 -222.03369141 207.24853516 C-241.06308623 170.23313269 -243.01748587 126.66313778 -230.8046875 87.2109375 C-217.60690639 46.91696183 -188.71411005 14.41154496 -151.2421875 -4.84375 C-104.50036137 -28.36226883 -44.89560614 -27.78165208 0 0 Z M-159.07421875 20.09765625 C-159.07421875 20.42765625 -159.07421875 20.75765625 -159.07421875 21.09765625 C-157.93146484 21.24460937 -157.93146484 21.24460937 -156.765625 21.39453125 C-144.52834889 23.16672105 -134.79798996 27.25652491 -126.68359375 36.87890625 C-119.92875161 46.19140707 -118.80341229 57.07256352 -120.5703125 68.23046875 C-122.96029537 78.78960213 -127.70307889 88.75987657 -137.01171875 94.84765625 C-142.20746796 98.04832312 -147.43413079 99.24747707 -153.44921875 99.91015625 C-159.04334354 100.72303251 -164.00297964 101.95780075 -168.07421875 106.09765625 C-168.96741694 108.03456656 -168.96741694 108.03456656 -169.07421875 110.09765625 C-166.56603197 114.91337487 -163.86781304 117.6001728 -159.07421875 120.09765625 C-155.38278767 120.66266493 -151.73635682 120.63141643 -148.0078125 120.6015625 C-146.9373317 120.61098373 -145.86685089 120.62040497 -144.76393127 120.63011169 C-141.34633236 120.65872106 -137.92942751 120.66184353 -134.51171875 120.66015625 C-100.37837856 120.6966625 -100.37837856 120.6966625 -90.01171875 127.41015625 C-87.52994111 129.11178085 -87.52994111 129.11178085 -85.07421875 130.09765625 C-83.00799002 129.52190388 -83.00799002 129.52190388 -81.07421875 128.09765625 C-80.19765625 127.61167969 -79.32109375 127.12570313 -78.41796875 126.625 C-76.52102517 125.56448346 -74.62519106 124.50197998 -72.73046875 123.4375 C-65.26230463 119.67047015 -55.21052531 120.03239848 -47.1171875 121.7109375 C-38.25960907 124.87734743 -31.16796188 131.3472376 -27.0078125 139.75390625 C-23.25736627 149.16925244 -23.30904263 158.66852837 -26.63671875 168.22265625 C-30.44797722 176.81506333 -36.30380892 182.33670397 -44.77734375 186.22265625 C-53.15600135 189.41452581 -63.53528793 189.55749021 -71.82421875 186.09765625 C-72.96117187 185.54078125 -72.96117187 185.54078125 -74.12109375 184.97265625 C-76.17382559 183.89323312 -76.17382559 183.89323312 -79.07421875 184.09765625 C-80.66802343 185.70364838 -80.66802343 185.70364838 -82.19921875 187.78515625 C-86.68652721 193.15849377 -92.1788677 196.67818152 -99.07421875 198.09765625 C-100.9315659 198.20937378 -102.7919413 198.2750979 -104.65234375 198.30859375 C-105.73128906 198.33695313 -106.81023437 198.3653125 -107.921875 198.39453125 C-110.17432042 198.44625216 -112.42694752 198.49062855 -114.6796875 198.52734375 C-125.10895128 198.80889871 -125.10895128 198.80889871 -134.0234375 203.81640625 C-135.49122752 207.00298383 -135.64658164 210.14945022 -135.88671875 213.59765625 C-136.93427669 224.08755311 -140.74859561 233.0338909 -148.57421875 240.33984375 C-153.60674603 243.87833949 -159.32986068 245.96772573 -165.07421875 248.09765625 C-161.90584009 251.5437607 -161.90584009 251.5437607 -158.09375 254.203125 C-153.65664378 253.97139992 -150.70855499 249.41146215 -147.81640625 246.33984375 C-144.49591085 242.57510459 -142.13748479 238.41037462 -139.73828125 234.015625 C-129.88992995 216.74633292 -112.69566467 206.65758665 -94.15625 201.10546875 C-92.79832642 200.75856865 -91.43741156 200.42323495 -90.07421875 200.09765625 C-89.33518311 199.91436768 -88.59614746 199.7310791 -87.8347168 199.54223633 C-81.77366435 198.23312445 -75.85459803 197.91419878 -69.6796875 197.78125 C-68.416726 197.74880188 -68.416726 197.74880188 -67.12825012 197.71569824 C-63.61364254 197.62711539 -60.10098797 197.53951987 -56.58520508 197.52124023 C-46.51725047 197.90355263 -46.51725047 197.90355263 -37.67333984 194.13452148 C-36.0650396 191.82323251 -36.0650396 191.82323251 -35.07836914 189.38818359 C-32.6183866 183.77681569 -26.99052545 180.25457853 -21.52734375 177.90234375 C-15.7897988 175.69620395 -10.64476826 175.74011623 -4.57421875 176.03515625 C6.57248009 176.53237917 15.26731214 175.35195943 24.0078125 167.98828125 C27.83272162 164.2179024 29.70517382 160.9255464 30.36328125 155.47265625 C29.85840858 151.57792426 28.72344601 148.89532101 25.92578125 146.09765625 C24.12087041 145.78375871 22.31475935 145.47556945 20.50390625 145.19799805 C5.72550817 142.91276084 -8.98561218 138.91573824 -19.07421875 127.09765625 C-22.63545302 121.76184083 -24.25439631 117.6023588 -23.88671875 111.22265625 C-23.83674356 106.37506295 -24.80524376 103.82065555 -28.07421875 100.09765625 C-31.43201531 97.1026561 -34.85974551 96.07222886 -39.13671875 94.78515625 C-53.3564906 90.2151282 -67.9403702 81.59422348 -75.28125 67.953125 C-77.97791544 61.64319355 -78.86755806 55.82267868 -77.07421875 49.09765625 C-73.10110514 39.88414279 -65.21342805 33.9162116 -56.14453125 30.16015625 C-42.4980959 25.4377257 -28.36109725 25.41892908 -14.07421875 25.09765625 C-13.40302326 23.64140175 -12.73740068 22.18257758 -12.07421875 20.72265625 C-11.70296875 19.91054687 -11.33171875 19.0984375 -10.94921875 18.26171875 C-9.94926862 16.17767192 -9.94926862 16.17767192 -10.07421875 14.09765625 C-54.78942862 -8.07511519 -117.65472769 -14.72954344 -159.07421875 20.09765625 Z M7.92578125 20.09765625 C3.11600072 26.16764128 0.15436947 32.2623166 0.92578125 40.09765625 C5.58994024 62.54743355 20.30396994 83.75216124 31.92578125 103.09765625 C35.86394315 98.57017321 38.68117331 93.55038858 41.61328125 88.34765625 C42.14002441 87.41679199 42.66676758 86.48592773 43.20947266 85.52685547 C44.79001289 82.7217439 46.36037824 79.91123959 47.92578125 77.09765625 C48.36712402 76.30584961 48.8084668 75.51404297 49.26318359 74.69824219 C61.39438499 54.07808099 61.39438499 54.07808099 63.53515625 31.1171875 C61.43458945 24.37113642 56.69993424 18.64485076 50.87109375 14.7109375 C48.91917134 13.68940612 46.99225754 12.85788432 44.92578125 12.09765625 C43.83265625 11.68515625 42.73953125 11.27265625 41.61328125 10.84765625 C29.32181889 8.3476978 16.92999389 10.93616479 7.92578125 20.09765625 Z M-185.51171875 41.72265625 C-187.37827328 44.23619165 -187.37827328 44.23619165 -189.07421875 47.09765625 C-189.87796608 48.18039858 -190.69382442 49.254222 -191.51953125 50.3203125 C-214.66794786 80.59665511 -224.73268283 118.53947093 -219.8203125 156.29296875 C-215.94844264 182.80414497 -204.93030164 206.4193947 -188.07421875 227.09765625 C-187.46525757 227.94154907 -187.46525757 227.94154907 -186.84399414 228.80249023 C-184.349275 232.1804245 -184.349275 232.1804245 -180.53125 233.5703125 C-177.69549209 233.13049776 -174.88506299 232.67868983 -172.07421875 232.09765625 C-171.18605469 231.94039062 -170.29789063 231.783125 -169.3828125 231.62109375 C-162.57879275 230.06292129 -158.84598674 226.91815616 -155.07421875 221.09765625 C-152.64597747 216.70710928 -151.9791145 212.69780314 -151.69921875 207.72265625 C-151.21932674 200.82180916 -148.92840995 194.71964207 -143.76953125 189.98046875 C-140.98318829 188.03406686 -138.33914111 186.70282558 -135.19921875 185.41015625 C-134.21179688 184.99378906 -133.224375 184.57742187 -132.20703125 184.1484375 C-124.87754205 181.69004274 -117.62551291 182.03873558 -110.01367188 182.3125 C-104.00009368 182.41825437 -99.83638867 181.59345339 -95.2109375 177.4140625 C-94.49357422 176.54587891 -94.49357422 176.54587891 -93.76171875 175.66015625 C-93.27058594 175.08394531 -92.77945313 174.50773438 -92.2734375 173.9140625 C-90.88562165 171.81199614 -90.30977111 170.61762211 -90.07421875 168.09765625 C-90.39261719 167.01613281 -90.71101562 165.93460937 -91.0390625 164.8203125 C-92.17587633 160.73207258 -91.98611127 157.74080698 -91.63671875 153.53515625 C-91.42947196 148.27571552 -91.42947196 148.27571552 -93.859375 143.86328125 C-96.23418782 142.2615711 -98.40082738 141.1236826 -101.07421875 140.09765625 C-102.2947998 139.58187012 -102.2947998 139.58187012 -103.54003906 139.05566406 C-108.44236874 137.72679271 -113.1181955 137.79962119 -118.17578125 137.7890625 C-120.38021083 137.76388965 -122.58463785 137.73849183 -124.7890625 137.71289062 C-128.23811093 137.68425868 -131.68711469 137.66022245 -135.13623047 137.64135742 C-138.48298609 137.61950674 -141.82921275 137.58004274 -145.17578125 137.5390625 C-146.18871246 137.53894669 -147.20164368 137.53883087 -148.24526978 137.53871155 C-158.93211069 137.39336647 -169.24739761 135.88953623 -177.07421875 128.09765625 C-183.47215063 120.81429629 -185.56946277 114.99656485 -185.3828125 105.2578125 C-184.8060672 99.35164856 -182.19482605 95.96506251 -177.94921875 91.91015625 C-170.51118924 86.00994719 -161.74585398 84.45967357 -152.58984375 83.00390625 C-147.59194146 81.7155581 -144.26777474 79.46172024 -140.88671875 75.59765625 C-137.0993534 68.28412316 -134.92889851 60.54427787 -137.09765625 52.41796875 C-139.68786938 46.26362235 -143.50764422 42.63197691 -149.5390625 39.921875 C-159.14864697 36.30000412 -177.55091728 34.0061393 -185.51171875 41.72265625 Z M-58.07421875 51.09765625 C-58.71359375 51.55140625 -59.35296875 52.00515625 -60.01171875 52.47265625 C-61.30457151 54.14971561 -61.30457151 54.14971561 -61.19921875 56.78515625 C-58.03119307 66.11323187 -48.70528762 72.31086159 -40.32421875 76.72265625 C-36.60735933 78.52390351 -32.89603617 79.82725117 -28.94921875 81.03515625 C-24.0906184 82.55893322 -20.63194245 84.50269822 -16.79296875 87.828125 C-14.72708298 89.35406336 -13.65845957 89.96751463 -11.07421875 90.09765625 C-7.95894389 88.68489552 -7.95894389 88.68489552 -4.82421875 86.66015625 C-3.7465625 86.00144531 -2.66890625 85.34273437 -1.55859375 84.6640625 C-0.73875 84.14714844 0.08109375 83.63023437 0.92578125 83.09765625 C0.68456543 82.60587891 0.44334961 82.11410156 0.19482422 81.60742188 C-4.64273978 71.69766167 -9.16034403 61.80241954 -12.8828125 51.41796875 C-13.8884388 48.61540364 -14.9598204 45.85793071 -16.07421875 43.09765625 C-20.01145944 42.97978837 -23.94823636 42.90985451 -27.88671875 42.84765625 C-28.98693359 42.81414062 -30.08714844 42.780625 -31.22070312 42.74609375 C-41.31276402 42.62701339 -50.02770577 44.86160869 -58.07421875 51.09765625 Z M-3.84375 105.58984375 C-5.84830098 107.81969008 -7.00612356 109.57282502 -7.39453125 112.56640625 C-6.885399 116.58979284 -4.64984967 117.9281075 -1.61328125 120.390625 C12.14187605 129.63832306 30.39478821 131.39850345 46.4296875 128.33984375 C55.91817516 126.22802692 64.27332644 123.55646922 70.92578125 116.09765625 C71.42078125 115.60265625 71.42078125 115.60265625 71.92578125 115.09765625 C72.68132445 112.35639975 72.68132445 112.35639975 71.92578125 109.09765625 C67.30411821 103.28370248 61.83814972 101.16100804 54.92578125 99.09765625 C54.58844971 99.66685791 54.25111816 100.23605957 53.90356445 100.82250977 C52.35166748 103.43697161 50.79501273 106.04857038 49.23828125 108.66015625 C48.44260742 110.00303711 48.44260742 110.00303711 47.63085938 111.37304688 C39.22800057 125.44654659 39.22800057 125.44654659 35.92578125 127.09765625 C32.01791366 127.54005635 29.80902217 127.78882252 26.64453125 125.3125 C22.53930028 120.92089386 19.75397221 115.44365793 16.73828125 110.28515625 C15.50148427 108.17055054 14.25834499 106.05963695 13.0078125 103.953125 C12.46358643 103.02137451 11.91936035 102.08962402 11.35864258 101.12963867 C10.88579834 100.45908447 10.4129541 99.78853027 9.92578125 99.09765625 C5.11734528 99.09765625 -0.2530432 102.56191881 -3.84375 105.58984375 Z M-72.44921875 143.22265625 C-75.10480404 147.92099946 -76.60167477 152.93292015 -75.69921875 158.34765625 C-73.76249478 164.15782815 -70.36774076 167.6517402 -65.19921875 170.91015625 C-60.0024536 172.88492701 -55.97799042 172.73182247 -50.94921875 170.47265625 C-46.10005513 167.82680193 -42.84925805 164.42277416 -41.07421875 159.09765625 C-40.29907574 152.54070882 -41.19708958 148.44180727 -45.07421875 143.09765625 C-49.1729079 139.20915628 -52.77907443 137.35748391 -58.38671875 136.72265625 C-64.10238401 137.30391034 -68.18689094 139.40899453 -72.44921875 143.22265625 Z M59.92578125 142.09765625 C55.30578125 143.08765625 50.68578125 144.07765625 45.92578125 145.09765625 C46.23515625 147.75828125 46.23515625 147.75828125 46.55078125 150.47265625 C47.37187451 160.9140213 45.28148033 168.68486707 38.92578125 177.09765625 C32.048272 184.85020574 21.98275758 189.94112982 11.92578125 192.09765625 C7.10170087 192.26598586 2.28347892 192.04914627 -2.53710938 191.84375 C-9.65622967 191.68461122 -15.3190189 192.51625369 -20.63037109 197.58178711 C-22.74405809 199.99694908 -24.05604958 202.04314875 -25.07421875 205.09765625 C-10.910592 214.03751661 0.68836154 216.57073455 17.52490234 215.98828125 C23.35187386 215.83764053 26.71762168 216.26415985 31.92578125 219.09765625 C35.01249227 218.42736681 35.87410137 217.16551324 37.78515625 214.65625 C50.34350548 193.92459496 60.13151317 170.69960078 60.92578125 146.09765625 C60.43078125 144.11765625 60.43078125 144.11765625 59.92578125 142.09765625 Z M-121.63671875 237.28125 C-125.10440348 241.28798188 -127.70133462 245.37252177 -130.07421875 250.09765625 C-130.91146484 251.75087891 -130.91146484 251.75087891 -131.765625 253.4375 C-135.45741413 260.42532062 -135.45741413 260.42532062 -136.07421875 268.09765625 C-134.26704031 270.35141473 -134.26704031 270.35141473 -131.71875 270.21875 C-127.57005407 268.45999707 -126.60528802 265.10691134 -124.76171875 261.16015625 C-116.9620553 245.52339356 -105.06694468 231.95721692 -88.07421875 226.09765625 C-85.72265625 225.76171875 -85.72265625 225.76171875 -83.44921875 225.72265625 C-82.69382812 225.69429687 -81.9384375 225.6659375 -81.16015625 225.63671875 C-79.07421875 226.09765625 -79.07421875 226.09765625 -77.36328125 227.62890625 C-75.60276184 231.00056767 -75.35629904 234.24344606 -75.07421875 237.97265625 C-75.00154785 238.80909668 -74.92887695 239.64553711 -74.85400391 240.50732422 C-74.68442657 242.49719216 -74.52182085 244.48766034 -74.36425781 246.47851562 C-74.08802614 249.92536612 -73.79347632 253.37012207 -73.49432373 256.81503296 C-73.20920277 260.11821797 -72.93251257 263.42207689 -72.65771484 266.72613525 C-72.5209739 268.363464 -72.38236661 270.00063819 -72.24169922 271.63763428 C-71.49508811 280.39749644 -70.94835138 289.11557223 -70.91796875 297.91015625 C-70.91372894 298.64654327 -70.90948914 299.3829303 -70.90512085 300.14163208 C-70.99192696 316.94043821 -79.50058365 329.52202645 -90.97833252 341.00216675 C-93.17099563 343.16906282 -95.37112033 345.32809026 -97.57421875 347.484375 C-98.34059662 348.23598404 -99.10697449 348.98759308 -99.89657593 349.76197815 C-103.10308889 352.90460785 -106.30947771 356.04684566 -109.53955078 359.1652832 C-111.91915997 361.46623745 -114.2792045 363.78581613 -116.63671875 366.109375 C-117.36890625 366.80745773 -118.10109375 367.50554047 -118.85546875 368.22477722 C-122.12876457 371.48013294 -123.88043558 373.38458337 -125.11328125 377.92114258 C-125.0674147 381.65095343 -124.44285561 383.23895659 -122.07421875 386.09765625 C-119.68512272 387.91007393 -118.32866269 388.09187343 -115.32421875 388.16015625 C-108.43049142 385.9064377 -103.88321975 379.99305697 -99.3203125 374.59765625 C-96.204059 371.12913061 -92.88838262 367.8760933 -89.57421875 364.59765625 C-85.20864101 360.27466181 -80.96805453 355.95085872 -77.0078125 351.25 C-73.57401605 347.42773364 -69.86713225 343.86963164 -66.21362305 340.25878906 C-62.39363485 336.46711996 -58.74219011 332.60352884 -55.30859375 328.453125 C-53.22732111 326.16767688 -51.88333886 326.07604721 -48.76171875 325.72265625 C-41.54823169 326.45623121 -37.14646348 334.44968454 -32.734375 339.80859375 C-28.89224626 344.52944058 -25.20871391 349.37163543 -21.51806641 354.2109375 C-8.30374584 375.0270663 -8.30374584 375.0270663 9.86328125 388.59765625 C13.98172362 387.9252575 15.36382413 386.31840234 17.92578125 383.09765625 C19.12054467 380.54882762 19.06927118 379.56155267 18.23828125 376.875 C16.60284704 373.4143044 14.38840513 370.6087849 11.98828125 367.66015625 C10.98942453 366.41158536 9.99073114 365.16288379 8.9921875 363.9140625 C8.22672607 362.96297607 8.22672607 362.96297607 7.44580078 361.99267578 C5.08229251 359.04607263 2.75494145 356.07142728 0.42578125 353.09765625 C-0.48936705 351.93212181 -1.40473233 350.76675771 -2.3203125 349.6015625 C-2.77390137 349.02422363 -3.22749023 348.44688477 -3.69482422 347.85205078 C-5.08184903 346.08795161 -6.47042321 344.32508225 -7.859375 342.5625 C-10.154949 339.64913468 -12.44295073 336.72992098 -14.72900391 333.80908203 C-16.05927602 332.11666687 -17.40003501 330.43300093 -18.7421875 328.75 C-34.82865107 308.44611152 -38.8150669 290.44881869 -40.07421875 265.09765625 C-40.20943122 262.73436331 -40.34484727 260.37108201 -40.48046875 258.0078125 C-40.59763777 255.74622623 -40.71230977 253.4845089 -40.82421875 251.22265625 C-40.88125977 250.16506104 -40.93830078 249.10746582 -40.99707031 248.01782227 C-41.03799805 247.03612061 -41.07892578 246.05441895 -41.12109375 245.04296875 C-41.18055176 243.75156982 -41.18055176 243.75156982 -41.24121094 242.43408203 C-41.0548864 239.82717289 -40.47736437 238.29030026 -39.07421875 236.09765625 C-35.69609233 234.40859304 -32.68367559 234.27012224 -29.07421875 235.09765625 C-26.18475794 236.91056684 -23.5695082 238.949443 -20.88671875 241.0546875 C-13.02436185 246.76581619 -3.6707806 248.90457436 5.92578125 248.09765625 C12.51833842 246.9452298 18.90050718 245.71547567 23.92578125 241.09765625 C25.24479716 238.67355489 25.24479716 238.67355489 24.92578125 236.09765625 C23.65308031 233.72297668 23.65308031 233.72297668 20.92578125 232.09765625 C17.3321264 231.68497268 13.78213667 231.92286952 10.17578125 232.09765625 C-8.77740818 232.53956615 -23.67615017 227.39132145 -38.796875 215.734375 C-60.32695 200.26078765 -106.75276016 221.74188982 -121.63671875 237.28125 Z M-99.4296875 253.390625 C-105.29243092 259.39192661 -108.90195916 266.42741664 -112.07421875 274.09765625 C-109.55478479 274.60577739 -107.03405002 275.10430159 -104.51171875 275.59765625 C-103.80724609 275.74074219 -103.10277344 275.88382812 -102.37695312 276.03125 C-97.85531637 276.9064055 -93.67934847 277.2428903 -89.07421875 277.09765625 C-89.21513768 273.78492849 -89.36287269 270.47253654 -89.51171875 267.16015625 C-89.55103516 266.23396484 -89.59035156 265.30777344 -89.63085938 264.35351562 C-89.89500996 258.56252206 -90.37186184 252.85226122 -91.07421875 247.09765625 C-93.94360619 247.09765625 -97.44268437 251.58555062 -99.4296875 253.390625 Z M-23.07421875 260.09765625 C-23.07421875 261.74765625 -23.07421875 263.39765625 -23.07421875 265.09765625 C-21.09421875 264.43765625 -19.11421875 263.77765625 -17.07421875 263.09765625 C-19.21276725 260.95910775 -20.20697189 260.67110562 -23.07421875 260.09765625 Z M-158.19921875 279.34765625 C-159.56433594 280.53101563 -159.56433594 280.53101563 -160.95703125 281.73828125 C-163.51946858 284.06549925 -163.51946858 284.06549925 -163.07421875 288.09765625 C-161.79096305 290.07693475 -161.79096305 290.07693475 -160.07421875 291.84765625 C-159.51734375 292.46125 -158.96046875 293.07484375 -158.38671875 293.70703125 C-157.95359375 294.1659375 -157.52046875 294.62484375 -157.07421875 295.09765625 C-152.54805882 291.41933608 -148.67996876 287.68679262 -145.07421875 283.09765625 C-145.87859375 282.14890625 -146.68296875 281.20015625 -147.51171875 280.22265625 C-148.95668872 278.51833269 -150.07162368 277.10284639 -151.07421875 275.09765625 C-154.30711178 275.09765625 -155.83524143 277.25981304 -158.19921875 279.34765625 Z M-207.63671875 285.78515625 C-208.26586182 286.39367432 -208.89500488 287.00219238 -209.54321289 287.62915039 C-211.73953862 289.76656378 -213.9085101 291.92923028 -216.07421875 294.09765625 C-216.93756836 294.95939453 -217.80091797 295.82113281 -218.69042969 296.70898438 C-224.19060744 302.2030149 -224.19060744 302.2030149 -229.66430664 307.72338867 C-234.06513745 312.17034539 -238.51675257 316.46410654 -243.26342773 320.5402832 C-245.96375679 322.86270454 -248.55994717 325.26284954 -251.13671875 327.72265625 C-252.09707031 328.62242187 -253.05742187 329.5221875 -254.046875 330.44921875 C-256.35640186 332.86180422 -256.35640186 332.86180422 -255.90869141 335.50024414 C-253.4338975 343.20338411 -244.57482522 350.60937293 -238.07421875 355.09765625 C-233.35619868 356.82580023 -228.91792118 355.91775402 -224.07421875 355.09765625 C-223.29183838 355.34451172 -222.50945801 355.59136719 -221.70336914 355.84570312 C-218.92458361 356.40552416 -218.92458361 356.40552416 -216.61401367 354.30273438 C-215.76943604 353.42037109 -214.9248584 352.53800781 -214.0546875 351.62890625 C-213.59242264 351.15578003 -213.13015778 350.68265381 -212.65388489 350.19519043 C-211.17505753 348.67619524 -209.71810477 347.1381526 -208.26171875 345.59765625 C-206.34376129 343.60300616 -204.41796794 341.61600033 -202.4921875 339.62890625 C-202.02239471 339.14120255 -201.55260193 338.65349884 -201.068573 338.15101624 C-197.88561883 334.86602685 -194.57234421 331.83726678 -191.09106445 328.87646484 C-186.89338048 325.17421022 -183.01057877 321.1358194 -179.07421875 317.16015625 C-178.20410156 316.28552734 -177.33398438 315.41089844 -176.4375 314.50976562 C-174.31408326 312.37468176 -172.19305497 310.2372842 -170.07421875 308.09765625 C-172.12482683 301.66070123 -177.06743795 297.54638381 -181.72216797 292.89379883 C-183.32132769 291.28805921 -184.8949483 289.65984978 -186.46875 288.02929688 C-187.48680576 287.0024413 -188.50629088 285.97700045 -189.52734375 284.953125 C-190.44676758 284.02137451 -191.36619141 283.08962402 -192.31347656 282.12963867 C-194.93584116 279.86374369 -194.93584116 279.86374369 -198.2253418 279.64892578 C-202.45698051 280.31545693 -204.72551011 282.86108216 -207.63671875 285.78515625 Z M-234.44921875 373.84765625 C-236.55649323 376.7080369 -236.55649323 376.7080369 -237.07421875 380.09765625 C-235.51447479 383.99701614 -234.60693602 385.7425114 -231.07421875 388.09765625 C-226.87161041 388.02124519 -224.76893699 387.70553471 -221.57421875 384.91015625 C-219.83402267 382.1785386 -219.83402267 382.1785386 -220.07421875 379.03515625 C-221.24119218 375.6071718 -222.07966227 374.14656331 -225.07421875 372.09765625 C-229.09481038 371.52328602 -231.13790201 371.40773865 -234.44921875 373.84765625 Z " fill="#000000" transform="translate(348.07421875,63.90234375)"/>
<path d="M0 0 C6.15904176 5.064101 10.24671364 10.9801573 11.09765625 19 C11.54716145 28.0362071 9.16608431 34.25289795 3.4375 41.1875 C-4.57835786 47.67652779 -11.97265959 49.31418332 -22.1875 48.3125 C-29.55650856 46.13737196 -35.02679258 41.72692394 -39.1875 35.3125 C-42.45905681 28.73433398 -43.46351366 21.84029041 -41.4609375 14.734375 C-38.40492537 6.43593556 -34.21875892 1.50908276 -26.46875 -2.70703125 C-17.2700498 -6.66058219 -8.48338793 -4.49120537 0 0 Z M-22.125 15.3125 C-24.40463788 18.62833691 -25.00417462 20.42152711 -24.734375 24.37109375 C-23.67527812 28.13088767 -21.46273158 29.46646038 -18.1875 31.3125 C-14.18526165 31.38150411 -12.0756169 30.94353043 -8.8125 28.625 C-6.7431254 25.68012077 -6.1875 23.92276337 -6.1875 20.3125 C-8.43471141 16.0704186 -8.43471141 16.0704186 -12.1875 13.3125 C-16.48072859 12.82647412 -18.50832639 12.85008392 -22.125 15.3125 Z " fill="#000000" transform="translate(396.1875,84.6875)"/>
</svg>
