<?xml version="1.0" encoding="UTF-8"?>
<svg version="1.1" xmlns="http://www.w3.org/2000/svg" width="512" height="512">
<path d="M0 0 C1.62525332 -0.00417765 3.25050372 -0.00965753 4.87574875 -0.01631981 C9.32226657 -0.03073662 13.76859844 -0.0265415 18.21512628 -0.019153 C23.0182418 -0.01441429 27.82131749 -0.0269374 32.62442017 -0.03717041 C42.02655269 -0.05435001 51.42861835 -0.05520015 60.83076249 -0.04995751 C68.47440239 -0.04591298 76.11802257 -0.04736272 83.76166153 -0.05270576 C84.85033428 -0.05345419 85.93900704 -0.05420261 87.06066988 -0.05497371 C89.27244377 -0.05650522 91.48421765 -0.05804357 93.69599153 -0.05958868 C114.42885865 -0.07331071 135.16168802 -0.06787813 155.89455427 -0.05640347 C174.85217139 -0.0464716 193.8096909 -0.0594115 212.76729296 -0.08333766 C232.24457139 -0.10773403 251.72180436 -0.11733519 271.19909775 -0.11068493 C282.12947371 -0.10719389 293.05977461 -0.10941723 303.99013901 -0.12693596 C313.29495409 -0.14166463 322.59964126 -0.14228462 331.90445386 -0.12486505 C336.64926444 -0.11635818 341.39384656 -0.11419789 346.13864517 -0.1295166 C350.48751733 -0.14338292 354.83596574 -0.13857565 359.18481351 -0.11927737 C360.75268421 -0.115523 362.32058901 -0.11842299 363.88842927 -0.12888902 C380.79498482 -0.23366596 394.17535692 4.30189206 406.56497192 15.94236755 C414.67960284 24.36651176 422.05011239 36.38516007 422.0434885 48.44063187 C422.04547955 49.24281025 422.0474706 50.04498864 422.04952198 50.87147546 C422.04660914 51.7469603 422.0436963 52.62244515 422.04069519 53.52445984 C422.04197683 54.9261613 422.04197683 54.9261613 422.04328436 56.35617995 C422.0449345 59.49462903 422.03942536 62.63302494 422.03396606 65.77146912 C422.03368407 68.01833597 422.03384217 70.26520291 422.03440857 72.5120697 C422.03469605 78.61908413 422.02880723 84.726079 422.02183461 90.83308887 C422.01559292 97.21259271 422.01499663 103.59209697 422.0138092 109.97160339 C422.01105198 120.68158878 422.0048013 131.3915656 421.99588013 142.10154724 C421.9867009 153.13279688 421.97962256 164.16404456 421.97537231 175.19529724 C421.97497823 176.21527339 421.97497823 176.21527339 421.97457618 177.25585511 C421.97327114 180.66714081 421.97200744 184.07842652 421.97076428 187.48971224 C421.96039783 215.78903979 421.94271054 244.08835954 421.92044067 272.38768005 C423.03104858 272.5376947 424.14165649 272.68770935 425.28591919 272.8422699 C433.94884111 274.142261 441.19110953 279.50650486 446.46340942 286.4072113 C450.60659231 292.76171174 452.22112638 298.58406575 452.18786621 306.18585205 C452.19239732 306.95233635 452.19692844 307.71882065 452.20159686 308.50853175 C452.21421814 311.067024 452.21262197 313.62530277 452.21096802 316.18382263 C452.2169547 318.02230095 452.22376056 319.86077676 452.23132324 321.69924927 C452.24897643 326.68695597 452.25367834 331.67459403 452.25495481 336.66232896 C452.25637738 339.78046458 452.26064898 342.8985828 452.26594925 346.0167141 C452.2844474 356.90055319 452.29262014 367.78434333 452.29104614 378.66819763 C452.28984486 388.80428907 452.31094518 398.94016753 452.34253347 409.07620507 C452.36870825 417.78638356 452.37941293 426.49649254 452.37813532 435.20671004 C452.37762604 440.40543876 452.38329085 445.60397817 452.40449142 450.80266762 C452.42389394 455.69389711 452.42398445 460.5847571 452.40945816 465.47599983 C452.40737146 467.26700634 452.41206268 469.0580361 452.42417908 470.84900284 C452.53401906 488.215207 452.53401906 488.215207 447.92044067 495.38768005 C447.47513189 496.102711 447.02982311 496.81774195 446.57102013 497.5544405 C442.042128 504.5070891 435.1000623 509.78373725 427.07566428 511.97592199 C422.64582081 512.82224892 418.15567773 512.66459429 413.66119385 512.64837646 C412.53450251 512.65220201 411.40781118 512.65602756 410.24697769 512.65996903 C406.47548676 512.67027934 402.70414863 512.66631055 398.93264771 512.66233826 C396.22703614 512.6655928 393.52143305 512.67180474 390.81582642 512.67782593 C384.23172867 512.69056285 377.64767172 512.69236787 371.06356372 512.69002566 C365.71054213 512.68824118 360.3575329 512.68999494 355.00451279 512.69425011 C353.86083364 512.69514289 353.86083364 512.69514289 352.69404986 512.69605371 C351.14502018 512.69726549 349.59599049 512.69847962 348.04696082 512.69969609 C333.52621169 512.7105678 319.00548579 512.70841091 304.48473535 512.70231124 C291.20898582 512.69714269 277.93330968 512.70839655 264.65757467 512.72740946 C251.01692297 512.7467948 237.37630597 512.75504262 223.73564041 512.75128621 C216.08111205 512.74937519 208.42664616 512.75185206 200.77212906 512.76600075 C194.25555231 512.77792442 187.73907647 512.77930843 181.22249831 512.76721058 C177.89978964 512.76132863 174.57741636 512.76183589 171.25469589 512.77221298 C167.64751145 512.78266553 164.04082148 512.77459101 160.43365479 512.76190186 C159.39074347 512.76927614 158.34783215 512.77665043 157.27331746 512.78424817 C146.59779748 512.70534352 138.62250192 509.90736098 130.92044067 502.38768005 C124.61327315 494.79505172 121.58066864 488.33871515 121.72512817 478.36424255 C121.72795807 477.61806671 121.73078796 476.87189087 121.73370361 476.10310364 C121.7448238 473.73946017 121.76991246 471.37620737 121.79544067 469.01268005 C121.80548106 467.40200848 121.81460505 465.79133091 121.82278442 464.1806488 C121.84473628 460.24951062 121.87920882 456.31866138 121.92044067 452.38768005 C121.22028713 452.39136723 120.52013359 452.3950544 119.79876328 452.3988533 C102.72031226 452.48739693 85.64191995 452.553483 68.56328964 452.59492874 C60.30400064 452.61550709 52.04486535 452.64353661 43.78567505 452.68943787 C36.58246573 452.72945114 29.37936781 452.75514718 22.17605042 452.76403403 C18.3659728 452.76922442 14.5562137 452.78132345 10.74623871 452.81060028 C7.15108599 452.83799932 3.55637927 452.84607644 -0.03886795 452.84011078 C-1.96892271 452.84171483 -3.89893028 452.86310833 -5.82885742 452.88536072 C-20.60786758 452.81635485 -33.92706065 447.38614796 -44.82955933 437.32518005 C-56.73262386 424.64300584 -60.54476726 410.48544086 -60.46723938 393.44703674 C-60.47141794 391.94552713 -60.47689832 390.44402068 -60.48355919 388.94252002 C-60.49796405 384.83804445 -60.49378468 380.73377052 -60.48639238 376.62928414 C-60.48165068 372.19426881 -60.49417942 367.75929647 -60.50440979 363.32429504 C-60.52158358 354.64406502 -60.52244074 345.96390743 -60.51719689 337.28366484 C-60.51315126 330.2264089 -60.51460341 323.16917433 -60.51994514 316.1119194 C-60.52069357 315.10650749 -60.52144199 314.10109557 -60.52221309 313.06521662 C-60.52374461 311.02255273 -60.52528296 308.97988885 -60.52682806 306.93722497 C-60.540548 287.79241048 -60.53511899 268.64763689 -60.52364285 249.50282334 C-60.51371131 232.00017155 -60.52665068 214.49762549 -60.55057704 196.99499001 C-60.57497785 179.00932711 -60.58457347 161.02371343 -60.57792431 143.03803432 C-60.57443424 132.94602628 -60.57665016 122.85409954 -60.59417534 112.76210403 C-60.60890959 104.17094248 -60.60951676 95.57991948 -60.59210443 86.98876061 C-60.5836021 82.60849134 -60.58142605 78.22846945 -60.59675598 73.8482132 C-60.61063603 69.83240493 -60.60579771 65.81705518 -60.58651675 61.80127321 C-60.58276655 60.35453236 -60.58565026 58.90775448 -60.5961284 57.46104671 C-60.70359777 41.47647794 -55.99580683 27.53472428 -45.01705933 15.63768005 C-31.9512169 3.37451737 -17.46179089 -0.07325022 0 0 Z M-24.39205933 39.82518005 C-34.53257975 55.2237481 -30.07955933 73.04743964 -30.07955933 91.38768005 C109.18044067 91.38768005 248.44044067 91.38768005 391.92044067 91.38768005 C394.26920034 63.50843242 394.26920034 63.50843242 384.92044067 38.38768005 C377.67966896 31.51822997 369.96513663 30.26512685 360.27458382 30.2590456 C358.97037361 30.25582115 357.66616341 30.25259671 356.32243168 30.24927455 C354.88717522 30.25074548 353.45191886 30.25231318 352.0166626 30.25396729 C350.48260914 30.25209805 348.94855616 30.24979689 347.41450393 30.24710196 C343.20630399 30.24099162 338.99812393 30.24111665 334.78992057 30.24229634 C330.24858529 30.24250053 325.70725638 30.23697981 321.16592407 30.23223877 C312.27174256 30.22393611 303.37756767 30.22118411 294.4833826 30.22062639 C287.25393415 30.2201511 280.02448789 30.21809568 272.79504013 30.21492577 C252.29642646 30.20612064 231.79781803 30.20150623 211.29920246 30.20225624 C209.64194243 30.20231617 209.64194243 30.20231617 207.95120239 30.20237732 C206.845013 30.2024182 205.73882361 30.20245908 204.59911333 30.2025012 C186.66748503 30.20290774 168.73587773 30.19333572 150.8042555 30.17923895 C132.39043687 30.16487736 113.97662848 30.15796863 95.5628041 30.15883273 C85.22550627 30.15916475 74.88823044 30.15641541 64.55093765 30.14565468 C55.75068144 30.13655259 46.95045723 30.13437208 38.15019836 30.1411641 C33.66102164 30.14443062 29.17190633 30.14448117 24.68273544 30.13581085 C20.57086648 30.12795096 16.45910765 30.12937207 12.34724139 30.13809498 C10.86210468 30.13963108 9.37695977 30.13780968 7.89183272 30.13223491 C-4.41700692 30.08910176 -15.46469501 30.41525551 -24.39205933 39.82518005 Z M-30.07955933 121.38768005 C-30.12080933 166.74205505 -30.16205933 212.09643005 -30.20455933 258.82518005 C-30.22276733 273.15238464 -30.24097534 287.47958923 -30.25973511 302.24095154 C-30.26642347 315.07012128 -30.26642347 315.07012128 -30.27044678 327.89929199 C-30.27231204 333.6189132 -30.27964921 339.33849534 -30.29071045 345.05810547 C-30.30345188 351.65628999 -30.30922868 358.25443704 -30.30644923 364.85263396 C-30.30524571 368.22704513 -30.30825772 371.60130554 -30.31798959 374.97571266 C-30.32793763 378.5929973 -30.32553901 382.2100726 -30.32006836 385.82736206 C-30.32589369 386.8747458 -30.33171902 387.92212954 -30.33772087 389.00125217 C-30.29864924 398.61415307 -29.13445899 406.68780765 -23.07955933 414.38768005 C-14.10865152 422.89854131 -4.2364643 422.53711495 7.37332153 422.50120544 C9.23291 422.50142448 9.23291 422.50142448 11.13006592 422.50164795 C14.51179919 422.50107266 17.89347063 422.4960741 21.27519298 422.48907399 C24.81592166 422.48280216 28.35665126 422.48223363 31.89738464 422.48104858 C38.59431882 422.47794653 45.29123657 422.46974837 51.98816353 422.45969909 C59.61574799 422.44850293 67.24333324 422.44301869 74.87092388 422.43800366 C90.55410564 422.42756478 106.23727103 422.40998722 121.92044067 422.38768005 C121.92190723 421.75691339 121.92337379 421.12614672 121.9248848 420.47626591 C121.96199843 405.10109801 122.02107314 389.72619305 122.10434341 374.3512125 C122.14408798 366.91585509 122.17650363 359.48060282 122.19143677 352.04515076 C122.20447718 345.56150071 122.23150234 339.07808244 122.27505374 332.59456295 C122.29761534 329.16415546 122.31335458 325.73403326 122.31232452 322.303545 C122.31469435 318.466085 122.34177859 314.62952553 122.37454224 310.79222107 C122.36699669 309.10151993 122.36699669 309.10151993 122.35929871 307.37666321 C122.49410867 297.14706092 125.81433918 288.83889023 132.92044067 281.38768005 C140.85759105 274.96101072 147.85231849 273.0883366 157.90515137 273.10920715 C159.40742135 273.10051855 159.40742135 273.10051855 160.94004023 273.09165442 C164.29340303 273.07465934 167.64662815 273.0717783 171.00003052 273.0688324 C173.40482928 273.0595339 175.80962481 273.04936534 178.2144165 273.03839111 C183.39048153 273.016728 188.56652719 273.00111508 193.74262619 272.99102402 C201.22634444 272.97642365 208.70999408 272.95088304 216.19367202 272.92269273 C228.33613792 272.87724939 240.47861371 272.84062443 252.62112427 272.80955505 C264.41476174 272.77935944 276.20837491 272.74498187 288.00198364 272.70506287 C289.10397777 272.7013406 289.10397777 272.7013406 290.22823441 272.69754314 C296.61898379 272.67592052 303.00973208 272.65398152 309.40048027 272.63201141 C336.90710636 272.53785925 364.41374799 272.46448052 391.92044067 272.38768005 C391.92044067 222.55768005 391.92044067 172.72768005 391.92044067 121.38768005 C252.66044067 121.38768005 113.40044067 121.38768005 -30.07955933 121.38768005 Z M152.92044067 304.38768005 C149.01887404 316.09237996 151.92044067 329.04984304 151.92044067 341.38768005 C241.02044067 341.38768005 330.12044067 341.38768005 421.92044067 341.38768005 C423.75671366 321.71812683 423.75671366 321.71812683 419.92044067 303.38768005 C417.10805737 302.45021895 415.41019592 302.26165032 412.50195408 302.2590456 C411.59276488 302.25582115 410.68357568 302.25259671 409.74683529 302.24927455 C408.74665574 302.25082315 407.74647618 302.25237176 406.71598816 302.25396729 C405.65452353 302.25170173 404.59305891 302.24943617 403.49942869 302.24710196 C399.92499274 302.24074674 396.35059456 302.2415923 392.77615356 302.24241638 C390.22065685 302.23942586 387.66516058 302.23602358 385.10966492 302.23223877 C378.8782978 302.2243048 372.64694464 302.22118367 366.41557295 302.22062639 C361.35179435 302.22015154 356.28801887 302.21809837 351.22424126 302.21492577 C336.87446938 302.20611788 322.524705 302.20150664 308.1749304 302.20225624 C307.01412278 302.20231617 307.01412278 302.20231617 305.8298645 302.20237732 C305.05505041 302.2024182 304.28023631 302.20245908 303.481943 302.2025012 C290.92036221 302.20290779 278.35881138 302.19333528 265.79723925 302.17923895 C252.90594136 302.16488648 240.01465808 302.15796813 227.12335199 302.15883273 C219.88309015 302.15916507 212.64285972 302.15640165 205.40260506 302.14565468 C198.5958354 302.13561605 191.78914324 302.13587344 184.98236656 302.14317131 C182.4797417 302.14422093 179.97711277 302.14183205 177.47449493 302.13581085 C174.06687625 302.12814127 170.65949018 302.13270229 167.25187683 302.14044189 C166.253928 302.13529833 165.25597917 302.13015477 164.22778946 302.12485534 C163.31599251 302.12945414 162.40419557 302.13405293 161.46476841 302.13879108 C160.67809522 302.13857372 159.89142203 302.13835635 159.08091027 302.13813239 C156.59094092 302.42573932 155.01225787 303.00925904 152.92044067 304.38768005 Z M151.92044067 371.38768005 C144.72016968 428.32350144 144.72016968 428.32350144 153.92044067 481.38768005 C156.73282397 482.32514115 158.43068543 482.51370979 161.33892727 482.51631451 C162.24811647 482.51953895 163.15730567 482.5227634 164.09404606 482.52608556 C165.09422561 482.52453695 166.09440516 482.52298835 167.12489319 482.52139282 C168.71709013 482.52479116 168.71709013 482.52479116 170.34145266 482.52825814 C173.91588861 482.53461337 177.49028679 482.53376781 181.06472778 482.53294373 C183.6202245 482.53593425 186.17572077 482.53933652 188.73121643 482.54312134 C194.96258354 482.55105531 201.19393671 482.55417644 207.4253084 482.55473372 C212.489087 482.55520856 217.55286248 482.55726174 222.61664009 482.56043434 C236.96641196 482.56924223 251.31617635 482.57385346 265.66595095 482.57310387 C266.82675857 482.57304393 266.82675857 482.57304393 268.01101685 482.57298279 C268.78583094 482.57294191 269.56064503 482.57290103 270.35893834 482.57285891 C282.92051914 482.57245231 295.48206997 482.58202482 308.0436421 482.59612115 C320.93493999 482.61047362 333.82622326 482.61739197 346.71752936 482.61652738 C353.9577912 482.61619504 361.19802163 482.61895846 368.43827629 482.62970543 C375.24504595 482.63974406 382.05173811 482.63948666 388.85851479 482.6321888 C391.36113964 482.63113918 393.86376858 482.63352805 396.36638641 482.63954926 C399.7740051 482.64721884 403.18139116 482.64265782 406.58900452 482.63491821 C407.58695335 482.64006178 408.58490218 482.64520534 409.61309189 482.65050477 C410.52488883 482.64590597 411.43668578 482.64130718 412.37611294 482.63656902 C413.55612272 482.63689508 413.55612272 482.63689508 414.75997108 482.63722771 C417.24994043 482.34962078 418.82862348 481.76610107 420.92044067 480.38768005 C432.41053302 445.917403 421.92044067 407.72254241 421.92044067 371.38768005 C332.82044067 371.38768005 243.72044067 371.38768005 151.92044067 371.38768005 Z " fill="#000000" transform="translate(60.079559326171875,-0.3876800537109375)"/>
<path d="M0 0 C4.59247877 2.17538468 6.80928494 4.46748609 9 9 C9.29296875 12.55078125 9.29296875 12.55078125 9.1875 16.3125 C9.14689453 18.19388672 9.14689453 18.19388672 9.10546875 20.11328125 C9.07066406 21.06589844 9.03585938 22.01851562 9 23 C9.8353125 23.22042969 9.8353125 23.22042969 10.6875 23.4453125 C19.17593235 25.94022336 26.08952298 30.5598833 31 38 C32.69736689 43.06047271 32.10609458 47.39609892 30.015625 52.2421875 C28.00448804 55.72300146 25.12839709 57.34176836 21.75 59.3125 C15.13377541 60.96655615 10.08928898 59.27377926 4.25 56 C3.36828125 55.46375 2.4865625 54.9275 1.578125 54.375 C-1.05658115 52.96982338 -3.03530998 52.28441742 -6 52 C-9.60462715 53.28300288 -12.28294264 54.28294264 -15 57 C-15.58402133 59.41417872 -15.58402133 59.41417872 -15 62 C-11.58342954 65.18911015 -8.22838018 66.93130753 -3.88671875 68.5859375 C-2.72076172 69.04226562 -1.55480469 69.49859375 -0.35351562 69.96875 C2.0776685 70.90132995 4.50995191 71.83104946 6.94335938 72.7578125 C19.12419744 77.53619085 29.76638601 84.44552524 35.4375 96.75 C39.45835209 106.48659251 39.48624566 118.84103441 35.9765625 128.73046875 C31.40445598 139.35604431 25.31913677 147.44486471 15 153 C13.01388592 153.70696203 11.01589613 154.38306627 9 155 C9.04640625 156.08539063 9.0928125 157.17078125 9.140625 158.2890625 C9.17816487 159.73434731 9.21456264 161.17966211 9.25 162.625 C9.28351563 163.33785156 9.31703125 164.05070313 9.3515625 164.78515625 C9.44710229 169.99207492 8.51499326 172.92308604 5 177 C-0.22259857 181.05630398 -5.65340142 180.77397544 -12 180 C-16.59247877 177.82461532 -18.80928494 175.53251391 -21 171 C-21.29296875 167.44921875 -21.29296875 167.44921875 -21.1875 163.6875 C-21.16042969 162.43324219 -21.13335937 161.17898438 -21.10546875 159.88671875 C-21.07066406 158.93410156 -21.03585938 157.98148438 -21 157 C-22.03125 156.979375 -23.0625 156.95875 -24.125 156.9375 C-32.1537882 155.91956435 -41.50674591 151.31545327 -46.8125 145.1875 C-50.21931422 140.22328499 -50.55053342 136.93575122 -50 131 C-48.07936852 125.64244904 -45.08325568 122.54162784 -40 120 C-32.68250466 119.11072105 -27.476985 120.17139328 -21.09375 123.80859375 C-15.73548739 126.85760512 -9.9896976 126.43633559 -4 126 C0.69844701 124.40588405 3.50438173 122.3193393 6 118 C6.61196073 115.18040524 6.84511082 112.77154355 6 110 C2.05155997 104.8996006 -2.64544751 103.25093951 -8.5 101.125 C-23.34932728 95.43533472 -38.19826089 89.51981879 -45.125 74.19921875 C-48.50738067 65.69796734 -48.10646677 54.93560694 -45.03515625 46.3359375 C-41.53435217 38.43600981 -37.24939604 31.90042972 -30 27 C-28.52720213 26.46142054 -27.04807036 25.93977692 -25.5625 25.4375 C-23.47540121 24.66244605 -23.47540121 24.66244605 -22 23 C-21.33722724 19.41924783 -21.24795441 16.00188096 -21.1875 12.36328125 C-20.93555045 7.84393622 -20.11700377 6.20358721 -17 3 C-11.55064492 -0.88301721 -6.48676428 -0.79106881 0 0 Z " fill="#000000" transform="translate(111,151)"/>
<path d="M0 0 C0.90658735 -0.00538554 1.81317471 -0.01077108 2.7472344 -0.01631981 C5.78577492 -0.03063001 8.82388168 -0.02348805 11.86244202 -0.01637268 C14.04061229 -0.02207463 16.21877958 -0.02903821 18.39694214 -0.03717041 C24.31425855 -0.05513605 30.23142695 -0.05392702 36.14876246 -0.04822803 C41.08680593 -0.04514115 46.02482077 -0.05122304 50.96286017 -0.05726677 C62.61105223 -0.07132154 74.25917096 -0.06974273 85.90736389 -0.05836487 C97.92881511 -0.04688198 109.95000905 -0.06096012 121.97143453 -0.08776134 C132.2891818 -0.10990402 142.60685897 -0.11655896 152.92462832 -0.11068493 C159.08849811 -0.10731083 165.25222491 -0.10976066 171.41607475 -0.12693596 C177.21177255 -0.14238011 183.00713941 -0.13847741 188.80282402 -0.11963081 C190.93049556 -0.11593797 193.05819149 -0.11907355 195.18584061 -0.1295166 C198.08936521 -0.14268034 200.99178678 -0.13121965 203.89526367 -0.11352539 C205.15961798 -0.1279329 205.15961798 -0.1279329 206.44951481 -0.14263147 C211.76885277 -0.07588756 214.78300187 0.87104052 219.01112366 4.38768005 C223.06742764 9.61027863 222.78509909 15.04108148 222.01112366 21.38768005 C219.83790204 25.97559236 217.56700409 28.24521734 213.01112366 30.38768005 C210.01326835 30.82059259 207.04704241 30.7968705 204.02224731 30.77536011 C203.11565996 30.78074565 202.20907261 30.78613118 201.27501291 30.79167992 C198.23647239 30.80599012 195.19836563 30.79884816 192.1598053 30.79173279 C189.98163502 30.79743474 187.80346773 30.80439832 185.62530518 30.81253052 C179.70798876 30.83049616 173.79082036 30.82928713 167.87348485 30.82358813 C162.93544138 30.82050125 157.99742655 30.82658315 153.05938715 30.83262688 C141.41119509 30.84668165 129.76307635 30.84510283 118.11488342 30.83372498 C106.0934322 30.82224209 94.07223827 30.83632023 82.05081278 30.86312145 C71.73306552 30.88526412 61.41538834 30.89191907 51.097619 30.88604504 C44.9337492 30.88267093 38.77002241 30.88512077 32.60617256 30.90229607 C26.81047476 30.91774021 21.0151079 30.91383752 15.21942329 30.89499092 C13.09175175 30.89129808 10.96405583 30.89443365 8.83640671 30.90487671 C5.9328821 30.91804045 3.03046053 30.90657976 0.12698364 30.8888855 C-1.13737067 30.90329301 -1.13737067 30.90329301 -2.42726749 30.91799158 C-7.74660546 30.85124767 -10.76075455 29.90431959 -14.98887634 26.38768005 C-19.04518032 21.16508148 -18.76285178 15.73427863 -17.98887634 9.38768005 C-14.04226947 1.05595442 -8.45589122 -0.06013285 0 0 Z " fill="#000000" transform="translate(198.98887634277344,210.61231994628906)"/>
<path d="M0 0 C0.90658735 -0.00538554 1.81317471 -0.01077108 2.7472344 -0.01631981 C5.78577492 -0.03063001 8.82388168 -0.02348805 11.86244202 -0.01637268 C14.04061229 -0.02207463 16.21877958 -0.02903821 18.39694214 -0.03717041 C24.31425855 -0.05513605 30.23142695 -0.05392702 36.14876246 -0.04822803 C41.08680593 -0.04514115 46.02482077 -0.05122304 50.96286017 -0.05726677 C62.61105223 -0.07132154 74.25917096 -0.06974273 85.90736389 -0.05836487 C97.92881511 -0.04688198 109.95000905 -0.06096012 121.97143453 -0.08776134 C132.2891818 -0.10990402 142.60685897 -0.11655896 152.92462832 -0.11068493 C159.08849811 -0.10731083 165.25222491 -0.10976066 171.41607475 -0.12693596 C177.21177255 -0.14238011 183.00713941 -0.13847741 188.80282402 -0.11963081 C190.93049556 -0.11593797 193.05819149 -0.11907355 195.18584061 -0.1295166 C198.08936521 -0.14268034 200.99178678 -0.13121965 203.89526367 -0.11352539 C205.15961798 -0.1279329 205.15961798 -0.1279329 206.44951481 -0.14263147 C211.76885277 -0.07588756 214.78300187 0.87104052 219.01112366 4.38768005 C223.06742764 9.61027863 222.78509909 15.04108148 222.01112366 21.38768005 C219.83790204 25.97559236 217.56700409 28.24521734 213.01112366 30.38768005 C210.01326835 30.82059259 207.04704241 30.7968705 204.02224731 30.77536011 C203.11565996 30.78074565 202.20907261 30.78613118 201.27501291 30.79167992 C198.23647239 30.80599012 195.19836563 30.79884816 192.1598053 30.79173279 C189.98163502 30.79743474 187.80346773 30.80439832 185.62530518 30.81253052 C179.70798876 30.83049616 173.79082036 30.82928713 167.87348485 30.82358813 C162.93544138 30.82050125 157.99742655 30.82658315 153.05938715 30.83262688 C141.41119509 30.84668165 129.76307635 30.84510283 118.11488342 30.83372498 C106.0934322 30.82224209 94.07223827 30.83632023 82.05081278 30.86312145 C71.73306552 30.88526412 61.41538834 30.89191907 51.097619 30.88604504 C44.9337492 30.88267093 38.77002241 30.88512077 32.60617256 30.90229607 C26.81047476 30.91774021 21.0151079 30.91383752 15.21942329 30.89499092 C13.09175175 30.89129808 10.96405583 30.89443365 8.83640671 30.90487671 C5.9328821 30.91804045 3.03046053 30.90657976 0.12698364 30.8888855 C-1.13737067 30.90329301 -1.13737067 30.90329301 -2.42726749 30.91799158 C-7.74660546 30.85124767 -10.76075455 29.90431959 -14.98887634 26.38768005 C-19.04518032 21.16508148 -18.76285178 15.73427863 -17.98887634 9.38768005 C-14.04226947 1.05595442 -8.45589122 -0.06013285 0 0 Z " fill="#000000" transform="translate(198.98887634277344,150.61231994628906)"/>
<path d="M0 0 C1.21494141 -0.01998047 2.42988281 -0.03996094 3.68164062 -0.06054688 C14.96313714 -0.05436523 14.96313714 -0.05436523 19.5625 4.4375 C23.61880398 9.66009857 23.33647544 15.09090142 22.5625 21.4375 C20.37746744 26.05034651 18.07069887 28.17717876 13.5625 30.4375 C9.10102246 31.04838321 4.62399644 30.90117079 0.125 30.875 C-1.08994141 30.89498047 -2.30488281 30.91496094 -3.55664062 30.93554688 C-14.83813714 30.92936523 -14.83813714 30.92936523 -19.4375 26.4375 C-23.49380398 21.21490143 -23.21147544 15.78409858 -22.4375 9.4375 C-17.68821562 -0.58876702 -9.86229941 -0.05736927 0 0 Z " fill="#000000" transform="translate(436.4375,420.5625)"/>
<path d="M0 0 C1.21494141 -0.01998047 2.42988281 -0.03996094 3.68164062 -0.06054688 C14.96313714 -0.05436523 14.96313714 -0.05436523 19.5625 4.4375 C23.61880398 9.66009857 23.33647544 15.09090142 22.5625 21.4375 C20.37746744 26.05034651 18.07069887 28.17717876 13.5625 30.4375 C9.10102246 31.04838321 4.62399644 30.90117079 0.125 30.875 C-1.08994141 30.89498047 -2.30488281 30.91496094 -3.55664062 30.93554688 C-14.83813714 30.92936523 -14.83813714 30.92936523 -19.4375 26.4375 C-23.49380398 21.21490143 -23.21147544 15.78409858 -22.4375 9.4375 C-17.68821562 -0.58876702 -9.86229941 -0.05736927 0 0 Z " fill="#000000" transform="translate(376.4375,420.5625)"/>
<path d="M0 0 C1.21494141 -0.01998047 2.42988281 -0.03996094 3.68164062 -0.06054688 C14.96313714 -0.05436523 14.96313714 -0.05436523 19.5625 4.4375 C23.61880398 9.66009857 23.33647544 15.09090142 22.5625 21.4375 C20.37746744 26.05034651 18.07069887 28.17717876 13.5625 30.4375 C9.10102246 31.04838321 4.62399644 30.90117079 0.125 30.875 C-1.08994141 30.89498047 -2.30488281 30.91496094 -3.55664062 30.93554688 C-14.83813714 30.92936523 -14.83813714 30.92936523 -19.4375 26.4375 C-23.49380398 21.21490143 -23.21147544 15.78409858 -22.4375 9.4375 C-17.68821562 -0.58876702 -9.86229941 -0.05736927 0 0 Z " fill="#000000" transform="translate(317.4375,420.5625)"/>
<path d="M0 0 C1.21494141 -0.01998047 2.42988281 -0.03996094 3.68164062 -0.06054688 C14.96313714 -0.05436523 14.96313714 -0.05436523 19.5625 4.4375 C23.61880398 9.66009857 23.33647544 15.09090142 22.5625 21.4375 C20.37746744 26.05034651 18.07069887 28.17717876 13.5625 30.4375 C9.10102246 31.04838321 4.62399644 30.90117079 0.125 30.875 C-1.08994141 30.89498047 -2.30488281 30.91496094 -3.55664062 30.93554688 C-14.83813714 30.92936523 -14.83813714 30.92936523 -19.4375 26.4375 C-23.49380398 21.21490143 -23.21147544 15.78409858 -22.4375 9.4375 C-17.68821562 -0.58876702 -9.86229941 -0.05736927 0 0 Z " fill="#000000" transform="translate(257.4375,420.5625)"/>
</svg>
