<?xml version="1.0" encoding="UTF-8"?>
<svg version="1.1" xmlns="http://www.w3.org/2000/svg" width="512" height="512">
<path d="M0 0 C11.66774098 9.53613445 19.15425131 24.43006908 20.78125 39.34765625 C22.2663826 60.13165477 19.61490583 78.62507481 5.87890625 95.03125 C-6.20915207 108.37988796 -23.30078946 116.42916993 -41.31738281 117.46875 C-63.30388456 118.39605923 -82.6737252 113.29369879 -99.21875 98.34765625 C-108.72156002 88.72001457 -116.21875 74.12886719 -116.21875 60.34765625 C-117.82592896 60.35551147 -117.82592896 60.35551147 -119.46557617 60.36352539 C-155.23393511 60.52325288 -155.23393511 60.52325288 -167.03125 59.84765625 C-193.69729661 58.33400385 -223.76704429 57.9483945 -245.25561523 76.32958984 C-255.85904875 86.01164964 -264.39890085 98.74536244 -265.35742188 113.47924805 C-266.21168718 134.56159443 -261.84376621 152.37097496 -247.21875 168.34765625 C-236.65395213 179.60723774 -222.16035265 185.93425859 -206.77620506 186.61835289 C-201.52297951 186.7532652 -196.27071958 186.71944978 -191.01635742 186.68823242 C-189.00461337 186.68738472 -186.99286839 186.68786408 -184.98112488 186.68955994 C-179.55636516 186.69041574 -174.13180708 186.67285756 -168.70709395 186.65183806 C-163.02432912 186.63300166 -157.34155894 186.63131535 -151.6587677 186.62776184 C-140.91395189 186.61846176 -130.16922837 186.59387567 -119.42445308 186.56371337 C-107.1849779 186.53010578 -94.94549817 186.51366739 -82.70598829 186.49862707 C-57.5435245 186.46732422 -32.38114243 186.41460354 -7.21875 186.34765625 C-7.77304687 185.87714844 -8.32734375 185.40664063 -8.8984375 184.921875 C-9.62289063 184.29925781 -10.34734375 183.67664063 -11.09375 183.03515625 C-11.81304687 182.42027344 -12.53234375 181.80539062 -13.2734375 181.171875 C-16.374916 178.26346043 -17.18542963 176.69752008 -17.59375 172.41015625 C-17.50579817 169.41979411 -17.30830601 168.48199026 -15.59375 165.91015625 C-12.6528368 163.97534493 -10.74224544 163.41956432 -7.21875 163.34765625 C-3.47749554 165.24845489 -0.792763 167.57921852 2.09375 170.59765625 C4.9346222 173.51390814 7.79626184 176.28327305 10.90625 178.91015625 C22.36236879 188.78533065 22.36236879 188.78533065 23.78125 195.34765625 C23.49257 200.33754343 20.80341058 202.87967547 17.390625 206.19921875 C16.84899719 206.73993011 16.30736938 207.28064148 15.74932861 207.83773804 C14.60404418 208.97699336 13.45391558 210.11139686 12.29931641 211.24121094 C10.54080205 212.96330205 8.79873558 214.70077216 7.05859375 216.44140625 C5.94104127 217.54912331 4.82258066 218.65592507 3.703125 219.76171875 C3.185224 220.2773941 2.667323 220.79306946 2.13372803 221.32437134 C-0.77225102 224.15573088 -3.56722811 226.54954671 -7.21875 228.34765625 C-10.429498 228.21660531 -12.67306433 227.59177878 -15.59375 226.28515625 C-17.67386155 223.80502325 -17.89349779 221.73868836 -17.74609375 218.54296875 C-16.44425172 213.12344859 -12.05998358 209.16208897 -8.21875 205.34765625 C-9.26051643 205.3452679 -10.30228287 205.34287954 -11.37561798 205.34041882 C-36.77574385 205.28150899 -62.17577574 205.20555555 -87.57579803 205.11194134 C-99.85927978 205.06706009 -112.14273303 205.02762784 -124.42626953 205.0012207 C-135.13809339 204.9781784 -145.84982649 204.94471109 -156.56157827 204.89895469 C-162.22836731 204.87510636 -167.89506691 204.85632274 -173.56190491 204.85004234 C-178.9069515 204.84395337 -184.25176954 204.82381721 -189.59673119 204.79338074 C-191.5476389 204.78466121 -193.49857656 204.78086514 -195.44950294 204.78264809 C-220.08714091 204.79804098 -242.06691524 200.26047943 -260.32421875 182.4609375 C-276.86853685 165.34819882 -281.73716928 142.75673302 -281.640625 119.74902344 C-281.44960883 110.35153067 -280.43242349 102.20022887 -277.21875 93.34765625 C-276.78304687 92.13207031 -276.34734375 90.91648437 -275.8984375 89.6640625 C-272.74066547 81.64884332 -268.60662369 75.03869452 -263.21875 68.34765625 C-262.74953125 67.71472656 -262.2803125 67.08179688 -261.796875 66.4296875 C-250.69528634 52.1608809 -232.94666394 45.4012427 -215.59082031 42.8049469 C-210.91776059 42.24466393 -206.29133929 42.2144659 -201.58984375 42.23413086 C-200.66208633 42.23398483 -199.73432892 42.23383881 -198.77845764 42.23368835 C-195.73769727 42.23438032 -192.69699956 42.24213895 -189.65625 42.25 C-187.53776076 42.25186673 -185.41927108 42.25328943 -183.30078125 42.25428772 C-177.74418939 42.25809284 -172.18762395 42.2679059 -166.63104248 42.2789917 C-160.95325071 42.28924904 -155.27545463 42.29379458 -149.59765625 42.29882812 C-138.4713426 42.30953006 -127.3450485 42.32658227 -116.21875 42.34765625 C-116.15499176 41.66267059 -116.09123352 40.97768494 -116.02554321 40.27194214 C-115.9392868 39.37250885 -115.8530304 38.47307556 -115.76416016 37.54638672 C-115.67977692 36.65515106 -115.59539368 35.76391541 -115.50845337 34.84567261 C-113.75580708 19.73318317 -104.48881747 6.96311548 -93.21875 -2.65234375 C-90.02121335 -5.00318066 -86.77545394 -6.89827883 -83.21875 -8.65234375 C-82.31769531 -9.10222656 -81.41664063 -9.55210937 -80.48828125 -10.015625 C-53.45252275 -22.38421087 -23.4251528 -17.4451402 0 0 Z M-70.51171875 21.83984375 C-73.71462667 26.54525996 -75.71052117 31.51997202 -74.71875 37.22265625 C-72.8027526 39.93698591 -71.07051717 41.62333192 -68.21875 43.34765625 C-65.59758489 43.67364185 -65.59758489 43.67364185 -63.21875 42.34765625 C-60.74830003 39.29592394 -59.11444355 36.2091408 -57.65625 32.59765625 C-56.21875 29.34765625 -56.21875 29.34765625 -53.21875 27.34765625 C-48.88217999 26.72234559 -45.21101038 26.89287024 -41.21875 28.72265625 C-38.52916206 30.90794645 -38.28122042 31.96502491 -37.71875 35.41015625 C-38.83361758 44.18973848 -47.46584836 50.77146958 -53.59375 56.66015625 C-66.26353997 68.71043921 -66.26353997 68.71043921 -73.21875 84.34765625 C-72.17932155 86.79011372 -72.17932155 86.79011372 -70.21875 88.34765625 C-67.53841176 89.24110233 -65.93223213 89.48645055 -63.17797852 89.5246582 C-62.37026505 89.53749344 -61.56255157 89.55032867 -60.73036194 89.56355286 C-59.42717262 89.57463326 -59.42717262 89.57463326 -58.09765625 89.5859375 C-57.20134995 89.59400925 -56.30504364 89.60208099 -55.38157654 89.61039734 C-53.48609342 89.6242226 -51.59058556 89.63495172 -49.69506836 89.64282227 C-46.79558425 89.66007098 -43.8972301 89.70397437 -40.99804688 89.74804688 C-39.15625838 89.75817105 -37.3144602 89.76668801 -35.47265625 89.7734375 C-34.6058876 89.79094559 -33.73911896 89.80845367 -32.84608459 89.82649231 C-27.92118939 89.83662348 -27.92118939 89.83662348 -23.70288086 87.47338867 C-21.92293562 84.92395896 -21.21875 83.47541918 -21.21875 80.34765625 C-22.99538522 77.65207177 -24.31159445 75.80123402 -27.21875 74.34765625 C-28.7383264 74.19641794 -30.26347502 74.09883932 -31.7890625 74.03125 C-33.13291016 73.9684082 -33.13291016 73.9684082 -34.50390625 73.90429688 C-35.44105469 73.86498047 -36.37820313 73.82566406 -37.34375 73.78515625 C-38.76107422 73.72038086 -38.76107422 73.72038086 -40.20703125 73.65429688 C-42.54412092 73.54806553 -44.8813183 73.44602449 -47.21875 73.34765625 C-38.68958958 63.73542784 -38.68958958 63.73542784 -34.59375 59.91015625 C-28.2773034 53.71149886 -22.03683631 44.75602208 -21.78125 35.66015625 C-21.94053253 28.98024513 -24.44426074 23.47801824 -28.86328125 18.4921875 C-36.22843225 11.75881017 -42.79587271 10.76018597 -52.625 11.01171875 C-60.80055844 11.77595573 -65.32170716 15.63639794 -70.51171875 21.83984375 Z " fill="#000000" transform="translate(313.21875,204.65234375)"/>
<path d="M0 0 C11.57391181 9.69926412 19.43661508 22.78478673 22.06738281 37.70922852 C22.24327942 38.69995865 22.41917603 39.69068878 22.60040283 40.71144104 C22.7322699 41.4666655 22.86413696 42.22188995 23 43 C24.4361947 43.00358253 24.4361947 43.00358253 25.90140343 43.00723743 C49.26600721 43.06619568 72.63050923 43.14217842 95.99500084 43.23571491 C107.29418374 43.28056096 118.59333591 43.32000109 129.89257812 43.34643555 C139.74817033 43.36950663 149.60366437 43.40300533 159.45917857 43.44870156 C164.67107672 43.47251158 169.88287838 43.49132004 175.09482956 43.49761391 C180.01472878 43.50372056 184.93438149 43.52391826 189.85418892 43.55427551 C191.64622463 43.5629673 193.43829269 43.56679706 195.23034859 43.56500816 C223.33886072 43.54583284 248.49335987 49.42445358 269.5625 69.125 C282.79203464 82.79321031 289.09730943 101.49985245 289.03125 120.3515625 C288.54304549 140.76639228 281.89806767 159.8529664 268 175 C267.00419922 176.13308594 267.00419922 176.13308594 265.98828125 177.2890625 C252.21282584 192.10849882 231.97148321 200.98891346 212 203 C207.35322894 203.11416223 202.71029159 203.09418395 198.0625 203.0625 C196.80630859 203.05798828 195.55011719 203.05347656 194.25585938 203.04882812 C191.17052337 203.03709681 188.08528684 203.020681 185 203 C185.48210937 203.46398193 185.96421875 203.92796387 186.4609375 204.40600586 C187.09257812 205.02354736 187.72421875 205.64108887 188.375 206.27734375 C189.00148438 206.88570068 189.62796875 207.49405762 190.2734375 208.12084961 C193.62894823 211.77290929 194.93218634 215.23684482 195.125 220.25 C194 223 194 223 190.8125 225 C186.40021884 226.15731965 185.1028723 225.79597429 181 224 C178.28125 221.890625 178.28125 221.890625 175.5 219.25 C174.99879639 218.77699463 174.49759277 218.30398926 173.98120117 217.81665039 C172.30688875 216.22488713 170.65153341 214.61537859 169 213 C168.37303223 212.38817871 167.74606445 211.77635742 167.10009766 211.14599609 C165.16423483 209.24976891 163.23605268 207.34621045 161.3125 205.4375 C160.70019531 204.8300293 160.08789062 204.22255859 159.45703125 203.59667969 C154.21310322 198.33189513 154.21310322 198.33189513 153.5 193.875 C154.02313735 189.82068552 154.32831539 189.21502637 156.92578125 186.375 C157.5614502 185.67874512 158.19711914 184.98249023 158.85205078 184.26513672 C162.74253169 180.16239952 166.6910726 176.12453263 170.6875 172.125 C171.52861328 171.27164063 172.36972656 170.41828125 173.23632812 169.5390625 C174.04908203 168.724375 174.86183594 167.9096875 175.69921875 167.0703125 C176.42971436 166.33570801 177.16020996 165.60110352 177.9128418 164.84423828 C181.217496 161.92420578 183.04889627 160.983016 187.5 161.0625 C191 162 191 162 193.4375 164.1875 C195.3802852 167.68451336 195.84945396 169.06162257 195 173 C192.91305699 175.91950006 190.52874117 178.4604291 188 181 C187.14341797 181.86044922 187.14341797 181.86044922 186.26953125 182.73828125 C185.85058594 183.15464844 185.43164062 183.57101563 185 184 C187.92735815 186.92735815 197.07092205 185.31218696 201.01293945 185.31469727 C219.48418547 185.09366487 236.04039545 179.42097078 250 167 C250.91845703 166.20335937 250.91845703 166.20335937 251.85546875 165.390625 C262.54617131 155.47871534 270.63221194 139.95351272 271.3359375 125.30078125 C271.65317905 107.86636447 268.00032717 94.42914293 255.9375 81.3125 C246.06441709 71.98977476 233.99576532 67.22318484 221 64 C220.0446659 63.7402687 220.0446659 63.7402687 219.07003212 63.4752903 C210.3598823 61.39419581 201.50236404 61.69141123 192.60693359 61.68115234 C190.75326099 61.67184223 188.89959253 61.66167197 187.04592896 61.65071106 C182.03842514 61.62351906 177.03094929 61.6082938 172.02339125 61.59528303 C166.78099344 61.57960504 161.53865234 61.55282978 156.29629517 61.5272522 C146.38017876 61.48054686 136.46405159 61.44376292 126.54788172 61.41057932 C115.25399642 61.37229957 103.96016818 61.32290479 92.66633105 61.27259517 C69.44426305 61.16939799 46.22215836 61.08009799 23 61 C22.70520248 62.65051865 22.70520248 62.65051865 22.40444946 64.3343811 C22.13915536 65.79148276 21.87363006 67.24854234 21.60791016 68.70556641 C21.47929092 69.4292189 21.35067169 70.1528714 21.21815491 70.89845276 C20.26105707 76.10985511 18.92548637 80.7017684 16.375 85.375 C16.02800049 86.03435547 15.68100098 86.69371094 15.32348633 87.37304688 C7.30337319 102.00523006 -6.15233987 111.85055301 -21.890625 116.93359375 C-41.65032715 122.57536663 -62.4288398 120.9382392 -81 112 C-97.45411109 102.62638659 -107.21925141 90.01109271 -113 72 C-116.38962057 57.66444455 -116.01823443 38.55508876 -110 25 C-109.57589844 24.03707031 -109.15179688 23.07414062 -108.71484375 22.08203125 C-100.65771547 5.8106719 -85.81002919 -5.22831274 -68.90234375 -11.0703125 C-45.17330284 -17.79408475 -20.34973367 -14.0407793 0 0 Z M-67 27 C-68.64321029 30.00306232 -68.64321029 30.00306232 -68 33 C-66.1264113 36.0405988 -66.1264113 36.0405988 -63 38 C-57.66506882 38.74876227 -56.42786423 38.32089817 -52 35 C-52 48.86 -52 62.72 -52 77 C-53.98 76.67 -55.96 76.34 -58 76 C-61.97472063 77.52873871 -63.61853665 78.42780497 -66 82 C-66.47155961 86.17697241 -66.47155961 86.17697241 -64.6875 89.8125 C-59.63238519 93.36980301 -52.73250202 92.26228793 -46.80371094 92.29516602 C-45.35471844 92.30669431 -43.90576869 92.32716001 -42.45703125 92.35668945 C-40.35908268 92.39944136 -38.26239298 92.41554281 -36.1640625 92.42578125 C-34.91061035 92.44036377 -33.6571582 92.45494629 -32.36572266 92.4699707 C-28.41704302 91.91859915 -26.80248209 90.77562848 -24 88 C-22.8423415 86.12042756 -22.8423415 86.12042756 -23 84 C-24.4278955 80.55625202 -25.7387831 79.17035885 -28.875 77.125 C-32.28095596 75.89885585 -33.58879049 76.15587019 -37 77 C-36.99333817 76.0494574 -36.99333817 76.0494574 -36.98654175 75.07971191 C-36.94215924 68.46071639 -36.91207172 61.84176342 -36.89013672 55.22265625 C-36.88010374 52.75519085 -36.86647427 50.28773727 -36.84912109 47.8203125 C-36.82475408 44.26559526 -36.81348958 40.71103578 -36.8046875 37.15625 C-36.79436493 36.06010376 -36.78404236 34.96395752 -36.77340698 33.83459473 C-36.70725493 23.9867183 -36.70725493 23.9867183 -40.3125 15 C-48.28932935 10.27299001 -61.61919899 21.54515127 -67 27 Z " fill="#000000" transform="translate(183,58)"/>
<path d="M0 0 C10.61229529 9.10052967 16.66701381 20.0459506 21.4375 32.9375 C21.79972656 33.89914062 22.16195312 34.86078125 22.53515625 35.8515625 C26.76757883 49.51342888 26.22840359 66.9034286 20.4375 79.9375 C20.03660156 80.86304688 19.63570312 81.78859375 19.22265625 82.7421875 C11.4325686 98.68364222 -3.40733158 110.2737402 -19.5625 116.9375 C-39.03820234 123.44325756 -58.83372783 124.63650303 -77.8125 115.8125 C-84.31520799 112.35361277 -89.44200122 108.19639064 -94.5625 102.9375 C-95.18511719 102.34710938 -95.80773437 101.75671875 -96.44921875 101.1484375 C-108.87367879 88.47269624 -114.74397547 68.30712641 -114.64013672 50.97851562 C-113.959236 33.07810678 -106.16000916 19.258748 -93.5625 6.9375 C-92.92828125 6.27105469 -92.2940625 5.60460937 -91.640625 4.91796875 C-68.14543966 -18.10939211 -25.47867999 -19.52308259 0 0 Z M-62.8984375 23.12109375 C-65.4441359 25.89984904 -66.44623866 28.15688813 -67 31.875 C-66.77924783 35.11793273 -66.77924783 35.11793273 -64.4375 37.875 C-61.75084842 40.17390584 -61.75084842 40.17390584 -58.625 40.1875 C-54.8687519 38.65433751 -53.45872809 36.65588361 -51 33.53125 C-49.5625 31.9375 -49.5625 31.9375 -47 30.9375 C-44.38592639 30.9375 -42.09157222 31.28716714 -39.5625 31.9375 C-38.38585129 35.46744613 -38.36399397 38.23205413 -38.5625 41.9375 C-40.5625 44.9375 -40.5625 44.9375 -43.0234375 45.52734375 C-43.98507812 45.64207031 -44.94671875 45.75679688 -45.9375 45.875 C-49.35958667 46.42593804 -51.27820637 46.74797091 -54.1875 48.6875 C-55.93762382 51.55133897 -56.49250545 53.57776168 -56.5625 56.9375 C-54.92964299 60.07399513 -53.90487969 60.82846188 -50.49609375 61.9140625 C-49.34238281 62.12804687 -48.18867188 62.34203125 -47 62.5625 C-40.7536967 63.7463033 -40.7536967 63.7463033 -38.5625 65.9375 C-38.3671875 68.3203125 -38.3671875 68.3203125 -38.4375 71.0625 C-38.45554687 71.97257812 -38.47359375 72.88265625 -38.4921875 73.8203125 C-38.51539063 74.51898438 -38.53859375 75.21765625 -38.5625 75.9375 C-42.20032632 77.15010877 -44.73985999 77.33294552 -48.5625 76.9375 C-51.25 74.625 -51.25 74.625 -53.5625 71.9375 C-55.38687884 70.00538056 -55.38687884 70.00538056 -57.5625 68.9375 C-60.67282079 69.06445187 -62.76328043 69.45796826 -65.4375 71.0625 C-67.33878671 74.23131118 -67.09815315 76.30696201 -66.5625 79.9375 C-63.65646976 85.94329584 -59.23006885 89.42598154 -53.20703125 92.08984375 C-46.34571951 94.28911206 -40.08406778 93.534571 -33.671875 90.33984375 C-28.36882966 86.81430064 -24.49765627 82.00644081 -22.5625 75.9375 C-21.63968493 68.15795434 -22.49171227 62.59878901 -26.5625 55.9375 C-26.8925 55.2775 -27.2225 54.6175 -27.5625 53.9375 C-26.81139506 52.40583502 -25.98514232 50.91069769 -25.125 49.4375 C-21.94407363 43.26223791 -21.41921986 38.2691825 -23.19140625 31.5546875 C-25.7218333 24.85983566 -30.3891493 20.37473681 -36.515625 16.796875 C-46.90540377 12.43475414 -55.04827436 16.13100825 -62.8984375 23.12109375 Z " fill="#000000" transform="translate(455.5625,346.0625)"/>
</svg>
