<?xml version="1.0" encoding="UTF-8"?>
<svg version="1.1" xmlns="http://www.w3.org/2000/svg" width="512" height="512">
<path d="M0 0 C3.26250137 1.89818262 5.38735287 3.29284844 6.6953125 6.9375 C7.30732208 10.37517081 7.2081212 12.49125928 5.875 15.75 C2.50839557 19.78992532 -1.63909213 22.46023682 -6.125 25.125 C-28.1769963 39.12579765 -40.9076271 62.6616196 -46.61376953 87.69238281 C-49.0416893 99.39483296 -50.51569949 111.12559592 -52 123 C25.22 123 102.44 123 182 123 C178.05544241 88.81383421 173.0178372 58.68127437 148 34 C147.00033203 33.00226563 147.00033203 33.00226563 145.98046875 31.984375 C141.12871934 27.44926607 135.58363319 24.19175135 129.85546875 20.89453125 C127.119891 19.07954464 125.58993736 17.84228528 124 15 C123.09425662 10.43864369 123.40737874 6.94819402 125.875 3 C128.99640263 0.06220929 131.2926506 -0.47614594 135.60546875 -0.3984375 C151.04305044 2.17029551 167.69296192 19.37892934 176.76171875 31.60546875 C196.75421708 59.96516999 203.84864886 94.18871977 204.3125 128.4375 C204.33022461 129.22455322 204.34794922 130.01160645 204.36621094 130.82250977 C204.36021076 135.40214459 203.96304851 138.4430507 201 142 C196.25649577 145.90271536 191.37384715 145.42017772 185.53053284 145.38095093 C184.46468694 145.3856309 183.39884105 145.39031087 182.30069679 145.39513266 C178.72320642 145.40711469 175.14609684 145.39761259 171.56860352 145.38818359 C169.00620296 145.39224788 166.44380416 145.39758895 163.88140869 145.40411377 C157.64024319 145.41638765 151.39921908 145.41457112 145.15805168 145.40587585 C140.08527246 145.399101 135.01252358 145.39818172 129.93974113 145.4014473 C129.21778164 145.401907 128.49582214 145.40236669 127.75198508 145.40284032 C126.28533013 145.4037995 124.81867519 145.40477214 123.35202026 145.4057581 C109.59772196 145.41431357 95.84348364 145.40447572 82.08919518 145.388357 C70.28916973 145.37495651 58.48923283 145.37727937 46.68920898 145.39111328 C32.98571802 145.40717123 19.28227965 145.41348658 5.57878059 145.40427649 C4.11721195 145.40332085 2.65564329 145.40237774 1.19407463 145.4014473 C0.11540428 145.40075306 0.11540428 145.40075306 -0.98505739 145.40004479 C-6.05082115 145.39745533 -11.11655152 145.401825 -16.1823101 145.40888596 C-23.00228834 145.41818306 -29.82207353 145.41155466 -36.64204407 145.39420319 C-39.14705184 145.39023203 -41.65207367 145.39138308 -44.15707588 145.39799118 C-47.57275801 145.40617169 -50.98790151 145.39592661 -54.40354919 145.38095093 C-55.39819905 145.38764309 -56.39284891 145.39433526 -57.41763967 145.40123022 C-62.67556002 145.35642337 -66.49975198 145.04014043 -71 142 C-79.09358724 129.85961913 -72.32310584 100.45590495 -69.64599609 87.00878906 C-62.85321586 55.37076051 -48.15667779 25.42900279 -20.36401367 7.12939453 C-7.16973345 -1.30734103 -7.16973345 -1.30734103 0 0 Z " fill="#000000" transform="translate(137,250)"/>
<path d="M0 0 C13.02533048 10.90648392 22.29564899 27.28235832 24.59375 44.16015625 C26.33207751 64.58363929 23.2414406 84.23133004 9.98046875 100.48828125 C-2.5164311 114.94298409 -18.72369797 125.90932594 -38.22607422 127.37158203 C-60.3903981 128.36115578 -79.06387317 124.27520557 -96.078125 109.375 C-110.39787942 95.75201215 -119.12613751 77.70093981 -119.76000977 57.82983398 C-119.9483332 38.5927035 -113.86593992 21.85015211 -101.40625 7.16015625 C-100.79136719 6.43183594 -100.17648438 5.70351562 -99.54296875 4.953125 C-73.19048879 -23.65652669 -29.530207 -22.57910308 0 0 Z M-87.40625 24.16015625 C-96.60703565 36.63961831 -98.95003544 49.99930488 -97.40625 65.16015625 C-95.04934571 77.65593283 -87.52882065 89.47984502 -77.09375 96.77734375 C-64.77120443 104.51744269 -52.05376954 108.12722405 -37.46875 105.6640625 C-22.77671732 101.97018496 -10.34128849 93.2236929 -2.40625 80.16015625 C4.14335631 66.02321379 5.81241181 52.04520301 0.59375 37.16015625 C-5.20502205 23.61110232 -14.93659932 13.82101791 -28.36328125 7.84375 C-50.06294599 0.01003455 -72.63884814 6.67169762 -87.40625 24.16015625 Z " fill="#000000" transform="translate(249.40625,128.83984375)"/>
<path d="M0 0 C1.49716805 -0.00639748 1.49716805 -0.00639748 3.02458191 -0.01292419 C4.11351242 -0.01247101 5.20244293 -0.01201782 6.32437134 -0.0115509 C8.05180321 -0.01658882 8.05180321 -0.01658882 9.81413269 -0.02172852 C13.62696405 -0.03123947 17.4397515 -0.03318169 21.25259399 -0.03425598 C23.90051288 -0.0374684 26.54843159 -0.04083246 29.1963501 -0.04434204 C34.74960618 -0.05073537 40.30285035 -0.0522247 45.85610962 -0.05158997 C52.26811313 -0.05098936 58.68003246 -0.06153907 65.09201467 -0.07733363 C70.60297553 -0.0904234 76.11390892 -0.09577326 81.6248852 -0.09513456 C84.91369875 -0.09487998 88.20242074 -0.09863196 91.49122238 -0.10831261 C95.16093696 -0.11810312 98.83043456 -0.11523801 102.50015259 -0.10920715 C104.12747566 -0.11763641 104.12747566 -0.11763641 105.78767395 -0.12623596 C112.01051935 -0.10023187 117.02215158 0.22665704 122.41665649 3.63371277 C124.99259129 7.59668937 124.9231846 11.55569288 124.04165649 16.13371277 C121.85142732 18.95795565 120.21148443 20.5487988 117.04165649 22.13371277 C115.40586118 22.23284617 113.76606115 22.26877453 112.12727356 22.27415466 C111.08839493 22.27986481 110.0495163 22.28557495 108.97915649 22.29145813 C107.26248779 22.29313492 107.26248779 22.29313492 105.51113892 22.29484558 C104.30943558 22.29981049 103.10773224 22.30477539 101.86961365 22.30989075 C98.56783252 22.32201254 95.26611484 22.32946111 91.96431899 22.33390141 C89.90155179 22.33683148 87.83879017 22.34093619 85.77602577 22.34540558 C79.32233842 22.3590831 72.86866379 22.36874813 66.41496295 22.37260747 C58.96487634 22.37708705 51.51497332 22.39462904 44.06494254 22.42360806 C38.30690611 22.44522801 32.54892132 22.45531194 26.79084474 22.45664859 C23.35164831 22.45769653 19.91262439 22.46360164 16.47347069 22.4814682 C12.63570618 22.50101714 8.79817079 22.49665864 4.96035767 22.49015808 C3.82198456 22.49937286 2.68361145 22.50858765 1.51074219 22.51808167 C0.46340408 22.51251251 -0.58393402 22.50694336 -1.66300964 22.50120544 C-3.0238277 22.50340528 -3.0238277 22.50340528 -4.41213703 22.50564957 C-8.52544178 21.90479908 -11.16093693 20.06402044 -13.83334351 16.94621277 C-15.35375563 13.14518246 -15.23294487 9.95751686 -13.95834351 6.13371277 C-9.77943415 0.82536845 -6.47769851 0.01253438 0 0 Z " fill="#000000" transform="translate(323.9583435058594,167.8662872314453)"/>
<path d="M0 0 C0.86745346 -0.00525696 1.73490692 -0.01051392 2.62864685 -0.01593018 C5.48446885 -0.02908963 8.33972937 -0.02040568 11.19555664 -0.01025391 C13.18803514 -0.01227599 15.18051292 -0.01518855 17.17298889 -0.01895142 C21.34488993 -0.02336944 25.51659799 -0.01696114 29.68847656 -0.00292969 C35.02598681 0.01415067 40.36304409 0.00432488 45.70053768 -0.01364708 C49.81416715 -0.02450846 53.92768996 -0.02102757 58.04132271 -0.0132637 C60.00883602 -0.01126763 61.97635914 -0.01370007 63.94386101 -0.02070236 C66.69851043 -0.02835432 69.45243551 -0.0166598 72.20703125 0 C73.01400452 -0.00607269 73.82097778 -0.01214539 74.65240479 -0.0184021 C79.87268311 0.0398402 83.55377413 0.88407356 88.16821289 3.38818359 C90.98546522 7.61406209 90.96779673 11.42443047 90.16821289 16.38818359 C87.97798372 19.21242648 86.33804082 20.80326963 83.16821289 22.38818359 C80.26561702 22.49725269 77.38664999 22.54551869 74.48339844 22.54931641 C73.13438446 22.55676376 73.13438446 22.55676376 71.75811768 22.56436157 C68.77371463 22.57900338 65.78936475 22.58578883 62.80493164 22.59130859 C60.73468524 22.59705873 58.66443886 22.60281648 56.5941925 22.60858154 C52.24882763 22.61909751 47.90348129 22.62493616 43.55810547 22.62841797 C37.98940595 22.63390157 32.42095109 22.65792432 26.8523283 22.68638992 C22.57409449 22.70501258 18.29591962 22.71022173 14.0176487 22.71175385 C11.96473669 22.71478213 9.91182577 22.72281657 7.85895348 22.73593903 C4.98618338 22.75299031 2.11401108 22.75112136 -0.75878906 22.74462891 C-1.60728928 22.75384369 -2.45578949 22.76305847 -3.33000183 22.77255249 C-9.04720833 22.73206931 -12.42523309 21.71175299 -16.64428711 17.63818359 C-18.36047036 14.38646795 -18.21340799 12.01358197 -17.83178711 8.38818359 C-16.46014688 5.03528525 -15.33336569 3.70423422 -12.2665863 1.77182007 C-8.00251935 0.05413055 -4.54696078 -0.0341315 0 0 Z " fill="#000000" transform="translate(357.831787109375,249.61181640625)"/>
<path d="M0 0 C0.98129379 -0.00953201 1.96258759 -0.01906403 2.97361755 -0.02888489 C4.02267776 -0.02797348 5.07173798 -0.02706207 6.15258789 -0.02612305 C7.24108536 -0.03040817 8.32958282 -0.0346933 9.45106506 -0.03910828 C11.74992173 -0.04484371 14.04879653 -0.04535765 16.34765625 -0.04101562 C19.85912112 -0.0378563 23.36974278 -0.06132336 26.88110352 -0.08666992 C29.11743058 -0.08894309 31.3537599 -0.08964633 33.59008789 -0.08862305 C34.63712387 -0.09783279 35.68415985 -0.10704254 36.76292419 -0.11653137 C42.20483571 -0.08209929 46.30149838 0.07965468 50.93774414 3.2746582 C53.75770824 7.50460436 53.73005603 11.30686269 52.93774414 16.2746582 C50.41098375 19.62090844 48.89840872 20.95443668 44.93774414 22.2746582 C43.29240986 22.37675532 41.64332283 22.42306225 39.99487305 22.43579102 C38.99017975 22.44539856 37.98548645 22.4550061 36.9503479 22.46490479 C35.86595428 22.46915466 34.78156067 22.47340454 33.66430664 22.4777832 C31.99046402 22.48633331 31.99046402 22.48633331 30.2828064 22.49505615 C27.92072498 22.50450654 25.55863038 22.51104029 23.1965332 22.51489258 C19.58399463 22.52460109 15.97202423 22.55562603 12.35961914 22.5871582 C10.06535169 22.59368802 7.77108016 22.59893857 5.47680664 22.6027832 C3.85628891 22.62130341 3.85628891 22.62130341 2.20303345 22.64019775 C-4.26974153 22.62098363 -8.01841917 22.10857512 -12.87475586 17.5871582 C-14.62267278 14.18332 -14.72376491 10.97175877 -14.06225586 7.2746582 C-10.72287607 1.58534449 -6.39918036 0.03432131 0 0 Z " fill="#000000" transform="translate(395.062255859375,331.725341796875)"/>
</svg>
