<?xml version="1.0" encoding="UTF-8"?>
<svg version="1.1" xmlns="http://www.w3.org/2000/svg" width="512" height="512">
<path d="M0 0 C0.67412259 -0.00467997 1.34824517 -0.00935994 2.04279572 -0.01418173 C4.28280973 -0.02606779 6.52220465 -0.01670012 8.76222229 -0.00723267 C10.37587336 -0.01130127 11.98952164 -0.01664476 13.60316467 -0.02316284 C17.97305248 -0.03680908 22.34272718 -0.03154866 26.71261859 -0.02202559 C31.29329155 -0.01441372 35.87394666 -0.02147896 40.45462036 -0.02618408 C48.14719406 -0.03163774 55.83968127 -0.02446084 63.53224182 -0.01016235 C72.41469746 0.00615761 81.29694643 0.00087885 90.17939705 -0.01564157 C97.816136 -0.02927448 105.45281289 -0.0311671 113.08956009 -0.02332556 C117.64600863 -0.01865822 122.20236018 -0.01799819 126.75880241 -0.02793503 C131.04428865 -0.03662851 135.32950963 -0.03053947 139.61496735 -0.01325226 C141.18385186 -0.00929985 142.75275885 -0.01040003 144.32163429 -0.01704025 C154.49638523 -0.05611991 163.47302383 0.04869327 171.23039246 7.46903992 C177.48346566 14.42943488 179.1533161 23.50540776 180.73707581 32.43173218 C180.96704254 33.64870285 181.19700928 34.86567352 181.4339447 36.11952209 C182.1611434 39.97501193 182.86874306 43.8337123 183.57301331 47.69345093 C184.28622568 51.57064085 185.00387564 55.44680261 185.73350525 59.32093811 C186.18542522 61.7230589 186.62774513 64.12701079 187.05924988 66.53288269 C187.2631131 67.62139023 187.46697632 68.70989777 187.67701721 69.83139038 C187.93752365 71.2617437 187.93752365 71.2617437 188.20329285 72.72099304 C189.29310994 76.61355104 190.4475594 79.51315028 194.04096985 81.59143066 C198.14220096 82.70527885 202.26218386 83.37364865 206.46070862 84.01327515 C207.4125856 84.16319916 208.36446259 84.31312317 209.34518433 84.46759033 C211.40838954 84.79198433 213.47200389 85.11378452 215.5359726 85.43328476 C218.80797295 85.94057406 222.0785414 86.45629196 225.34883118 86.9744873 C234.64606275 88.44648923 243.94520316 89.90608326 253.24635315 91.3531189 C258.94021616 92.23955551 264.6320384 93.13823397 270.32279205 94.04440689 C272.48607455 94.38635644 274.65010239 94.72362615 276.81487274 95.05602646 C279.85109333 95.52249903 282.88448662 96.00449546 285.91773987 96.48983765 C286.80325027 96.62192627 287.68876068 96.75401489 288.60110474 96.8901062 C297.06718051 98.27630652 304.91181628 101.07038131 310.94801331 107.38095093 C315.66469831 114.58965815 316.6935364 120.89413474 316.61207581 129.38095093 C316.61685944 130.49727905 316.62164307 131.61360718 316.62657166 132.76376343 C316.62995489 135.11013204 316.62086382 137.45654881 316.59986877 139.80282593 C316.57308338 143.37161476 316.59967355 146.93725863 316.63160706 150.50595093 C316.62830268 152.79762446 316.62189588 155.08929605 316.61207581 157.38095093 C316.62219696 158.43540405 316.63231812 159.48985718 316.64274597 160.57626343 C316.51301134 168.87397449 314.40391844 175.63054257 308.70191956 181.81845093 C307.97875549 182.33407593 307.25559143 182.84970093 306.51051331 183.38095093 C305.4296344 184.18532593 305.4296344 184.18532593 304.32691956 185.00595093 C299.20856499 187.96434306 294.60783931 188.62885066 288.74928284 188.60800171 C288.05590317 188.60829376 287.3625235 188.60858582 286.64813232 188.60888672 C284.37556574 188.60750278 282.10333452 188.59198631 279.83082581 188.57626343 C278.2475655 188.57252996 276.66430288 188.56968456 275.08103943 188.56768799 C270.92833497 188.56007781 266.775772 188.54045199 262.62312317 188.51828003 C258.37987685 188.49776506 254.1366075 188.48867422 249.89332581 188.47860718 C241.57815695 188.45720346 233.26310277 188.42309935 224.94801331 188.38095093 C224.66885071 189.59005127 224.66885071 189.59005127 224.38404846 190.82357788 C224.001922 192.42398926 224.001922 192.42398926 223.61207581 194.05673218 C223.36409241 195.11029907 223.11610901 196.16386597 222.86061096 197.24935913 C219.69221545 208.12175326 211.00486732 217.78487454 201.20582581 223.31845093 C187.56414531 229.73806528 172.1831424 230.83383465 157.91285706 225.70516968 C143.64122682 219.33088424 135.67582195 209.73283305 129.94801331 195.38095093 C129.61801331 193.07095093 129.28801331 190.76095093 128.94801331 188.38095093 C93.96801331 188.38095093 58.98801331 188.38095093 22.94801331 188.38095093 C22.28801331 191.68095093 21.62801331 194.98095093 20.94801331 198.38095093 C15.67052406 211.35409787 6.68032618 220.03410763 -6.01683044 225.70516968 C-19.12367877 230.41570155 -34.34319766 230.18599779 -47.05198669 224.38095093 C-59.83940344 217.57145538 -67.65932672 208.18106724 -72.05198669 194.38095093 C-72.40187498 192.38378061 -72.73738789 190.38398331 -73.05198669 188.38095093 C-73.9214946 188.38983337 -74.7910025 188.39871582 -75.68685913 188.40786743 C-83.91032548 188.48825775 -92.13365847 188.54903903 -100.35742855 188.58819962 C-104.58464356 188.60900988 -108.8115319 188.63720615 -113.03855896 188.68270874 C-117.12346131 188.72640258 -121.20805088 188.7501373 -125.29316902 188.7604599 C-126.84599793 188.76780932 -128.39881114 188.78216047 -129.95150566 188.80387115 C-140.30355657 188.94276717 -147.57928123 187.95925835 -156.30198669 182.25595093 C-164.35110538 173.84096321 -164.79226525 164.72715777 -164.68089294 153.62704468 C-164.68172361 152.11589894 -164.68419045 150.60475331 -164.6882019 149.09361267 C-164.69104454 145.94244862 -164.67650954 142.79200138 -164.64891052 139.64096069 C-164.61479992 135.62405523 -164.62086988 131.60842723 -164.6395731 127.59146023 C-164.65019539 124.476207 -164.64115874 121.36124554 -164.62618828 118.24601936 C-164.62104621 116.76581758 -164.62143936 115.28558483 -164.62773323 113.8053875 C-164.65295804 104.3127508 -164.12942996 96.50551971 -158.04417419 88.85751343 C-157.34550232 88.2464978 -156.64683044 87.63548218 -155.92698669 87.00595093 C-155.24378357 86.37946655 -154.56058044 85.75298218 -153.85667419 85.10751343 C-146.76092688 80.73937929 -139.07435154 79.94189918 -130.90818787 80.02792358 C-129.94915558 80.0257634 -128.99012329 80.02360321 -128.00202942 80.02137756 C-125.93905788 80.01831115 -123.87606776 80.02183504 -121.81311607 80.03139114 C-118.54686176 80.04521701 -115.28120891 80.03864219 -112.01495361 80.02655029 C-102.73567077 79.9956977 -93.45653311 80.00053167 -84.17723083 80.02059937 C-78.48564934 80.03150557 -72.79452437 80.01835935 -67.10300636 79.99070358 C-64.93846738 79.98526232 -62.77388273 79.98932865 -60.60938072 80.00310135 C-57.58868184 80.02211461 -54.56948522 80.01077439 -51.54881287 79.99276733 C-50.21075844 80.0127755 -50.21075844 80.0127755 -48.84567261 80.03318787 C-44.54501603 79.97612528 -42.61100827 79.79037538 -39.05206299 77.18382263 C-36.97814749 74.27747396 -36.18428436 72.4088568 -35.55393982 68.92318726 C-35.35022766 67.85470047 -35.1465155 66.78621368 -34.93663025 65.68534851 C-34.73751038 64.53946762 -34.5383905 63.39358673 -34.33323669 62.21298218 C-33.99540161 60.42799568 -33.99540161 60.42799568 -33.65074158 58.60694885 C-32.93265719 54.80562309 -32.23994599 51.00033555 -31.55198669 47.19345093 C-30.86252231 43.40477417 -30.16710872 39.61766838 -29.45323181 35.83351135 C-29.0099828 33.4821451 -28.58053992 31.12811892 -28.16734314 28.77128601 C-26.39349514 19.33007036 -23.69451909 10.90865623 -16.09104919 4.63485718 C-10.69160097 1.31450683 -6.3397007 0.00597595 0 0 Z M-8.05198669 21.38095093 C-9.19955174 23.5550773 -9.19955174 23.5550773 -9.73191833 25.96078491 C-9.96162323 26.84201019 -10.19132813 27.72323547 -10.42799377 28.63116455 C-11.44356808 33.10655571 -12.35024647 37.58887969 -13.17308044 42.10360718 C-13.55492412 44.12645365 -13.93709545 46.14923829 -14.31956482 48.17196655 C-14.90733253 51.31319564 -15.49160893 54.45498708 -16.06980896 57.59799194 C-16.63616839 60.66427675 -17.2162799 63.7277201 -17.79808044 66.79110718 C-18.04829201 68.18366478 -18.04829201 68.18366478 -18.30355835 69.60435486 C-20.29579915 79.99853423 -23.41669911 87.24073964 -32.11448669 93.63095093 C-35.92913253 95.9035059 -38.89295544 96.50350334 -43.28901672 96.51898193 C-44.54638138 96.52716194 -44.54638138 96.52716194 -45.82914734 96.5355072 C-46.74041382 96.53654953 -47.6516803 96.53759186 -48.59056091 96.53866577 C-49.55686432 96.54374649 -50.52316772 96.54882721 -51.51875305 96.55406189 C-53.61619538 96.5647574 -55.71364906 96.57338079 -57.81110764 96.58018112 C-61.13162435 96.59197706 -64.45201142 96.61143136 -67.7724762 96.63330078 C-77.21309599 96.6948971 -86.65370192 96.7489773 -96.09446716 96.78231812 C-101.86986135 96.80326344 -107.64501811 96.83856426 -113.42027664 96.88307571 C-115.62024771 96.8972351 -117.82026077 96.90595801 -120.02027512 96.9091301 C-123.09864402 96.91403897 -126.17638261 96.93719648 -129.25462341 96.96444702 C-130.16184143 96.96144089 -131.06905945 96.95843475 -132.00376892 96.95533752 C-137.07760687 97.02203402 -140.69030034 97.49455335 -145.05198669 100.38095093 C-148.87279486 106.41518584 -148.48811552 112.66024273 -148.45042419 119.63095093 C-148.45329437 120.80303101 -148.45616455 121.97511108 -148.4591217 123.18270874 C-148.46115759 125.65374232 -148.45566112 128.12479219 -148.44309998 130.59579468 C-148.42704056 134.36829826 -148.44296589 138.13973049 -148.46214294 141.91220093 C-148.46016043 144.31845328 -148.45631659 146.72470497 -148.45042419 149.13095093 C-148.45649689 150.25404663 -148.46256958 151.37714233 -148.46882629 152.53427124 C-148.39391625 162.14210473 -148.39391625 162.14210473 -143.36268616 170.0422821 C-140.23601575 171.85367137 -137.96005006 171.74155128 -134.35569763 171.7215271 C-133.69187073 171.72196518 -133.02804382 171.72240326 -132.34410095 171.72285461 C-130.15788487 171.72077064 -127.9724432 171.69745948 -125.78636169 171.67391968 C-124.26750609 171.6683223 -122.74864506 171.66405287 -121.2297821 171.66105652 C-117.23807237 171.64961883 -113.24669169 171.6201612 -109.25511169 171.58694458 C-105.17963614 171.55622033 -101.10410726 171.54254617 -97.02854919 171.5274353 C-89.03621093 171.49529021 -81.04413978 171.44410717 -73.05198669 171.38095093 C-72.72947937 170.43340942 -72.40697205 169.48586792 -72.07469177 168.50961304 C-71.63646525 167.24655855 -71.19788863 165.98362549 -70.75901794 164.72079468 C-70.12056946 162.86635742 -70.12056946 162.86635742 -69.46922302 160.97445679 C-65.03316789 149.72651613 -56.63083358 141.48972862 -45.74729919 136.44735718 C-31.55235712 130.83109749 -18.10652915 131.04256445 -3.94651794 136.59970093 C9.05043149 142.52986797 15.65301371 151.50280788 20.94801331 164.38095093 C21.93801331 167.84595093 21.93801331 167.84595093 22.94801331 171.38095093 C57.92801331 171.38095093 92.90801331 171.38095093 128.94801331 171.38095093 C130.26801331 167.42095093 131.58801331 163.46095093 132.94801331 159.38095093 C139.95363942 146.00657381 149.30256474 138.16740458 163.65113831 133.50204468 C176.87800286 130.45133237 190.57986323 132.37781841 202.50270081 138.81845093 C213.29659234 145.71550622 218.75604607 154.24137095 223.03248596 166.07870483 C223.57106735 167.567285 223.57106735 167.567285 224.12052917 169.0859375 C224.39359894 169.84329193 224.6666687 170.60064636 224.94801331 171.38095093 C233.72768731 171.47370118 242.50719222 171.54474105 251.28724957 171.58819962 C255.36436985 171.60905945 259.44115452 171.63734712 263.51808167 171.68270874 C267.45383812 171.72622474 271.38927213 171.75010011 275.32525063 171.7604599 C276.82556547 171.76784104 278.325863 171.78225496 279.82604027 171.80387115 C281.93047862 171.83298355 284.03359098 171.83690394 286.13819885 171.83505249 C287.33510849 171.84393494 288.53201813 171.85281738 289.76519775 171.86196899 C293.59801638 171.28271614 295.22218762 170.08673194 297.94801331 167.38095093 C300.30985759 162.50169178 300.18972899 157.80304741 300.07301331 152.50595093 C300.05947815 151.33032593 300.05947815 151.33032593 300.04566956 150.13095093 C300.02229394 148.21415038 299.98642984 146.29750902 299.94801331 144.38095093 C298.9599469 144.37160522 297.97188049 144.36225952 296.95387268 144.35263062 C293.2558383 144.31248157 289.55861426 144.24665699 285.86109924 144.1734314 C284.26680483 144.1453651 282.67237499 144.1240798 281.07789612 144.10995483 C264.55571652 143.95486554 264.55571652 143.95486554 257.94801331 139.38095093 C254.11851642 135.25687735 252.84483464 132.69830562 252.63160706 127.15438843 C252.58971252 126.12313843 252.54781799 125.09188843 252.50465393 124.02938843 C252.46533752 122.94915405 252.42602112 121.86891968 252.38551331 120.75595093 C252.34232971 119.66798218 252.29914612 118.58001343 252.25465393 117.45907593 C252.14836801 114.76649923 252.04633273 112.0738284 251.94801331 109.38095093 C245.57205549 107.33547643 239.12369018 106.36463871 232.51441956 105.35751343 C230.06707079 104.97262504 227.6198077 104.58719159 225.17262268 104.20126343 C221.33779344 103.60097375 217.50248161 103.00472289 213.6655426 102.4180603 C209.94652193 101.84733486 206.23044017 101.25991474 202.51441956 100.67001343 C201.37461136 100.50006866 200.23480316 100.3301239 199.06045532 100.1550293 C191.0592516 98.86772329 183.65682736 97.10139935 178.13551331 90.69345093 C177.59281799 90.09145874 177.05012268 89.48946655 176.49098206 88.86923218 C172.18499998 81.92515475 171.0334902 73.46996293 169.57301331 65.55673218 C169.14084702 63.28913015 168.70855152 61.02155275 168.27613831 58.7539978 C167.60851479 55.21278678 166.94382835 51.67105193 166.28199768 48.12875366 C165.63654968 44.68660234 164.98030791 41.24663787 164.32301331 37.80673218 C164.03224915 36.22218987 164.03224915 36.22218987 163.73561096 34.6056366 C162.17210291 25.89995816 162.17210291 25.89995816 157.25076962 18.75059414 C154.19572319 16.93350061 152.04944728 17.0007335 148.50234985 16.99327087 C147.85725871 16.98788534 147.21216757 16.9824998 146.54752821 16.97695106 C144.38794129 16.96265408 142.22896584 16.96977906 140.0693512 16.97689819 C138.52023831 16.97119549 136.97112963 16.96423162 135.42202759 16.95610046 C131.21539084 16.93814248 127.00896237 16.93934239 122.80229878 16.94504285 C119.29078524 16.94813097 115.77931191 16.94204643 112.26780409 16.9360041 C103.98384572 16.92195175 95.69999046 16.92352599 87.41603088 16.93490601 C78.86924034 16.94638762 70.32276358 16.93231254 61.77601439 16.90550953 C54.43831422 16.88335953 47.10071259 16.87671357 39.76298136 16.88258594 C35.38036394 16.88595846 30.99794767 16.88352103 26.61535835 16.86633492 C22.49401313 16.85087897 18.37313302 16.85480599 14.25180626 16.87364006 C12.73971267 16.87732976 11.22758473 16.87420633 9.71552277 16.86375427 C7.65003149 16.85056732 5.58608526 16.86206844 3.5206604 16.87974548 C2.36531831 16.87995477 1.20997622 16.88016405 0.01962376 16.88037968 C-3.71457515 17.488931 -5.37123208 18.76215868 -8.05198669 21.38095093 Z M267.94801331 111.38095093 C267.92108846 113.67255412 267.90165207 115.96424639 267.88551331 118.25595093 C267.87391174 119.5321228 267.86231018 120.80829468 267.85035706 122.12313843 C267.71624761 125.26759744 267.71624761 125.26759744 268.94801331 127.38095093 C279.17801331 127.38095093 289.40801331 127.38095093 299.94801331 127.38095093 C298.75058219 119.85241493 298.75058219 119.85241493 295.69532776 116.96005249 C292.68796095 115.23147802 290.41578712 114.60709281 286.99098206 114.11532593 C285.87916565 113.9477478 284.76734924 113.78016968 283.62184143 113.60751343 C282.47135315 113.4502478 281.32086487 113.29298218 280.13551331 113.13095093 C278.96568909 112.95821655 277.79586487 112.78548218 276.59059143 112.60751343 C273.71147781 112.18446 270.83105861 111.77615846 267.94801331 111.38095093 Z M-50.58714294 160.33407593 C-56.22930587 168.95359014 -56.88486347 177.22828847 -56.05198669 187.38095093 C-54.22884049 195.53598215 -49.64738051 201.90789368 -43.02073669 206.91610718 C-35.75408331 211.43143709 -27.3265898 213.18500174 -18.86448669 211.81845093 C-9.36620978 209.38689204 -2.74421918 204.32328943 2.94801331 196.38095093 C7.2510561 188.8617931 8.02864483 178.9309002 5.79957581 170.63876343 C2.59389995 162.13931092 -2.36048911 155.26272185 -10.52073669 151.13095093 C-24.57987422 145.31337678 -40.85428402 147.95130376 -50.58714294 160.33407593 Z M151.94801331 159.38095093 C146.22273214 168.01887514 143.82099265 176.39508026 145.47926331 186.67391968 C147.77564283 195.74249252 152.338915 202.31269188 159.92457581 207.81454468 C167.67260951 212.16683522 176.65075799 213.19521033 185.24488831 211.26766968 C194.02958589 208.3859842 200.56889374 203.16769319 205.19801331 195.24032593 C209.03726369 187.1885647 209.29320228 178.0639965 207.25270081 169.44345093 C204.14626719 160.88118012 199.18249518 155.45946666 191.09254456 151.38095093 C190.38484924 151.05095093 189.67715393 150.72095093 188.94801331 150.38095093 C188.01988831 149.94782593 187.09176331 149.51470093 186.13551331 149.06845093 C173.46333191 146.33523533 160.42138238 149.11300369 151.94801331 159.38095093 Z " fill="#000000" transform="translate(180.05198669433594,248.61904907226563)"/>
<path d="M0 0 C1.29109177 -0.00852997 2.58218353 -0.01705994 3.91239929 -0.02584839 C5.33610547 -0.02514942 6.75981155 -0.02422638 8.18351746 -0.02310181 C9.68850029 -0.02908867 11.19348006 -0.03589459 12.69845581 -0.04345703 C16.78122776 -0.06110915 20.86391585 -0.0658121 24.94672227 -0.0670886 C27.49950101 -0.06851132 30.05225851 -0.07278322 32.60503197 -0.07808304 C41.51662421 -0.09658139 50.42815665 -0.10475398 59.33976746 -0.10317993 C67.63714116 -0.10197889 75.93425458 -0.12307423 84.23156244 -0.15466726 C91.36295186 -0.18084996 98.49425639 -0.19154638 105.6256935 -0.19026911 C109.88153498 -0.18976002 114.13714515 -0.19541364 118.39293861 -0.21662521 C122.39774005 -0.23604111 126.40209035 -0.23610947 130.40690804 -0.22159195 C131.87259839 -0.21950682 133.33831722 -0.22418716 134.80395889 -0.23631287 C144.01987399 -0.30759037 150.55708519 0.01372131 157.81315613 6.12680054 C158.34296082 6.75070679 158.8727655 7.37461304 159.41862488 8.01742554 C159.96132019 8.63101929 160.5040155 9.24461304 161.06315613 9.87680054 C165.34828891 16.51604425 166.52826104 24.16887528 167.91081238 31.81039429 C168.33326954 34.0403485 168.75646876 36.27016224 169.18034363 38.49984741 C169.83569293 41.98757602 170.4849866 45.47611496 171.1212616 48.96737671 C171.74214331 52.35605869 172.38715633 55.73943502 173.03581238 59.12289429 C173.31109268 60.68707344 173.31109268 60.68707344 173.5919342 62.28285217 C173.78208099 63.25769058 173.97222778 64.23252899 174.1681366 65.23690796 C174.32563385 66.08991989 174.4831311 66.94293182 174.645401 67.8217926 C176.02074802 71.32289634 177.63161119 72.955717 180.60612488 75.26742554 C183.5062967 76.29148468 186.42133978 76.72203803 189.46037292 77.14852905 C190.34236862 77.28913757 191.22436432 77.42974609 192.13308716 77.57461548 C195.04208946 78.03394743 197.95461271 78.46471233 200.86784363 78.89633179 C202.89973688 79.21378271 204.93129415 79.53339098 206.96252441 79.85505676 C212.31054019 80.69762943 217.66173491 81.51769078 223.01426697 82.33102417 C231.56344799 83.63164405 240.10874084 84.95650026 248.65130043 86.29987907 C251.62417607 86.76258964 254.5990993 87.20972556 257.57455444 87.65550232 C281.05484134 91.2577023 281.05484134 91.2577023 286.54362488 98.01742554 C287.06827332 98.63101929 287.59292175 99.24461304 288.13346863 99.87680054 C292.26395965 106.58200082 293.06511742 112.62379634 293.03971863 120.32211304 C293.04496048 121.2637027 293.05020233 122.20529236 293.05560303 123.17541504 C293.06199432 125.15708434 293.06072397 127.13879173 293.0521698 129.12045288 C293.043668 132.12717347 293.07244897 135.1319862 293.10417175 138.13851929 C293.10578443 140.07471664 293.10520496 142.01091731 293.10221863 143.94711304 C293.11345261 144.83285004 293.12468658 145.71858704 293.13626099 146.63116455 C293.05550722 153.985522 291.33131555 160.81177138 286.71159363 166.66976929 C286.07866394 167.17637085 285.44573425 167.68297241 284.79362488 168.20492554 C284.16842957 168.72957397 283.54323425 169.25422241 282.89909363 169.79476929 C276.65732546 173.80353692 271.59684719 174.72689725 264.31315613 174.70101929 C263.44470566 174.70626114 262.57625519 174.71150299 261.68148804 174.71690369 C259.85698003 174.72329424 258.03243066 174.72202557 256.20793152 174.71347046 C253.41609486 174.70491779 250.62627769 174.7338301 247.8346405 174.76547241 C246.05664632 174.76708359 244.27864853 174.76650848 242.50065613 174.76351929 C241.25213615 174.78037025 241.25213615 174.78037025 239.97839355 174.79756165 C234.21635567 174.72807839 234.21635567 174.72807839 231.08122253 172.36141968 C228.73914909 169.03669874 228.9315293 166.17847371 229.60612488 162.26742554 C231.34865832 159.031292 232.07798432 158.44347239 235.60612488 157.26742554 C238.22759593 157.14949585 240.82745131 157.0823386 243.44987488 157.05648804 C245.02150008 157.02843069 246.59311454 156.99976631 248.16471863 156.97055054 C250.64014003 156.92921971 253.11535839 156.89232756 255.59098816 156.86605835 C257.98186951 156.83849502 260.37184225 156.79264028 262.76237488 156.74398804 C263.50306213 156.74073517 264.24374939 156.7374823 265.00688171 156.73413086 C269.03317742 156.65887327 269.03317742 156.65887327 272.53385925 154.86264038 C276.19712902 149.41277593 274.91304045 141.5427163 274.95622253 135.15585327 C274.97277579 133.36047396 275.00005777 131.56516038 275.03825378 129.77011108 C275.09309411 127.17902513 275.11490636 124.58948286 275.12956238 121.99789429 C275.16356644 120.79920967 275.16356644 120.79920967 275.19825745 119.5763092 C275.18274217 115.47186076 274.94243259 113.73002553 272.45939636 110.31454468 C269.29168785 108.04182833 267.26397468 107.37700542 263.43034363 106.78305054 C262.15401062 106.57462524 260.87767761 106.36619995 259.56266785 106.15145874 C258.13967158 105.93999277 256.7166566 105.72865275 255.29362488 105.51742554 C253.794772 105.27877118 252.29624528 105.03806114 250.79801941 104.79550171 C247.39156926 104.24811097 243.98335669 103.71398012 240.57341003 103.18881226 C229.96493791 101.55475102 219.36496826 99.86667435 208.76496887 98.17868042 C205.02400744 97.58671127 201.28143055 97.0059634 197.53849792 96.42660522 C195.1938068 96.05743074 192.84915966 95.68797676 190.50456238 95.31820679 C189.43703232 95.15587051 188.36950226 94.99353424 187.2696228 94.82627869 C177.95225306 93.34077417 168.98637554 91.78090807 162.60612488 84.26742554 C158.46063294 78.15433262 157.23750161 72.10863793 155.87956238 64.91195679 C155.64580902 63.73276169 155.41205566 62.55356659 155.17121887 61.33863831 C154.42935459 57.58794352 153.70421792 53.83428045 152.98112488 50.07992554 C152.24854951 46.31538226 151.51236912 42.55162479 150.76960754 38.78907776 C150.30900818 36.45205772 149.85466055 34.11379492 149.40724182 31.7742157 C149.09649216 30.18687874 149.09649216 30.18687874 148.77946472 28.56747437 C148.60055695 27.63816605 148.42164917 26.70885773 148.23731995 25.75138855 C147.37061718 22.30242875 147.37061718 22.30242875 145.60612488 19.26742554 C141.53071159 17.62056352 138.06976291 17.01568748 133.69268799 17.00672913 C132.53340286 16.99964432 131.37411774 16.99255951 130.17970276 16.98526001 C128.92186981 16.98773743 127.66403687 16.99021484 126.36808777 16.99276733 C125.0189689 16.98841619 123.6698525 16.9832317 122.32073975 16.97727966 C118.66782098 16.96392209 115.01500588 16.96330733 111.36206746 16.96584296 C108.30794937 16.96691481 105.25385207 16.96202387 102.19973844 16.95723754 C94.99249262 16.94615371 87.78529892 16.94569871 80.57804871 16.95175171 C73.15260618 16.95779223 65.7273531 16.94547601 58.30194288 16.92418164 C51.91703972 16.90654715 45.53219676 16.90056716 39.14727014 16.90381938 C35.33808801 16.90562934 31.52904105 16.90302486 27.71988106 16.88910484 C24.13699353 16.87650081 20.55440073 16.87849466 16.97151756 16.89151573 C15.03702903 16.89499686 13.10253139 16.88372271 11.16807556 16.87194824 C4.91101653 16.90971503 0.07421493 17.08381357 -5.39387512 20.26742554 C-6.67593826 22.08527736 -6.67593826 22.08527736 -6.96028137 24.28305054 C-7.13245178 25.10724487 -7.30462219 25.93143921 -7.48200989 26.78060913 C-7.63855042 27.68375854 -7.79509094 28.58690796 -7.95637512 29.51742554 C-8.24242615 30.93595825 -8.24242615 30.93595825 -8.53425598 32.38314819 C-9.18866112 35.67220885 -9.79381903 38.96802621 -10.39387512 42.26742554 C-11.27585371 47.04149611 -12.17202255 51.81280633 -13.0735321 56.58322144 C-13.44944449 58.60514765 -13.80773604 60.62959135 -14.16365051 62.65512085 C-15.72715598 71.15963476 -17.21991624 79.1678509 -24.08137512 85.07992554 C-24.9843634 85.89396851 -24.9843634 85.89396851 -25.90559387 86.72445679 C-32.44827496 90.78153533 -39.25099522 91.71154533 -46.81330872 91.68392944 C-47.70713257 91.6925148 -48.60095642 91.70110016 -49.52186584 91.70994568 C-52.44543038 91.73482862 -55.36865226 91.73936786 -58.29231262 91.74398804 C-60.33493574 91.75831127 -62.37754924 91.77407065 -64.42015076 91.79119873 C-69.77497965 91.83290713 -75.12974889 91.85800288 -80.48469543 91.87869263 C-89.07621225 91.91461835 -97.66758222 91.97546022 -106.25894547 92.03718185 C-109.25862339 92.05627362 -112.25826183 92.06799901 -115.25798035 92.07861328 C-117.08892402 92.08882168 -118.91986687 92.09917928 -120.75080872 92.10971069 C-122.00382278 92.11127419 -122.00382278 92.11127419 -123.28215027 92.11286926 C-126.57261522 92.13631876 -129.25034702 92.21958284 -132.39387512 93.26742554 C-133.59037386 96.31549539 -133.52596315 99.37161189 -133.53913879 102.61508179 C-133.54551865 103.6829895 -133.5518985 104.75089722 -133.55847168 105.85116577 C-133.5595845 106.99915649 -133.56069733 108.14714722 -133.56184387 109.32992554 C-133.56517227 110.51336548 -133.56850067 111.69680542 -133.57192993 112.91610718 C-133.57699132 115.41764945 -133.5793385 117.91919846 -133.57917786 120.42074585 C-133.58136663 124.25256414 -133.59953728 128.0840956 -133.6184845 131.91586304 C-133.62141808 134.34554955 -133.62340311 136.77523743 -133.62434387 139.20492554 C-133.63152939 140.35291626 -133.6387149 141.50090698 -133.64611816 142.6836853 C-133.64304153 143.75159302 -133.6399649 144.81950073 -133.63679504 145.91976929 C-133.63822006 146.85812622 -133.63964508 147.79648315 -133.64111328 148.76327515 C-133.37900001 151.41808798 -132.82963452 153.03157864 -131.39387512 155.26742554 C-128.32388686 156.80241967 -125.08876555 156.44508662 -121.71809387 156.47836304 C-120.15232832 156.50643785 -118.58657325 156.53510236 -117.02082825 156.56430054 C-114.55216331 156.60551446 -112.08369277 156.64240076 -109.61482239 156.66879272 C-107.23216784 156.69647304 -104.85040331 156.74234912 -102.46809387 156.79086304 C-101.36784126 156.79574234 -101.36784126 156.79574234 -100.24536133 156.80072021 C-95.81038111 156.90660387 -92.92320321 157.53155773 -89.39387512 160.26742554 C-87.8291628 163.39685019 -87.69685554 166.87824777 -88.39387512 170.26742554 C-90.04344722 172.60561424 -91.36478541 174.0527712 -94.23382568 174.6512146 C-96.55872075 174.8147712 -98.85226093 174.84787888 -101.18293762 174.83383179 C-102.04140289 174.84003036 -102.89986816 174.84622894 -103.78434753 174.85261536 C-105.60160694 174.85971362 -107.41893137 174.85653933 -109.23616028 174.84384155 C-111.98920399 174.83007392 -114.73877991 174.86392421 -117.49153137 174.90219116 C-127.7026852 174.94744343 -136.35664735 174.80142056 -144.2771759 167.54110718 C-151.76173374 159.90253158 -151.85142228 150.82863813 -151.82746887 140.71273804 C-151.83271072 139.41601166 -151.83795258 138.11928528 -151.84335327 136.78326416 C-151.85224623 134.04823008 -151.84990612 131.31348857 -151.83992004 128.57846069 C-151.82844669 125.09969931 -151.84863455 121.62195557 -151.87783718 118.14332771 C-151.9007608 114.79141371 -151.89372505 111.43972818 -151.88996887 108.08773804 C-151.90120285 106.85202057 -151.91243683 105.6163031 -151.92401123 104.34313965 C-151.85713406 95.96888318 -150.80962699 88.59873976 -145.49934387 81.86508179 C-144.86641418 81.35848022 -144.2334845 80.85187866 -143.58137512 80.32992554 C-142.95617981 79.8052771 -142.3309845 79.28062866 -141.68684387 78.74008179 C-135.43394283 74.72416408 -130.41624409 73.82697684 -123.12556458 73.86679077 C-122.2238855 73.85981171 -121.32220642 73.85283264 -120.39320374 73.84564209 C-117.43109144 73.82574565 -114.46932936 73.82616584 -111.50715637 73.82601929 C-109.44165105 73.81424238 -107.37615423 73.80087739 -105.31066895 73.78599548 C-99.88548934 73.74986963 -94.46038511 73.72962317 -89.03511047 73.71444702 C-80.34121341 73.68957908 -71.64748279 73.65001026 -62.95374107 73.59254646 C-59.91806523 73.5762125 -56.88254666 73.57243985 -53.84683228 73.5695343 C-51.98921943 73.55975985 -50.13160906 73.54949687 -48.27400208 73.53866577 C-47.42976181 73.54121872 -46.58552155 73.54377167 -45.71569824 73.54640198 C-40.1680941 73.64500158 -40.1680941 73.64500158 -35.39387512 71.26742554 C-33.73883939 68.03594986 -32.9869706 64.79062886 -32.32820129 61.23690796 C-32.14428329 60.26206955 -31.9603653 59.28723114 -31.77087402 58.28285217 C-31.57814407 57.24006607 -31.38541412 56.19727997 -31.18684387 55.12289429 C-30.7611043 52.89685023 -30.33464953 50.67094286 -29.907547 48.44515991 C-29.2420673 44.95096226 -28.58159021 41.45608657 -27.93367004 37.95858765 C-27.30392952 34.57280626 -26.65323234 31.19158352 -25.99934387 27.81039429 C-25.81268661 26.77368088 -25.62602936 25.73696747 -25.43371582 24.6688385 C-23.9005021 16.86463177 -21.21732109 10.05259607 -14.89387512 4.89242554 C-14.34731262 4.43094116 -13.80075012 3.96945679 -13.23762512 3.49398804 C-8.92215843 0.62310553 -5.13010857 0.01534336 0 0 Z " fill="#000000" transform="translate(185.3938751220703,136.73257446289063)"/>
<path d="M0 0 C1.07225327 -0.00426498 2.14450653 -0.00852997 3.24925232 -0.01292419 C4.99102753 -0.01224442 4.99102753 -0.01224442 6.76799011 -0.0115509 C8.00286667 -0.01490952 9.23774323 -0.01826813 10.51004028 -0.02172852 C13.88623353 -0.0295853 17.26236526 -0.0329052 20.63856339 -0.0335443 C22.75163614 -0.03425681 24.86470251 -0.03639493 26.97777367 -0.03904152 C34.36032391 -0.04828396 41.74285615 -0.05237783 49.12541199 -0.05158997 C55.98955288 -0.05098963 62.85361508 -0.06153563 69.71773607 -0.07733363 C75.62538355 -0.09044212 81.53300542 -0.09577247 87.44066733 -0.09513456 C90.9626074 -0.09488052 94.48447749 -0.09767927 98.00640297 -0.10831261 C101.93868157 -0.1198615 105.87085361 -0.11522655 109.80314636 -0.10920715 C110.95825714 -0.11482666 112.11336792 -0.12044617 113.30348206 -0.12623596 C124.16198276 -0.08409169 132.20839008 0.86244281 140.16716003 8.82121277 C145.10294611 15.12398546 146.19085582 23.86859734 147.67106628 31.53215027 C148.06232719 33.49439287 148.45360368 35.45663236 148.84489441 37.41886902 C149.44786499 40.47987644 150.04854885 43.54132328 150.64836121 46.60295105 C151.23376454 49.58047033 151.82711472 52.55632642 152.42106628 55.53215027 C152.59819656 56.45087921 152.77532684 57.36960815 152.95782471 58.31617737 C153.12817734 59.16781464 153.29852997 60.0194519 153.4740448 60.89689636 C153.69363609 62.01866776 153.69363609 62.01866776 153.91766357 63.1631012 C154.45501913 65.42742637 154.45501913 65.42742637 156.47966003 68.13371277 C158.89272153 68.79620647 161.14064802 69.27312818 163.59928894 69.66130066 C164.67072364 69.84560056 164.67072364 69.84560056 165.76380348 70.0336237 C168.00036982 70.41419603 170.23936949 70.77578083 172.47966003 71.13371277 C173.81081107 71.35215613 175.14192814 71.57080661 176.4730072 71.78968811 C179.80002558 72.32698559 183.12846953 72.85105552 186.45901108 73.36579704 C189.39774407 73.82128472 192.3350396 74.28575236 195.27247047 74.74955082 C200.69765466 75.60613075 206.12328307 76.45946749 211.55143738 77.29704285 C215.37112972 77.88678496 219.18883754 78.4881596 223.0055275 79.09701729 C224.44237524 79.3240709 225.87988756 79.54696494 227.3180809 79.76533318 C248.82729056 83.03656204 248.82729056 83.03656204 254.41716003 89.82121277 C255.20413269 90.72420105 255.20413269 90.72420105 256.00700378 91.64543152 C261.07134709 100.20242538 260.94703693 109.0195301 260.87077332 118.69914246 C260.85469503 121.12842468 260.87067688 123.55604369 260.88981628 125.98527527 C260.90344282 135.95836729 260.57686154 145.41870189 254.06608582 153.57658386 C246.69669078 160.80988666 237.68741446 160.83730876 227.98161316 160.81730652 C227.10899841 160.80683289 226.23638367 160.79635925 225.33732605 160.78556824 C222.65484162 160.75858887 219.97647582 160.78549308 217.29411316 160.81730652 C215.57860919 160.81400522 213.86310777 160.80760479 212.14762878 160.79777527 C211.35172836 160.80789642 210.55582794 160.81801758 209.73580933 160.82844543 C205.51592614 160.73954839 203.91107409 160.47005291 200.46525574 157.78361511 C198.47966003 155.13371277 198.47966003 155.13371277 198.04216003 152.07121277 C198.4670849 149.21814578 198.81053834 147.47048314 200.47966003 145.13371277 C204.17757487 142.57502282 208.10068515 142.87114858 212.42106628 142.89543152 C213.9894344 142.88002101 215.55779396 142.86371806 217.12614441 142.84660339 C219.5907737 142.83010852 222.05477463 142.82124882 224.51945496 142.82829285 C226.90404631 142.83090623 229.28672949 142.8028566 231.67106628 142.77043152 C232.77739159 142.78574165 232.77739159 142.78574165 233.90606689 142.80136108 C236.23871275 142.81154736 236.23871275 142.81154736 239.47966003 142.13371277 C242.97396854 138.43452058 242.85432064 134.70655104 242.84294128 129.78605652 C242.84343979 129.09234451 242.84393829 128.39863251 242.8444519 127.68389893 C242.84212094 126.22402568 242.83245025 124.76414769 242.81584167 123.30436707 C242.79219585 121.07458979 242.79529425 118.84600598 242.80192566 116.61613464 C243.39107484 108.34470357 243.39107484 108.34470357 240.47966003 101.13371277 C235.31207822 99.66827163 230.1733398 98.68387425 224.86125183 97.86857605 C223.78872665 97.70221146 223.78872665 97.70221146 222.6945343 97.53248596 C221.15670364 97.29420275 219.61863202 97.05747028 218.08034325 96.82216263 C215.63539953 96.44736003 213.19144034 96.06666196 210.74768066 95.68421936 C203.80432734 94.59804337 196.86015488 93.5174213 189.91349792 92.45256042 C185.6492848 91.79846222 181.38690012 91.13339472 177.12545204 90.46152878 C175.51356034 90.20952151 173.90103504 89.96152912 172.28786278 89.71785355 C148.68224551 86.1483241 148.68224551 86.1483241 140.91716003 78.30558777 C136.84558363 72.1539669 135.61739278 64.7713613 134.25309753 57.64933777 C133.9633757 56.18231415 133.9633757 56.18231415 133.6678009 54.68565369 C133.05700899 51.58622444 132.45554616 48.4850761 131.85466003 45.38371277 C131.24460627 42.26849341 130.63265697 39.15365237 130.02009583 36.03892517 C129.64089759 34.10720881 129.26352538 32.17513288 128.88819885 30.24266052 C128.63255661 28.93044525 128.63255661 28.93044525 128.37174988 27.59172058 C128.22313507 26.8253125 128.07452026 26.05890442 127.92140198 25.26927185 C127.49493117 23.20753963 127.00571247 21.17208015 126.47966003 19.13371277 C123.30919968 18.19836852 120.46615548 18.00805975 117.16618347 18.00672913 C116.08945374 18.0039093 115.012724 18.00108948 113.90336609 17.9981842 C112.13902222 18.00122055 112.13902222 18.00122055 110.33903503 18.00431824 C109.09641907 18.00256592 107.8538031 18.0008136 106.5735321 17.99900818 C103.16862892 17.99536093 99.7637865 17.99621615 96.35888672 17.99938726 C92.79465148 18.00191997 89.23041882 17.99957078 85.66618347 17.9980011 C79.68082717 17.99618207 73.69548321 17.99857873 67.71012878 18.00334167 C60.79142137 18.00878378 53.87274342 18.00702094 46.95403671 18.00151527 C41.01253889 17.99697656 35.07104993 17.99633731 29.12955093 17.99895394 C25.58149482 18.00051253 22.03345256 18.00072189 18.48539734 17.99741745 C14.53034826 17.99399122 10.57533216 17.99874089 6.62028503 18.00431824 C5.44405579 18.00229401 4.26782654 18.00026978 3.05595398 17.9981842 C1.44085938 18.00241394 1.44085938 18.00241394 -0.2068634 18.00672913 C-1.60941376 18.00729466 -1.60941376 18.00729466 -3.04029846 18.00787163 C-5.3449461 18.12481301 -7.31356675 18.48267399 -9.52033997 19.13371277 C-10.06441884 21.67488114 -10.60562754 24.21661533 -11.14533997 26.75871277 C-11.32065247 27.57960388 -11.49596497 28.400495 -11.67658997 29.2462616 C-12.70115907 34.08971905 -13.68302552 38.93841657 -14.60417175 43.80271912 C-15.11063551 46.4768904 -15.62535485 49.14945636 -16.1396637 51.8221283 C-16.51398956 53.78786421 -16.87591687 55.75594809 -17.23762512 57.7240448 C-18.966092 66.68512019 -20.73998531 75.05587433 -28.42584229 80.76992798 C-36.86058678 86.26202108 -47.01611201 85.54969275 -56.67201042 85.51383781 C-59.37487151 85.50465037 -62.07705044 85.51503392 -64.77987671 85.53045654 C-72.45629492 85.57037157 -80.13265349 85.57174711 -87.80915833 85.56950378 C-92.52165452 85.56945279 -97.23377548 85.58855129 -101.9461689 85.61883736 C-104.6092749 85.62967564 -107.27167018 85.61753251 -109.93475342 85.60501099 C-111.56021335 85.61390982 -113.18566742 85.62398224 -114.81111145 85.63542175 C-115.55137573 85.62567825 -116.29164001 85.61593475 -117.05433655 85.605896 C-120.23438081 85.65070891 -122.05274583 85.71854898 -124.47790527 87.8717804 C-125.63852604 90.39015945 -125.90038379 92.05716791 -125.90852356 94.82292175 C-125.91798004 95.74745651 -125.92743652 96.67199127 -125.93717957 97.62454224 C-125.92807053 99.11214806 -125.92807053 99.11214806 -125.91877747 100.62980652 C-125.92164764 101.65550247 -125.92451782 102.68119843 -125.92747498 103.73797607 C-125.92951519 105.9057826 -125.92398836 108.07360754 -125.91145325 110.24137878 C-125.89541591 113.55551976 -125.91129544 116.86843813 -125.93049622 120.18254089 C-125.92851345 122.28996546 -125.9246691 124.39738926 -125.91877747 126.50480652 C-125.92485016 127.4945195 -125.93092285 128.48423248 -125.93717957 129.50393677 C-125.89767191 133.37966254 -125.70927664 136.56436698 -124.48347473 140.25822449 C-121.54132977 143.06901389 -118.56893892 142.82381016 -114.71174622 142.77043152 C-113.94861618 142.78080948 -113.18548615 142.79118744 -112.39923096 142.80187988 C-109.95997723 142.83159477 -107.52224217 142.82818455 -105.08283997 142.82121277 C-102.64743495 142.83011252 -100.21243754 142.84610564 -97.77716064 142.87268066 C-96.26246959 142.88756375 -94.74761988 142.89141773 -93.23287964 142.88290405 C-89.51663745 142.90297838 -86.63163579 142.9809208 -83.52033997 145.13371277 C-81.22065433 148.35327265 -80.96685358 151.25930809 -81.52033997 155.13371277 C-83.49969748 157.77528985 -85.1035754 159.7820088 -88.41081238 160.60301208 C-90.68427135 160.79549486 -92.90684323 160.82678777 -95.18830872 160.79777527 C-96.44059013 160.80495071 -96.44059013 160.80495071 -97.71817017 160.81227112 C-99.48240546 160.81566619 -101.24670399 160.80649104 -103.01081848 160.78556824 C-105.68277704 160.75896233 -108.35047044 160.78523774 -111.02229309 160.81730652 C-128.26078539 160.85374279 -128.26078539 160.85374279 -135.52033997 155.13371277 C-143.29046577 147.17832449 -143.8306366 138.42638273 -143.82112122 127.76652527 C-143.82540634 126.69175934 -143.82969147 125.61699341 -143.83410645 124.50965881 C-143.83982642 122.24551597 -143.8403673 119.98135475 -143.83601379 117.71720886 C-143.8328561 114.27629349 -143.85633547 110.83624071 -143.88166809 107.39543152 C-143.88394173 105.18579718 -143.88464428 102.97616054 -143.88362122 100.76652527 C-143.89283096 99.74954559 -143.90204071 98.73256592 -143.91152954 97.68476868 C-143.85386667 88.66372227 -142.47919236 80.71372237 -136.50862122 73.70402527 C-130.68153636 69.10188753 -125.20049167 67.54144998 -117.87287903 67.63542175 C-117.04908249 67.62990295 -116.22528595 67.62438416 -115.37652588 67.61869812 C-113.60274378 67.60943013 -111.82889511 67.60922959 -110.05510712 67.6172924 C-107.24701888 67.62998252 -104.43990475 67.61858011 -101.6318512 67.60125732 C-96.68831062 67.57463405 -91.74501138 67.56895915 -86.80140686 67.57035828 C-78.87540384 67.57259271 -70.94969758 67.55851033 -63.02381134 67.51477242 C-60.25835535 67.50493069 -57.4933669 67.51364973 -54.72792053 67.52346802 C-53.03535148 67.51732542 -51.34278498 67.51041422 -49.65022278 67.50260925 C-48.49842781 67.51418816 -48.49842781 67.51418816 -47.32336426 67.52600098 C-44.13571953 67.49562543 -41.88448004 67.33605012 -39.07106018 65.77275085 C-36.90013879 63.47818939 -36.57151943 61.50294604 -35.95783997 58.41886902 C-35.7205719 57.26676941 -35.48330383 56.1146698 -35.23884583 54.92765808 C-34.88318542 53.08059265 -34.88318542 53.08059265 -34.52033997 51.19621277 C-34.26325256 49.94034363 -34.00616516 48.68447449 -33.74128723 47.39054871 C-32.57176103 41.64291166 -31.46560608 35.8860651 -30.42268372 30.11418152 C-30.25703918 29.22142517 -30.09139465 28.32866882 -29.92073059 27.40885925 C-29.62305598 25.78499402 -29.34052508 24.15824052 -29.07698059 22.52848816 C-27.55254882 14.14687509 -23.43743768 8.03332365 -16.52033997 3.13371277 C-11.28967968 0.51838263 -5.78731973 0.01046583 0 0 Z " fill="#000000" transform="translate(197.5203399658203,33.86628723144531)"/>
<path d="M0 0 C1.26811523 -0.01260864 2.53623047 -0.02521729 3.84277344 -0.03820801 C5.22331295 -0.03104817 6.60384739 -0.02284418 7.984375 -0.01367188 C9.40397406 -0.0163675 10.82357131 -0.02025051 12.24316406 -0.02526855 C15.21567394 -0.03116045 18.18770241 -0.02261142 21.16015625 -0.00390625 C24.96696287 0.01888413 28.77264149 0.00575925 32.57940674 -0.01819611 C35.51001456 -0.03266301 38.44035574 -0.02804423 41.37097168 -0.01768494 C42.77437474 -0.01502007 44.17780215 -0.01827905 45.58117676 -0.02760315 C47.54369635 -0.03778128 49.50630102 -0.01951228 51.46875 0 C52.58475586 0.00318237 53.70076172 0.00636475 54.85058594 0.00964355 C58.41521737 0.63749791 59.5954171 1.63656197 61.734375 4.51757812 C62.68273901 11.15612618 62.68273901 11.15612618 59.92285156 15.11816406 C55.15552135 18.70570781 50.90000366 18.14344928 45.08984375 18.00585938 C43.40245842 17.99524727 43.40245842 17.99524727 41.6809845 17.98442078 C38.09393351 17.95646957 34.50845288 17.89372529 30.921875 17.83007812 C28.48765278 17.8049964 26.05340605 17.78218302 23.61914062 17.76171875 C17.65646288 17.7108947 11.69717299 17.6130338 5.734375 17.51757812 C5.734375 27.74757812 5.734375 37.97757813 5.734375 48.51757812 C11.29539062 48.44796875 11.29539062 48.44796875 16.96875 48.37695312 C20.55630117 48.34576512 24.14383729 48.3214729 27.73144531 48.29785156 C30.22630565 48.27772649 32.72111878 48.25042361 35.21582031 48.21582031 C38.80024868 48.16734356 42.38405385 48.14461792 45.96875 48.12695312 C47.08554138 48.10630798 48.20233276 48.08566284 49.35296631 48.06439209 C50.39374329 48.06408997 51.43452026 48.06378784 52.50683594 48.06347656 C53.42172791 48.05459412 54.33661987 48.04571167 55.27923584 48.03656006 C58.54842385 48.67706896 59.72269558 49.90622548 61.734375 52.51757812 C62.67004672 59.06728013 62.67004672 59.06728013 60.06225586 63.109375 C55.58003554 67.41138617 48.6308516 66.20468811 42.859375 66.14648438 C41.4884421 66.1473137 40.1175093 66.14977549 38.74658203 66.15379333 C35.87827498 66.15664685 33.01075074 66.14199604 30.14257812 66.11450195 C26.47372794 66.08041807 22.80627681 66.08644057 19.13735962 66.10516453 C16.30790635 66.11575467 13.47877628 66.10677881 10.64935303 66.09177971 C8.64141132 66.08410679 6.63343036 66.09143897 4.62548828 66.09901428 C3.40071777 66.08317795 2.17594727 66.06734161 0.9140625 66.05102539 C-0.69879639 66.04172752 -0.69879639 66.04172752 -2.34423828 66.03224182 C-6.05658664 65.3782336 -7.70779281 64.27128125 -10.265625 61.51757812 C-10.89381409 58.89953613 -10.89381409 58.89953613 -10.89672852 55.89453125 C-10.90926163 54.76656128 -10.92179474 53.63859131 -10.93470764 52.47644043 C-10.92144943 51.26282837 -10.90819122 50.04921631 -10.89453125 48.79882812 C-10.89694321 47.54880005 -10.89935516 46.29877197 -10.90184021 45.01086426 C-10.90086042 42.36720792 -10.89002993 39.72581128 -10.86254883 37.08251953 C-10.82846389 33.69936036 -10.83448534 30.31771821 -10.8532114 26.93448639 C-10.86633826 23.70167891 -10.84806177 20.46910284 -10.83203125 17.23632812 C-10.83699112 16.02271606 -10.84195099 14.809104 -10.84706116 13.55871582 C-10.83122482 12.43074585 -10.81538849 11.30277588 -10.79907227 10.140625 C-10.79287369 9.14897339 -10.78667511 8.15732178 -10.7802887 7.13562012 C-9.57185185 0.98842452 -5.71489153 0.01629643 0 0 Z " fill="#000000" transform="translate(258.265625,167.482421875)"/>
<path d="M0 0 C0.69641602 -0.00700928 1.39283203 -0.01401855 2.11035156 -0.02124023 C4.40730932 -0.03881383 6.70303021 -0.02720107 9 -0.01367188 C10.59896073 -0.01636701 12.19791987 -0.0202496 13.796875 -0.02526855 C17.14599226 -0.03116269 20.49468243 -0.0226038 23.84375 -0.00390625 C28.13478591 0.01888377 32.42482111 0.00576017 36.71582031 -0.01819611 C40.01700366 -0.03265667 43.31795011 -0.02804703 46.61914062 -0.01768494 C48.20117308 -0.01501834 49.78322711 -0.0182851 51.36523438 -0.02760315 C53.57740163 -0.03777366 55.787953 -0.02226378 58 0 C59.8871875 0.00477356 59.8871875 0.00477356 61.8125 0.00964355 C65 0.51757812 65 0.51757812 67.40415955 2.2902832 C69.1295844 4.69843748 69.5078951 5.75573107 69.53344727 8.671875 C69.5492836 9.47951294 69.56511993 10.28715088 69.58143616 11.1192627 C69.57647629 11.98289429 69.57151642 12.84652588 69.56640625 13.73632812 C69.57260483 14.63121948 69.57880341 15.52611084 69.58518982 16.44812012 C69.59228467 18.33763543 69.58911979 20.22721329 69.57641602 22.11669922 C69.56254592 25.00800503 69.5966286 27.89607673 69.63476562 30.78710938 C69.63571681 32.62434975 69.63385806 34.46159418 69.62890625 36.29882812 C69.64216446 37.16245972 69.65542267 38.02609131 69.66908264 38.91589355 C69.57631392 44.89394101 69.57631392 44.89394101 66.64819336 48.0625 C63.38667493 49.85457614 61.67005351 50.12925371 58 49.51757812 C55.34301758 47.89355469 55.34301758 47.89355469 53 45.51757812 C52.43237305 42.49316406 52.43237305 42.49316406 52.51171875 39.00195312 C52.52420654 37.87499023 52.53669434 36.74802734 52.54956055 35.58691406 C52.59508057 34.1615332 52.64060059 32.73615234 52.6875 31.26757812 C52.790625 26.73007813 52.89375 22.19257812 53 17.51757812 C37.16 17.51757812 21.32 17.51757812 5 17.51757812 C5.11859665 26.59755968 5.11859665 26.59755968 5.27026367 35.67700195 C5.27775635 36.8064624 5.28524902 37.93592285 5.29296875 39.09960938 C5.3086792 40.2569458 5.32438965 41.41428223 5.34057617 42.60668945 C5 45.51757812 5 45.51757812 3.69262695 47.36401367 C0.8723259 49.28611413 -1.63903356 49.40168273 -5 49.51757812 C-7.37633793 48.38106868 -9.14441029 47.37316784 -11 45.51757812 C-11.1384459 42.5345941 -11.21320203 39.57646314 -11.23828125 36.59179688 C-11.246353 35.69266068 -11.25442474 34.79352448 -11.26274109 33.86714172 C-11.27659941 31.959706 -11.28731371 30.05224529 -11.29516602 28.14477539 C-11.3123675 25.22754821 -11.35623589 22.31145737 -11.40039062 19.39453125 C-11.4105181 17.54362815 -11.41903403 15.69271539 -11.42578125 13.84179688 C-11.44328934 12.96875412 -11.46079742 12.09571136 -11.47883606 11.19621277 C-11.47591049 10.37889175 -11.47298492 9.56157074 -11.4699707 8.71948242 C-11.47583694 8.00302048 -11.48170319 7.28655853 -11.48774719 6.54838562 C-10.02203895 0.44569282 -5.52548047 0.01397647 0 0 Z " fill="#000000" transform="translate(243,63.482421875)"/>
<path d="M0 0 C0.66 -0.0103125 1.32 -0.020625 2 -0.03125 C4.92841879 0.74661124 6.09416915 2.17335182 8 4.5 C8.5146637 7.19396973 8.5146637 7.19396973 8.53344727 10.30664062 C8.5492836 11.4746521 8.56511993 12.64266357 8.58143616 13.84606934 C8.57399635 15.73210876 8.57399635 15.73210876 8.56640625 17.65625 C8.57260483 18.95067017 8.57880341 20.24509033 8.58518982 21.57873535 C8.59558721 24.31585498 8.59104255 27.05245451 8.57641602 29.78955078 C8.55922036 33.29390391 8.5827325 36.79661857 8.61790562 40.30078888 C8.6451688 43.64853949 8.63514448 46.99589343 8.62890625 50.34375 C8.64216446 51.60110962 8.65542267 52.85846924 8.66908264 54.15393066 C8.65654953 55.32194214 8.64401642 56.48995361 8.63110352 57.69335938 C8.62966087 59.23413147 8.62966087 59.23413147 8.62818909 60.80603027 C7.77021219 64.48543803 6.13750964 65.52329824 3 67.5 C-0.78989343 68.1316489 -2.38739251 67.88595652 -5.64805603 65.83166504 C-8 63.5 -8 63.5 -8.62818909 60.80603027 C-8.62915085 59.77884888 -8.63011261 58.75166748 -8.63110352 57.69335938 C-8.64363663 56.5253479 -8.65616974 55.35733643 -8.66908264 54.15393066 C-8.65582443 52.89657104 -8.64256622 51.63921143 -8.62890625 50.34375 C-8.63131821 49.04932983 -8.63373016 47.75490967 -8.63621521 46.42126465 C-8.63907084 43.68400617 -8.62439765 40.94756704 -8.59692383 38.21044922 C-8.56283914 34.70623836 -8.56886018 31.20349212 -8.5875864 27.69921112 C-8.6007116 24.35141232 -8.58243777 21.0040386 -8.56640625 17.65625 C-8.57136612 16.39889038 -8.57632599 15.14153076 -8.58143616 13.84606934 C-8.56559982 12.67805786 -8.54976349 11.51004639 -8.53344727 10.30664062 C-8.52724869 9.27945923 -8.52105011 8.25227783 -8.5146637 7.19396973 C-7.62786063 2.5520635 -4.74555323 -0.07414927 0 0 Z " fill="#000000" transform="translate(256,339.5)"/>
<path d="M0 0 C2.64819336 1.61914062 2.64819336 1.61914062 5 4 C5.63110352 7.05273438 5.63110352 7.05273438 5.62890625 10.59375 C5.63180664 12.50994141 5.63180664 12.50994141 5.63476562 14.46484375 C5.62227783 15.12726074 5.60979004 15.78967773 5.59692383 16.47216797 C5.562592 18.49458029 5.57626989 20.51262363 5.59570312 22.53515625 C5.52141791 32.35070977 5.52141791 32.35070977 3.08959961 35.37890625 C0.81682279 37.14210733 -0.16533889 37.54429158 -3 37.5 C-3.99 37.51546875 -3.99 37.51546875 -5 37.53125 C-7.9560837 36.74604027 -9.09494436 35.37225076 -11 33 C-11.72414473 28.85596992 -11.61679319 24.73012512 -11.57641602 20.52783203 C-11.56253545 18.50516607 -11.59664196 16.48711989 -11.63476562 14.46484375 C-11.63283203 13.18738281 -11.63089844 11.90992188 -11.62890625 10.59375 C-11.62963135 9.42521484 -11.63035645 8.25667969 -11.63110352 7.05273438 C-11 4 -11 4 -8.64819336 1.61914062 C-5.38670398 -0.37497734 -3.76189121 -0.62698187 0 0 Z " fill="#000000" transform="translate(259,289)"/>
</svg>
